<svg width="19" height="24" viewBox="0 0 19 24" fill="none" xmlns="http://www.w3.org/2000/svg">
<path fill-rule="evenodd" clip-rule="evenodd" d="M14.7633 2.22636C14.8897 2.10865 14.991 1.96671 15.0612 1.80899C15.1315 1.65128 15.1693 1.48103 15.1723 1.3084C15.1754 1.13576 15.1436 0.964284 15.079 0.80419C15.0143 0.644096 14.9181 0.498666 14.796 0.376577C14.6739 0.254488 14.5285 0.15824 14.3684 0.0935753C14.2083 0.0289107 14.0368 -0.00284582 13.8642 0.000200093C13.6915 0.00324601 13.5213 0.041032 13.3636 0.111304C13.2058 0.181576 13.0639 0.282894 12.9462 0.409214L10.3748 2.98064C10.2484 3.09835 10.1471 3.24029 10.0769 3.39801C10.0066 3.55572 9.96879 3.72597 9.96575 3.8986C9.9627 4.07124 9.99446 4.24272 10.0591 4.40281C10.1238 4.5629 10.22 4.70833 10.3421 4.83042C10.4642 4.95251 10.6096 5.04876 10.7697 5.11342C10.9298 5.17809 11.1013 5.20985 11.2739 5.2068C11.4466 5.20375 11.6168 5.16597 11.7745 5.0957C11.9323 5.02542 12.0742 4.92411 12.1919 4.79779L14.7633 2.22636ZM12.1268 6.38179C13.2735 6.16396 14.4598 6.31606 15.5144 6.81613C16.5691 7.3162 17.4376 8.13838 17.9948 9.16407C18.0553 9.27521 18.0904 9.39836 18.0977 9.52469C18.1049 9.65102 18.0842 9.77739 18.0368 9.89473C17.9894 10.0121 17.9167 10.1175 17.8237 10.2034C17.7308 10.2893 17.62 10.3535 17.4993 10.3915C16.8675 10.5912 16.3155 10.9866 15.9232 11.5207C15.5309 12.0547 15.3186 12.6997 15.317 13.3624V13.3761C15.304 14.1356 15.5696 14.8736 16.0635 15.4506C16.5575 16.0277 17.2458 16.4039 17.9982 16.5081C18.1179 16.5246 18.2328 16.5662 18.3354 16.6302C18.4379 16.6943 18.5257 16.7793 18.593 16.8796C18.6604 16.98 18.7057 17.0935 18.7261 17.2126C18.7465 17.3318 18.7415 17.4539 18.7113 17.5709C18.2048 19.5479 17.1757 21.3521 15.7319 22.7944C15 23.4425 14.0627 23.8113 13.0854 23.8357C12.1081 23.8602 11.1536 23.5387 10.3902 22.9281C10.1754 22.773 9.91687 22.6901 9.65193 22.6914C9.38699 22.6926 9.12928 22.7779 8.9159 22.9349C8.11634 23.5382 7.12745 23.8357 6.12776 23.7738C5.12808 23.7118 4.18347 23.2945 3.46448 22.5972C1.60109 20.625 0.43324 18.0979 0.138762 15.4006C-0.218016 13.3859 0.117942 11.3097 1.0919 9.51036C1.45761 8.79368 1.96856 8.16102 2.59222 7.65267C3.21588 7.14432 3.93857 6.77144 4.71427 6.55776C5.48997 6.34408 6.30166 6.29429 7.09766 6.41157C7.89366 6.52884 8.65651 6.81061 9.33762 7.23893C9.44546 7.2988 9.56655 7.33079 9.68989 7.33198C9.81323 7.33318 9.93492 7.30355 10.0439 7.24579C10.6711 6.8171 11.3803 6.52292 12.1268 6.38179Z" fill="#3E3E3E"/>
</svg>
