<svg width="21" height="16" viewBox="0 0 21 16" fill="none" xmlns="http://www.w3.org/2000/svg">
<path d="M15.5 11H13.5C13.2167 11 12.9792 11.0958 12.7875 11.2875C12.5958 11.4792 12.5 11.7167 12.5 12C12.5 12.2833 12.5958 12.5208 12.7875 12.7125C12.9792 12.9042 13.2167 13 13.5 13H16.5C16.7833 13 17.0208 12.9042 17.2125 12.7125C17.4042 12.5208 17.5 12.2833 17.5 12V9C17.5 8.71667 17.4042 8.47917 17.2125 8.2875C17.0208 8.09583 16.7833 8 16.5 8C16.2167 8 15.9792 8.09583 15.7875 8.2875C15.5958 8.47917 15.5 8.71667 15.5 9V11ZM5.5 5H7.5C7.78333 5 8.02083 4.90417 8.2125 4.7125C8.40417 4.52083 8.5 4.28333 8.5 4C8.5 3.71667 8.40417 3.47917 8.2125 3.2875C8.02083 3.09583 7.78333 3 7.5 3H4.5C4.21667 3 3.97917 3.09583 3.7875 3.2875C3.59583 3.47917 3.5 3.71667 3.5 4V7C3.5 7.28333 3.59583 7.52083 3.7875 7.7125C3.97917 7.90417 4.21667 8 4.5 8C4.78333 8 5.02083 7.90417 5.2125 7.7125C5.40417 7.52083 5.5 7.28333 5.5 7V5ZM2.5 16C1.95 16 1.47917 15.8042 1.0875 15.4125C0.695833 15.0208 0.5 14.55 0.5 14V2C0.5 1.45 0.695833 0.979167 1.0875 0.5875C1.47917 0.195833 1.95 0 2.5 0H18.5C19.05 0 19.5208 0.195833 19.9125 0.5875C20.3042 0.979167 20.5 1.45 20.5 2V14C20.5 14.55 20.3042 15.0208 19.9125 15.4125C19.5208 15.8042 19.05 16 18.5 16H2.5ZM2.5 14H18.5V2H2.5V14Z" fill="#2D4356"/>
</svg>
