<svg width="360" height="307" viewBox="0 0 360 307" fill="none" xmlns="http://www.w3.org/2000/svg">
<path d="M-15 33H374V287C374 298.046 365.046 307 354 307H5C-6.04569 307 -15 298.046 -15 287V33Z" fill="#F06B00"/>
<path d="M3.52261 25.5L-12.9987 5L-14 3V33H373.5V4L355.977 25.5L336.953 1L316.927 25.5L297.402 1L277.877 25.5L258.351 1L238.826 25.5L219.301 1L199.776 25.5L180.251 1L160.225 25.5L140.7 1L121.174 25.5L102.15 1L82.6247 25.5L62.5988 1L43.0736 25.5L23.5485 1L3.52261 25.5Z" fill="#F06B00" stroke="#F06B00"/>
</svg>
