<svg width="136" height="119" viewBox="0 0 136 119" fill="none" xmlns="http://www.w3.org/2000/svg">
<path d="M36.9096 15.3302C37.9694 8.98324 33.6833 2.97882 27.3363 1.91898C20.9894 0.859132 14.9849 5.14521 13.9251 11.4922C12.8652 17.8392 17.1513 23.8436 23.4983 24.9035C29.8453 25.9633 35.8497 21.6772 36.9096 15.3302Z" fill="#C7C7C7"/>
<path d="M25.9494 24.7842C32.0897 24.7842 37.0673 19.8065 37.0673 13.6663C37.0673 7.52605 32.0897 2.5484 25.9494 2.5484C19.8092 2.5484 14.8315 7.52605 14.8315 13.6663C14.8315 19.8065 19.8092 24.7842 25.9494 24.7842Z" fill="#A6A6A6"/>
<path d="M25.9494 24.0837C31.7028 24.0837 36.3669 19.4196 36.3669 13.6662C36.3669 7.91279 31.7028 3.24872 25.9494 3.24872C20.196 3.24872 15.5319 7.91279 15.5319 13.6662C15.5319 19.4196 20.196 24.0837 25.9494 24.0837Z" fill="white"/>
<path d="M26.0476 4.00806H25.848V5.58557H26.0476V4.00806Z" fill="white"/>
<path d="M21.2095 5.24833L21.0338 5.34979L21.8225 6.71596L21.9983 6.61451L21.2095 5.24833Z" fill="white"/>
<path d="M17.6299 8.75075L17.53 8.92365L18.8962 9.7124L18.996 9.53951L17.6299 8.75075Z" fill="white"/>
<path d="M17.8654 13.5648H16.2879V13.7677H17.8654V13.5648Z" fill="white"/>
<path d="M18.9017 17.6177L17.5356 18.4067L17.6355 18.5796L19.0015 17.7906L18.9017 17.6177Z" fill="white"/>
<path d="M21.8208 20.6191L21.0328 21.9857L21.2086 22.0871L21.9966 20.7205L21.8208 20.6191Z" fill="white"/>
<path d="M26.0476 21.7469H25.848V23.3245H26.0476V21.7469Z" fill="white"/>
<path d="M30.0754 20.6115L29.8997 20.713L30.6884 22.0791L30.8642 21.9777L30.0754 20.6115Z" fill="white"/>
<path d="M32.9941 17.617L32.8943 17.7899L34.2605 18.5786L34.3603 18.4057L32.9941 17.617Z" fill="white"/>
<path d="M35.6076 13.5648H34.03V13.7677H35.6076V13.5648Z" fill="white"/>
<path d="M34.2613 8.75342L32.8951 9.54218L32.9949 9.71507L34.3611 8.92632L34.2613 8.75342Z" fill="white"/>
<path d="M30.6904 5.25359L29.9024 6.62018L30.0782 6.72154L30.8662 5.35496L30.6904 5.25359Z" fill="white"/>
<path d="M27.5246 10.3474L22.9529 19.3315L23.1309 19.422L27.7026 10.4379L27.5246 10.3474Z" fill="white"/>
<path d="M25.3745 10.0988L25.1114 10.1515L27.0599 19.8849L27.323 19.8323L25.3745 10.0988Z" fill="#263238"/>
<path d="M81.5225 60.7855V105.725H108.687V60.7855H81.5225ZM106.216 89.1317H83.9869V77.4378H106.216V89.1317ZM106.216 74.6526H83.9869V62.9587H106.216V74.6526Z" fill="#EBEBEB"/>
<path d="M119.54 60.7855H108.681V105.709H119.54V60.7855Z" fill="white"/>
<path d="M89.2725 62.9556H83.9901V74.6495H89.2725V62.9556Z" fill="white"/>
<path d="M106.38 103.054H83.964V91.5798H106.38V103.054ZM84.2913 102.727H106.053V91.9071H84.2913V102.727Z" fill="white"/>
<path d="M96.4368 94.8789H92.0512V97.0979H96.4368V94.8789Z" fill="white"/>
<path d="M97.8997 97.0945H93.1836V94.8821H97.8997V97.0945ZM93.5108 96.7672H97.5725V95.2094H93.5108V96.7672Z" fill="white"/>
<path d="M89.2725 77.4379H83.9901V89.1318H89.2725V77.4379Z" fill="white"/>
<path d="M12.3671 105.656L26.9116 105.578L41.4529 105.548L70.542 105.496L99.6279 105.548L114.172 105.578L128.717 105.656L114.172 105.738L99.6279 105.768L70.542 105.82L41.4529 105.768L26.9116 105.738L12.3671 105.656Z" fill="#263238"/>
<path d="M48.7579 118.538C74.4124 118.538 95.2095 116.178 95.2095 113.266C95.2095 110.354 74.4124 107.993 48.7579 107.993C23.1034 107.993 2.3063 110.354 2.3063 113.266C2.3063 116.178 23.1034 118.538 48.7579 118.538Z" fill="#BDBDBD"/>
<path d="M112.127 116.297C124.942 116.297 135.331 114.94 135.331 113.266C135.331 111.592 124.942 110.235 112.127 110.235C99.3114 110.235 88.9224 111.592 88.9224 113.266C88.9224 114.94 99.3114 116.297 112.127 116.297Z" fill="#BDBDBD"/>
<path d="M13.6402 113.033L67.315 113.266C80.3606 103.019 81.7155 87.839 72.401 78.639C66.7684 73.0752 59.614 74.1978 52.8032 73.3108H52.7835C50.4107 73.0032 48.0837 72.45 45.8745 71.2849C38.8608 67.5833 34.9072 58.8481 29.0062 51.5136C28.2698 50.5939 27.5007 49.6972 26.6956 48.8364C21.842 43.6555 12.1838 43.4853 7.13376 50.7707C-5.69583 69.2754 0.185491 96.823 13.6402 113.033Z" fill="white"/>
<path d="M12.4489 70.6859C13.8562 92.709 39.2863 100.93 55.176 94.3323C68.9874 88.595 64.4676 75.5036 52.8097 73.3108H52.7835C50.4107 73.0031 48.0837 72.45 45.8745 71.2849C38.8608 67.5833 34.9072 58.848 29.0062 51.5136C20.2219 46.9447 11.4179 54.5606 12.4489 70.6859Z" fill="#C7C7C7"/>
<path d="M57.0611 111.548C56.3181 111.276 39.5317 97.8572 39.2142 96.9408C39.0898 96.5938 40.903 94.0345 43.1809 91.0038C43.6718 90.3492 44.1824 89.6947 44.7061 88.9976C48.1 84.5759 51.8016 79.9645 51.8016 79.9645L63.057 88.9092L55.6538 97.6935L54.0173 99.6245C54.0173 99.6245 58.1477 107.636 58.3866 108.677C58.6255 109.718 57.804 111.819 57.0611 111.548Z" fill="#AD6359"/>
<path d="M57.0611 111.548C56.3182 111.276 39.5317 97.8572 39.2142 96.9408C39.067 96.5186 41.7703 92.8268 44.7061 88.9976L55.6538 97.6935L54.0174 99.6245C54.0174 99.6245 58.1477 107.636 58.3866 108.677C58.6255 109.718 57.804 111.819 57.0611 111.548Z" fill="white"/>
<path d="M57.0611 111.547C56.3181 111.276 39.5317 97.8571 39.2142 96.9407C39.0898 96.5938 40.903 94.0344 43.1809 91.0038L54.0271 99.6245C54.0271 99.6245 58.1575 107.636 58.3964 108.677C58.6353 109.718 57.804 111.819 57.0611 111.547Z" fill="#45BEF2"/>
<path d="M57.3655 110.683C54.6064 108.366 43.2595 99.2743 40.3466 97.1927C40.3204 97.1764 40.3106 97.1927 40.3466 97.2124C43.0304 99.5688 54.4526 108.566 57.3327 110.729C57.3818 110.775 57.4145 110.733 57.3655 110.683Z" fill="#263238"/>
<path d="M57.8007 107.211C57.4943 106.953 57.1377 106.762 56.7534 106.649C56.3692 106.536 55.9657 106.505 55.5686 106.556C54.8521 106.641 54.1962 107 53.7391 107.558C53.7391 107.574 53.7554 107.6 53.7718 107.584C54.3134 107.104 54.9959 106.813 55.717 106.754C56.4381 106.695 57.1589 106.871 57.7712 107.257C57.7773 107.261 57.7847 107.262 57.7917 107.26C57.7988 107.259 57.805 107.255 57.8089 107.249C57.8128 107.242 57.8141 107.235 57.8126 107.228C57.811 107.221 57.8068 107.215 57.8007 107.211Z" fill="#263238"/>
<path d="M54.8977 100.777C53.7817 99.8602 52.1583 99.2154 50.7215 99.5754C50.6659 99.5918 50.6888 99.6704 50.7215 99.6802C52.1193 99.9507 53.4842 100.37 54.793 100.93C54.8134 100.944 54.8385 100.95 54.8627 100.945C54.8869 100.94 54.9084 100.926 54.9223 100.906C54.9361 100.885 54.9414 100.86 54.9368 100.836C54.9321 100.812 54.9181 100.79 54.8977 100.777Z" fill="#263238"/>
<path d="M55.4934 101.798C54.3806 100.881 52.7572 100.236 51.3205 100.596C51.2648 100.613 51.2877 100.691 51.3205 100.701C52.722 100.976 54.0902 101.399 55.4017 101.964C55.4238 101.977 55.4499 101.98 55.4741 101.972C55.4984 101.965 55.5188 101.949 55.531 101.927C55.5431 101.905 55.546 101.879 55.5389 101.854C55.5319 101.83 55.5155 101.81 55.4934 101.798Z" fill="#263238"/>
<path d="M56.0923 102.845C54.9796 101.929 53.3562 101.284 51.9195 101.644C51.8638 101.644 51.8835 101.739 51.9195 101.745C53.3159 102.018 54.6796 102.439 55.9876 102.999C56.008 103.013 56.0331 103.018 56.0573 103.013C56.0816 103.009 56.103 102.995 56.1169 102.974C56.1308 102.954 56.136 102.929 56.1314 102.904C56.1268 102.88 56.1127 102.859 56.0923 102.845Z" fill="#263238"/>
<path d="M56.6913 103.879C55.5785 102.963 53.9552 102.318 52.5184 102.678C52.4628 102.678 52.4824 102.77 52.5184 102.779C53.9152 103.051 55.279 103.471 56.5865 104.033C56.6069 104.047 56.632 104.052 56.6563 104.047C56.6805 104.043 56.7019 104.029 56.7158 104.008C56.7297 103.988 56.7349 103.963 56.7303 103.939C56.7257 103.914 56.7117 103.893 56.6913 103.879Z" fill="#263238"/>
<path d="M43.2005 95.0916C41.9339 94.0868 40.3695 96.0538 41.6361 97.0553C42.9027 98.0568 44.4704 96.0996 43.2005 95.0916Z" fill="#263238"/>
<path d="M58.5142 98.744C58.3244 97.8145 57.2345 97.7033 56.4916 97.9127C55.2217 98.2969 54.075 99.0079 53.1664 99.9746C53.1616 99.9783 53.1578 99.983 53.1551 99.9884C53.1525 99.9938 53.1511 99.9997 53.1511 100.006C53.1511 100.012 53.1525 100.018 53.1551 100.023C53.1578 100.028 53.1616 100.033 53.1664 100.037C53.1535 100.062 53.1468 100.089 53.1468 100.117C53.1468 100.145 53.1535 100.172 53.1663 100.197C53.1791 100.222 53.1978 100.243 53.2206 100.259C53.2433 100.275 53.2697 100.285 53.2973 100.289C54.541 100.374 55.8632 100.616 57.0971 100.322C57.8269 100.161 58.6975 99.6212 58.5142 98.744ZM55.2217 100.034C54.6064 100.007 53.9977 99.9484 53.3856 99.9419C54.0402 99.5426 54.6621 99.1171 55.3494 98.78C55.6788 98.6149 56.0189 98.4717 56.3672 98.3513C56.9105 98.1746 58.7695 98.1156 57.9022 99.4313C57.4276 100.161 55.9516 100.066 55.2217 100.034Z" fill="#263238"/>
<path d="M50.0343 98.1582C50.895 99.091 52.1289 99.6212 53.2122 100.24C53.2373 100.252 53.2649 100.258 53.2928 100.257C53.3207 100.257 53.348 100.249 53.3724 100.236C53.3968 100.222 53.4176 100.203 53.433 100.18C53.4484 100.157 53.458 100.13 53.461 100.102C53.4839 100.102 53.5068 100.102 53.5035 100.06C53.2862 98.7499 52.7274 97.5205 51.8834 96.4956C51.3827 95.9065 50.4172 95.3959 49.7397 96.0603C49.0622 96.7247 49.5303 97.6116 50.0343 98.1582ZM49.8674 96.9734C49.8674 95.3959 51.3892 96.4792 51.7427 96.9243C51.9659 97.2185 52.1683 97.528 52.3482 97.8506C52.7344 98.5051 53.0224 99.2153 53.33 99.9092C52.8162 99.5819 52.2795 99.2808 51.7525 98.9633C51.1471 98.5837 49.8608 97.8407 49.8674 96.9734Z" fill="#263238"/>
<path d="M74.4269 71.7135C74.4073 73.3958 72.725 76.4657 70.4209 79.8957C65.9895 86.5036 59.2441 94.4402 57.5783 96.3778L57.1986 96.8163L45.2789 87.6523L45.4163 87.4756L55.9124 73.7296L24.5977 73.5463L36.488 64.3005C36.488 64.3005 37.4535 64.8569 39.4565 64.5624C46.3687 63.551 61.9508 61.3124 65.6229 61.4597C70.362 61.6626 74.4989 66.3002 74.4269 71.7135Z" fill="#455A64"/>
<path d="M70.4208 79.899C65.9894 86.5069 59.244 94.4436 57.5781 96.3811L45.4162 87.4822L55.9123 73.7362L70.4208 79.899Z" fill="#263238"/>
<path d="M59.6827 68.6271C59.2927 69.0664 58.9309 69.5299 58.5993 70.0148L57.4833 71.468V71.4843C57.5488 71.3403 57.6142 71.1963 57.6829 71.0556C57.9153 70.5712 58.1019 70.0737 58.3801 69.609C58.3964 69.5795 58.3539 69.5533 58.3375 69.5828C58.0528 70.041 57.7222 70.4796 57.48 70.9639C57.3655 71.1898 57.2575 71.4221 57.1527 71.6545C57.0971 71.7822 57.0382 71.9131 56.9891 72.0407C56.9662 72.1029 56.94 72.1651 56.9204 72.2305C56.7567 72.4564 56.5931 72.6822 56.4327 72.9146C56.0792 73.4251 55.7781 73.9651 55.4083 74.4757C55.3887 74.5019 55.4345 74.5281 55.4541 74.5019C55.8141 74.0241 56.22 73.5789 56.5898 73.1044C56.9596 72.6298 57.3197 72.1225 57.6698 71.6251C58.02 71.1276 58.3473 70.6432 58.691 70.1588C59.065 69.6773 59.4093 69.1735 59.7219 68.65C59.725 68.6448 59.7258 68.6386 59.7243 68.6328C59.7227 68.627 59.719 68.622 59.7137 68.6189C59.7085 68.6159 59.7023 68.6151 59.6965 68.6166C59.6907 68.6181 59.6857 68.6219 59.6827 68.6271Z" fill="#263238"/>
<path d="M28.8916 51.2058C31.1106 53.9386 39.1684 61.7509 44.1988 62.8964C46.9709 63.5281 60.3667 65.4034 62.1995 63.731C64.353 61.7673 63.3548 54.4001 61.6431 54.3314C56.4262 54.1252 46.7712 55.1463 44.3592 54.6161C43.266 54.3739 37.4862 50.6429 31.307 47.6613C28.9898 46.5321 27.396 49.3468 28.8916 51.2058Z" fill="#AD6359"/>
<path d="M59.5877 53.6867C59.5877 53.6867 59.5582 53.9714 59.5092 54.4558C59.5092 54.5344 59.5091 54.6195 59.4862 54.7078C59.4568 54.986 59.4241 55.3133 59.3881 55.6733C59.3881 55.7159 59.3881 55.7584 59.3881 55.8009C59.3597 56.1021 59.327 56.4228 59.2899 56.7632C59.2899 56.845 59.2702 56.9301 59.2637 57.0152C59.231 57.3261 59.195 57.6501 59.1622 57.9807C59.1622 58.0232 59.1622 58.0658 59.1622 58.1083C59.1262 58.4356 59.0935 58.7629 59.0575 59.0902C59.0575 59.172 59.0379 59.2571 59.0313 59.3389C58.9953 59.6662 58.9593 59.9935 58.9233 60.3044C58.9233 60.3469 58.9233 60.3895 58.9069 60.432C58.8709 60.7593 58.8349 61.0866 58.7989 61.3975L58.7695 61.6463C58.7433 61.8525 58.7204 62.0554 58.6975 62.2517C58.6811 62.3728 58.6648 62.4939 58.6517 62.6118C58.6517 62.6543 58.6517 62.6969 58.6517 62.7394C58.6277 62.9227 58.6048 63.0994 58.5829 63.2696C58.5633 63.4202 58.5437 63.5674 58.5273 63.7049C58.5273 63.79 58.5011 63.8751 58.488 63.9536C58.4226 64.402 58.3669 64.7391 58.3178 64.9355C58.3099 64.9799 58.2955 65.0229 58.2753 65.0631C58.2753 65.0631 58.2589 65.0828 58.2524 65.0828L58.0855 65.0631L57.6207 65.014L57.3687 64.9879L56.832 64.9355L56.4065 64.8929H56.2756L55.3134 64.7948L55.0613 64.7686L54.0991 64.6704H53.9682L53.006 64.5689L52.754 64.5427L51.7918 64.438H51.6608L50.6986 64.3333L50.4466 64.3038L49.4844 64.1925H49.3535L48.3913 64.078L48.1393 64.0485L47.9331 64.0224L47.177 63.9274L47.0461 63.9111L46.0839 63.7834H46.0217L45.8319 63.7573L44.8697 63.6198L44.7388 63.6002C44.3918 63.5478 44.0711 63.4954 43.7765 63.4431L43.5245 63.3972C43.1449 63.3285 42.8176 63.2631 42.5623 63.1976L42.4314 63.1649L42.3627 63.1452C42.0946 63.0631 41.8357 62.9535 41.5903 62.8179L41.4692 62.7558L41.3514 62.6903L41.2172 62.615C40.9193 62.4383 40.5986 62.2321 40.255 61.9932C40.2124 61.967 40.1699 61.9343 40.124 61.9016L39.8753 61.7248L39.5317 61.4761L39.1618 61.1979L38.9098 61.0048L38.288 60.5106L38.1276 60.3829L37.9476 60.2357L37.8167 60.1277L37.6432 59.9869C37.4207 59.8004 37.1916 59.6138 36.9657 59.4175C36.9271 59.3877 36.8899 59.3561 36.8545 59.3225L36.6712 59.1687L36.6024 59.1098C36.2752 58.8349 35.9479 58.5567 35.6402 58.272L35.5617 58.2032L35.5093 58.1574L35.4177 58.0756L34.5471 57.2934L34.3442 57.1101L34.2951 57.0643L34.066 56.8581C33.8172 56.6323 33.5718 56.4032 33.3296 56.1773L33.1463 55.9777L32.9696 55.814L32.8321 55.6864L32.1775 55.0744L31.9255 54.8355L31.8044 54.7209L31.5393 54.4689L30.96 53.9125L30.8324 53.7881L30.5444 53.5067L30.4102 53.3758L29.8735 52.8325L29.6247 52.5837L29.4447 52.407L29.2353 52.1943L29.1993 52.155C29.0029 51.9566 28.8224 51.7432 28.6592 51.5168C28.6134 51.4579 28.5709 51.3957 28.5316 51.3335C28.4923 51.2713 28.4694 51.2386 28.4399 51.1928C28.4107 51.1511 28.3844 51.1073 28.3614 51.0619C28.1787 50.7595 28.0326 50.4365 27.9261 50.0996C27.8965 50.017 27.8714 49.9329 27.8508 49.8476C27.7677 49.534 27.7324 49.2096 27.7461 48.8854C27.7461 48.8396 27.7461 48.797 27.7461 48.7545C27.7743 48.4071 27.8977 48.0741 28.1028 47.7923C28.1741 47.6997 28.2553 47.6152 28.345 47.5403C28.3995 47.4933 28.4575 47.4506 28.5185 47.4126C28.5594 47.3849 28.6021 47.3598 28.6461 47.3374C28.9463 47.1881 29.2764 47.1086 29.6116 47.105H29.8735C30.1468 47.1179 30.4184 47.1552 30.6851 47.2163L30.839 47.2555C30.8822 47.2634 30.9249 47.2743 30.9666 47.2883C31.2228 47.3577 31.4752 47.4408 31.7226 47.537L31.9321 47.6221L32.1841 47.7301L32.3085 47.789C32.4754 47.8643 32.6357 47.9494 32.8256 48.0443L33.1529 48.2112L33.2805 48.2799L34.1609 48.7512L34.246 48.797L34.4031 48.8821C34.4358 48.8976 34.4675 48.9151 34.498 48.9345C34.8253 49.108 35.1526 49.2847 35.4602 49.4614L35.5911 49.5334L36.1475 49.8607L36.5534 50.0898L36.5959 50.1127L36.8054 50.2306L37.7676 50.7771L37.8985 50.8524L38.288 51.075L38.5171 51.2059L38.8444 51.4022L39.0964 51.5495L40.0586 52.0994L40.1764 52.1681L40.6019 52.4135L41.1386 52.7147L41.3906 52.8587L42.3267 53.3758H42.3529L42.4838 53.4445L42.5754 53.4936C42.9027 53.6605 43.1809 53.8209 43.446 53.942L43.698 54.0598C44.0079 54.2131 44.3297 54.3412 44.6602 54.4427H44.7093L44.7911 54.4624C44.8365 54.4726 44.8824 54.4803 44.9286 54.4853C45.203 54.5052 45.4783 54.5107 45.7533 54.5016H46.0054C46.2868 54.5016 46.6108 54.5016 46.9676 54.4722H47.0985L47.488 54.4558L48.0607 54.4296H48.3127L49.2749 54.3773H49.4058L50.3681 54.3216H50.6201L51.5823 54.2627H51.7132L52.6754 54.2038L52.9274 54.1874L53.8897 54.1252H54.0206L54.9828 54.0598L55.2348 54.0434L56.197 53.978H56.3279L57.2902 53.9125L57.5422 53.8929L58.5044 53.8242H58.6353L59.5877 53.6867Z" fill="#45BEF2"/>
<path opacity="0.2" d="M28.6724 47.3374V51.5168C28.6265 51.4579 28.584 51.3957 28.5447 51.3335V47.4061C28.5858 47.3806 28.6285 47.3577 28.6724 47.3374ZM30.8521 47.2588V53.7816L30.9797 53.906V47.2915C30.9391 47.2777 30.8975 47.2668 30.8554 47.2588H30.8521ZM29.6378 47.105V52.5837L29.8866 52.8325V47.105H29.6378ZM31.9452 47.6254V54.8256L32.1972 55.0646V47.7334L31.9452 47.6254ZM33.1594 48.2145V55.9777L33.2871 56.0955V48.2832L33.1594 48.2145ZM35.4668 49.4647V58.069L35.5192 58.1149L35.5977 58.1836V49.5367L35.4668 49.4647ZM34.4097 48.8854L34.2526 48.8003V57.0217H34.3017L34.5046 57.205V48.9378C34.474 48.9184 34.4424 48.9009 34.4097 48.8854ZM36.6025 50.0996L36.5599 50.0767V59.0214L36.6287 59.0804L36.8119 59.2342V50.2175L36.6025 50.0996ZM37.7742 50.7542V60.0295L37.9051 60.1375V50.8393L37.7742 50.7542ZM40.1993 52.1452L40.0815 52.0764V61.8034C40.1273 61.8361 40.1699 61.8688 40.2124 61.895V52.155L40.1993 52.1452ZM38.8673 51.3957V60.923L39.1193 61.1161V51.5364L38.8673 51.3957ZM41.1747 52.7048V62.5987H41.3088L41.4267 62.6641V52.8456L41.1747 52.7048ZM42.3889 53.379V63.0732L42.5198 63.106V53.451L42.3889 53.379ZM44.7453 54.4591H44.6962V63.5052L44.8272 63.5249V54.4624L44.7453 54.4591ZM43.482 53.9452V63.3056L43.734 63.3514V54.0663L43.482 53.9452ZM45.773 54.518V63.682H45.9628H46.025V54.5147L45.773 54.518ZM46.9872 54.482V63.8325L47.1182 63.8489V54.4787L46.9872 54.482ZM49.2782 54.3674V64.1107H49.4092V54.3642L49.2782 54.3674ZM48.064 54.4329V63.9667L48.316 63.9962V54.4231L48.064 54.4329ZM50.355 54.3053V64.2351L50.607 64.2646V54.2954L50.355 54.3053ZM51.5692 54.2333V64.3791H51.7002V54.2333H51.5692ZM53.8766 54.086V64.618H54.0075V54.0794L53.8766 54.086ZM52.6624 54.1645V64.4871L52.9144 64.5133V54.1514L52.6624 54.1645ZM54.9697 54.0107V64.726L55.2217 64.7522V54.014L54.9697 54.0107ZM56.184 53.9289V64.8504H56.3149V53.9223L56.184 53.9289ZM58.4913 53.7652V63.2565C58.5131 63.0863 58.5361 62.9096 58.5601 62.7263C58.5601 62.6838 58.5601 62.6412 58.5601 62.5987C58.5601 62.4809 58.5895 62.3598 58.6059 62.2387V53.7587L58.4913 53.7652ZM57.2771 53.8536V64.9584L57.5291 64.9846V53.8372L57.2771 53.8536ZM56.7404 64.906L57.2771 64.9584L57.5291 64.9846L57.9939 65.0337H58.1837C58.2039 64.9934 58.2183 64.9504 58.2262 64.906H56.7404ZM45.9399 63.6918H46.0021L46.9643 63.8194L47.0953 63.8358L47.8513 63.9307H58.4455C58.4455 63.8522 58.4684 63.7671 58.4848 63.682L45.9399 63.6918ZM41.2696 62.5987L41.3874 62.6641L41.5085 62.7263H58.6092C58.6092 62.6838 58.6092 62.6412 58.6092 62.5987H41.2696ZM38.0458 60.2913L38.2062 60.419H58.8252C58.8252 60.3764 58.8252 60.3339 58.8415 60.2913H38.0458ZM39.4499 61.3844L39.7935 61.6332H58.7041L58.7335 61.3844H39.4499ZM36.5894 59.0934L36.7727 59.2473C36.8081 59.2808 36.8453 59.3125 36.8839 59.3422H59.0019C59.0019 59.2604 59.0183 59.1753 59.0281 59.0934H36.5894ZM35.3359 58.0003L35.4275 58.0821L35.4799 58.128H59.0968C59.0968 58.0854 59.0968 58.0429 59.0968 58.0003H35.3359ZM32.806 55.693L32.9434 55.8206H59.3357C59.3357 55.778 59.3357 55.7355 59.3357 55.693H32.806ZM33.9842 56.7828L34.2133 56.989V57.0348H59.2114C59.2114 56.9497 59.2277 56.8646 59.2375 56.7828H33.9842ZM47.4847 54.4754L47.0953 54.4918H46.9643C46.6076 54.4918 46.2836 54.518 46.0021 54.5213H45.7501C45.4751 54.5303 45.1998 54.5249 44.9254 54.5049C44.8791 54.4999 44.8332 54.4923 44.7879 54.482V54.4624H31.559L31.8241 54.7144H59.4863C59.4863 54.626 59.5026 54.5409 59.5092 54.4624L47.4847 54.4754ZM42.4805 53.4641L42.3496 53.3954H30.4299L30.5641 53.5263H42.6114L42.4805 53.4641ZM38.2945 51.0684H28.3745C28.3976 51.1139 28.4238 51.1576 28.4531 51.1993H38.5236L38.2945 51.0684ZM40.2124 52.1681H29.2189L29.2549 52.2074L29.4644 52.4201H40.6445L40.2124 52.1681ZM36.5599 50.0866L36.1541 49.8575H27.864C27.8845 49.9427 27.9097 50.0269 27.9392 50.1095H36.6025L36.5599 50.0866ZM34.2526 48.8101L34.1675 48.7643H27.7723C27.7723 48.8069 27.7723 48.8494 27.7723 48.8952H34.4228L34.2526 48.8101ZM32.1972 47.7432L31.9452 47.6352L31.7357 47.5501H28.3713C28.2816 47.625 28.2004 47.7095 28.1291 47.8021H32.3216L32.1972 47.7432Z" fill="white"/>
<path d="M37.6007 59.9051C34.4816 57.3261 30.9077 53.8765 29.2483 52.2008C26.9573 49.8934 27.1963 46.4373 30.6982 47.2228C31.6506 48.8003 35.8039 56.5438 37.6007 59.9051Z" fill="#263238"/>
<path d="M57.431 54.6948C57.431 54.6653 57.3884 54.6555 57.3819 54.6948C57.2313 55.4541 57.1691 56.233 57.084 57.0022C56.9989 57.7713 56.9171 58.5895 56.8451 59.3881C56.7044 60.9721 56.5375 62.5693 56.4851 64.1632C56.488 64.1744 56.4945 64.1844 56.5037 64.1915C56.5129 64.1987 56.5242 64.2025 56.5358 64.2025C56.5475 64.2025 56.5588 64.1987 56.5679 64.1915C56.5771 64.1844 56.5837 64.1744 56.5866 64.1632C56.8255 62.5987 56.9531 61.0081 57.1004 59.4339C57.1724 58.6549 57.2444 57.8727 57.3 57.0905C57.3557 56.3083 57.4408 55.4901 57.431 54.6948Z" fill="#263238"/>
<path d="M38.4255 71.5696C38.2629 71.6547 38.0869 71.7112 37.9051 71.7365L37.7742 71.7627L37.4469 71.8314L36.8251 71.9427L36.7236 71.9591L36.5731 71.982L35.6108 72.1358L35.4799 72.1522C35.1756 72.2013 34.8548 72.2471 34.5177 72.2962L34.2657 72.3322L33.3035 72.4663L33.1726 72.4827L32.2103 72.6136L31.9583 72.6464L30.9961 72.7707L30.8652 72.7871L30.4757 72.8362L29.903 72.9115H29.7917C29.7459 72.9115 29.6968 72.9115 29.651 72.9311L28.6888 73.0489L28.5578 73.0653L27.7429 73.1635L27.5956 73.1798L27.3436 73.2126L26.3814 73.3304L26.2505 73.3467L25.2883 73.458L25.0362 73.4875L24.074 73.5988L23.9431 73.6151L22.9809 73.7264C22.8958 73.7264 22.8107 73.7428 22.7289 73.7559L21.7667 73.8606L21.6358 73.8769H21.4721L20.6735 73.962L20.4215 73.9915L19.4593 74.0897L19.3284 74.1061H19.2826C18.9258 74.1421 18.628 74.1715 18.3662 74.1911L18.1142 74.2141L17.8392 74.2337C17.7653 74.2419 17.6906 74.2419 17.6167 74.2337C17.5982 74.1939 17.5914 74.1496 17.5971 74.1061C17.5971 73.9359 17.5971 73.6053 17.6429 73.1438C17.6429 73.0653 17.6429 72.9802 17.6625 72.8918C17.6887 72.6071 17.7214 72.2863 17.7607 71.9263C17.7607 71.8838 17.7607 71.8412 17.7607 71.7987C17.7934 71.4976 17.8294 71.1768 17.8687 70.8332L17.8982 70.5845C17.9342 70.2768 17.9734 69.9528 18.016 69.6026C18.016 69.5601 18.016 69.5175 18.016 69.475C18.04 69.3048 18.0629 69.1313 18.0847 68.9546L18.1436 68.5095C18.1436 68.4277 18.1665 68.3458 18.1763 68.2607C18.2189 67.9334 18.2647 67.6258 18.3105 67.2952L18.3302 67.1676C18.3288 67.1491 18.3288 67.1305 18.3302 67.112C18.3727 66.8141 18.4153 66.5098 18.4611 66.2021C18.4611 66.1203 18.484 66.0385 18.4971 65.9534C18.5462 65.6261 18.5953 65.3152 18.6444 64.9879L18.664 64.8602C18.7131 64.533 18.7622 64.2057 18.8146 63.8784C18.8146 63.7966 18.844 63.7147 18.8571 63.6296C18.9062 63.3024 18.9618 62.9751 19.0142 62.6642C19.0142 62.6216 19.0142 62.5791 19.0338 62.5365C19.0895 62.2092 19.1451 61.8819 19.204 61.571C19.204 61.4892 19.2302 61.4041 19.2466 61.3223C19.2629 61.2405 19.276 61.1455 19.2924 61.0605L19.42 60.3568C19.42 60.3568 19.42 60.3404 19.42 60.3339L19.4397 60.2291C19.4986 59.9019 19.5608 59.5746 19.6229 59.2637C19.6229 59.1818 19.6524 59.0967 19.672 59.0149C19.731 58.6876 19.7964 58.3603 19.8586 58.0331L19.888 57.9054C19.9535 57.5781 20.019 57.2509 20.0877 56.9399C20.1073 56.8548 20.1237 56.773 20.1401 56.6879C20.2121 56.3606 20.2841 56.0334 20.3593 55.7257C20.3593 55.6897 20.3593 55.657 20.3823 55.621C20.4052 55.585 20.3823 55.6046 20.3823 55.5981C20.4575 55.2708 20.5361 54.9435 20.6114 54.6326L20.631 54.5573C20.631 54.4984 20.6604 54.4395 20.6768 54.3806C20.7586 54.0533 20.8405 53.726 20.9255 53.4183C20.9255 53.3758 20.9485 53.33 20.9615 53.2874C21.0499 52.9601 21.1416 52.6329 21.2332 52.3252L21.3117 52.0732C21.4034 51.7688 21.4983 51.4775 21.5932 51.2026C21.5932 51.1732 21.6128 51.1404 21.6259 51.111C21.639 51.0815 21.6554 51.0226 21.6718 50.9801C21.6881 50.9375 21.7045 50.8819 21.7241 50.8361C21.7798 50.6757 21.8387 50.5088 21.8976 50.3746C21.9565 50.2404 21.9925 50.1324 22.0416 50.0178C22.0907 49.9033 22.1169 49.8477 22.1529 49.7658C22.2998 49.4302 22.4761 49.1082 22.6798 48.8036C22.6798 48.8036 22.7387 48.7185 22.7682 48.6825C22.8194 48.6155 22.8741 48.551 22.9318 48.4894L23.0234 48.3978L23.1969 48.2407C23.4195 48.0443 23.6256 47.8709 23.8187 47.7203C23.8422 47.6987 23.8674 47.679 23.894 47.6614L24.0249 47.5599L24.1493 47.4683C24.4504 47.2457 24.7253 47.0657 24.9872 46.9021L25.2915 46.8137L25.3439 46.781C25.4841 46.6967 25.6334 46.6287 25.789 46.5781C25.9414 46.5277 26.0966 46.4861 26.2538 46.4537H26.2898L26.3847 46.4341C26.703 46.3768 27.0242 46.3364 27.3469 46.313H27.5989C27.9262 46.313 28.2535 46.2901 28.5611 46.313H28.692C29.0488 46.313 29.3793 46.3424 29.6542 46.3719L29.9063 46.4013C30.0576 46.4171 30.2075 46.4444 30.3546 46.4832L30.4103 46.5028C30.4743 46.5311 30.5338 46.5686 30.587 46.6141C30.6875 46.6975 30.7816 46.7883 30.8685 46.8857L30.9994 47.033C31.127 47.1868 31.271 47.3603 31.415 47.5763C31.474 47.6581 31.5329 47.7399 31.5918 47.8283C31.7129 48.0083 31.8372 48.2047 31.9616 48.4109C32.0369 48.532 32.1154 48.6596 32.1874 48.7905L32.2136 48.8331L32.2627 48.9214C32.4362 49.2291 32.59 49.5531 32.7602 49.8837C32.8027 49.9655 32.842 50.0506 32.8813 50.1357C32.986 50.3648 33.0842 50.5971 33.1758 50.8328C33.2118 50.9212 33.2446 51.0095 33.2773 51.0979L33.3068 51.1764L33.3264 51.2288C33.4357 51.5337 33.5297 51.8439 33.6079 52.1583C33.6097 52.1691 33.6097 52.1802 33.6079 52.191C33.6275 52.263 33.6471 52.3481 33.6733 52.443C33.7355 52.695 33.8173 53.0191 33.9188 53.4053C33.9188 53.4478 33.9417 53.4903 33.9548 53.5362C34.0301 53.8275 34.1119 54.1482 34.2068 54.4984C34.2068 54.5704 34.2428 54.6457 34.2624 54.7209C34.264 54.7307 34.264 54.7406 34.2624 54.7504C34.341 55.0406 34.4228 55.3482 34.5079 55.6733V55.7159C34.5079 55.7584 34.5308 55.801 34.5406 55.8435L34.7959 56.8057C34.8155 56.8876 34.8384 56.9727 34.8614 57.0578C34.9432 57.385 35.0283 57.6927 35.1134 58.0232C35.1134 58.0658 35.1363 58.1083 35.1494 58.1509C35.2312 58.4782 35.3163 58.8055 35.4014 59.1327L35.4603 59.3586C35.4607 59.3662 35.4607 59.3738 35.4603 59.3815C35.5028 59.5353 35.5421 59.6924 35.5847 59.8495L35.7123 60.347C35.7123 60.3895 35.7352 60.4321 35.7483 60.4746C35.8301 60.8019 35.9152 61.1292 35.997 61.4401C36.0199 61.5219 36.0429 61.6038 36.0625 61.6888C36.1476 62.0161 36.2327 62.3434 36.3145 62.6543C36.3145 62.6969 36.3374 62.7394 36.3472 62.782C36.4127 63.0373 36.4814 63.2925 36.5469 63.5478L36.596 63.7475C36.6189 63.8293 36.6385 63.9144 36.6614 63.9962L36.7989 64.5297C36.8349 64.677 36.8709 64.821 36.9102 64.9617C36.9102 65.0042 36.9298 65.0468 36.9429 65.0893L37.1851 66.0548C37.208 66.1399 37.2276 66.2217 37.2505 66.3036C37.3324 66.6308 37.4142 66.9581 37.4895 67.2691C37.4895 67.3116 37.5124 67.3542 37.5222 67.3967L37.7578 68.3622L37.8167 68.6044C37.8397 68.7124 37.8658 68.8171 37.8887 68.9317C37.9444 69.1575 37.9968 69.3768 38.0426 69.5862L38.072 69.7139C38.1571 70.0837 38.2258 70.4077 38.2815 70.6957C38.3011 70.7841 38.3175 70.8692 38.3306 70.9445C38.3958 71.1464 38.4278 71.3575 38.4255 71.5696Z" fill="#45BEF2"/>
<path opacity="0.2" d="M19.4462 60.3993V74.1191L19.3152 74.1354V61.1259L19.4429 60.4222C19.4429 60.4222 19.4462 60.4058 19.4462 60.3993ZM18.3465 67.2166L18.3268 67.3443C18.281 67.6716 18.2352 67.9988 18.1926 68.3098C18.1926 68.3949 18.1697 68.4767 18.1599 68.5585L18.0912 69.0036V74.2402L18.3432 74.2173V67.161C18.3429 67.1796 18.344 67.1982 18.3465 67.2166ZM20.6375 54.7143C20.5622 55.0416 20.4836 55.3525 20.4084 55.6798V74.0078L20.6604 73.9783V54.6391L20.6375 54.7143ZM21.6913 51.0684C21.6913 51.1109 21.6586 51.1535 21.6455 51.1993C21.6324 51.2451 21.6226 51.2615 21.6128 51.2909V73.8965L21.7437 73.8802V50.9178C21.7339 50.9636 21.7175 51.0127 21.6913 51.0684ZM23.9201 47.7399V73.6347L24.0511 73.6183V47.6319L23.9201 47.7399ZM22.7943 48.761C22.7648 48.797 22.7354 48.8396 22.7059 48.8821V73.7754C22.7877 73.7754 22.8728 73.7558 22.9579 73.746V48.5614C22.9035 48.6232 22.8522 48.6876 22.8041 48.7545L22.7943 48.761ZM25.0133 46.9806V73.5071L25.2653 73.4776V46.8137L25.0133 46.9806ZM26.2635 46.4536H26.2275V73.3663L26.3584 73.35V46.4275L26.2635 46.4536ZM28.5349 46.2835V73.0849L28.6658 73.0685V46.2769L28.5349 46.2835ZM27.3206 46.3129V73.2256L27.5726 73.1929V46.2933L27.3206 46.3129ZM29.6116 46.3424V72.9507C29.6575 72.9507 29.7066 72.9507 29.7524 72.931H29.8636V46.3653L29.6116 46.3424ZM30.8259 46.8562V72.7936L30.9568 72.7772V46.9969L30.8259 46.8562ZM33.2609 51.0684C33.2281 50.98 33.1954 50.8916 33.1594 50.8033V72.4892L33.2903 72.4728V51.0684H33.2609ZM32.171 48.7774C32.099 48.6465 32.0205 48.5188 31.9452 48.3977V72.6692L32.1972 72.6365V48.797L32.171 48.7774ZM34.2591 54.7372C34.2606 54.7275 34.2606 54.7175 34.2591 54.7078V72.3419L34.5111 72.3059V55.6504C34.4216 55.3187 34.3376 55.0067 34.2591 54.7143V54.7372ZM35.4733 59.352C35.4737 59.3443 35.4737 59.3367 35.4733 59.3291V72.175L35.6042 72.1586V59.82C35.5551 59.64 35.5159 59.4829 35.4733 59.3291V59.352ZM37.833 68.5814L37.7741 68.3392V71.7855L37.905 71.7594V68.8989C37.8821 68.7712 37.856 68.6665 37.833 68.5585V68.5814ZM36.6745 63.9667C36.6515 63.8849 36.6319 63.7998 36.609 63.718L36.5599 63.5183V71.9819L36.7105 71.959L36.8119 71.9426V64.4871L36.6745 63.9667ZM17.5839 74.1387C17.5783 74.1823 17.5851 74.2265 17.6035 74.2664H18.0912V74.2467L18.3432 74.2238C18.5952 74.2042 18.9029 74.1747 19.2596 74.1387H17.5839ZM17.6494 72.9245C17.6494 73.0129 17.6494 73.0979 17.6297 73.1765H27.7297L28.5447 73.0783L28.6756 73.062L29.6378 72.9441C29.6836 72.9441 29.7327 72.9441 29.7786 72.9245H17.6494ZM17.7606 71.8314C17.7606 71.8739 17.7606 71.9164 17.7606 71.959H36.7235L36.825 71.9426L37.4468 71.8314H17.7606ZM38.0523 69.524H18.0323C18.0323 69.5665 18.0323 69.6091 18.0323 69.6516H38.0883L38.0523 69.524ZM38.2912 70.6171H17.8981L17.8686 70.8659H38.3469C38.3338 70.7906 38.3174 70.7055 38.2978 70.6171H38.2912ZM37.7676 68.3261H18.1926C18.1926 68.4112 18.1697 68.493 18.1599 68.5749H37.833L37.7676 68.3261ZM37.4959 67.2264H18.3465L18.3268 67.3541H37.5352C37.5254 67.3017 37.5123 67.2592 37.5025 67.2166L37.4959 67.2264ZM36.9166 64.9355H18.6869L18.6672 65.0631H36.9559C36.9428 64.9944 36.933 64.9518 36.9232 64.9093L36.9166 64.9355ZM37.1916 66.0286H18.5199C18.5199 66.1137 18.497 66.1955 18.4839 66.2773H37.2636C37.2407 66.1693 37.221 66.0875 37.1981 66.0024L37.1916 66.0286ZM36.6025 63.7212H18.88C18.88 63.8063 18.8505 63.8881 18.8374 63.97H36.6745C36.6515 63.862 36.6319 63.7769 36.609 63.695L36.6025 63.7212ZM36.321 62.6281H19.073C19.073 62.6706 19.073 62.7132 19.0534 62.7557H36.3766C36.3504 62.687 36.3374 62.6445 36.3275 62.6019L36.321 62.6281ZM35.7188 60.3207H19.4658L19.4462 60.4255C19.4462 60.4255 19.4462 60.4418 19.4462 60.4484H35.7646C35.7646 60.3796 35.7384 60.3371 35.7253 60.2945L35.7188 60.3207ZM36.0035 61.4139H19.2694C19.2694 61.4957 19.24 61.5808 19.2269 61.6626H36.0919C36.0559 61.5415 36.033 61.4695 36.0101 61.3877L36.0035 61.4139ZM35.4602 59.3323L35.4013 59.1065H19.6916C19.672 59.1883 19.6556 59.2734 19.6425 59.3552H35.4668C35.4687 59.3389 35.4687 59.3225 35.4668 59.3062L35.4602 59.3323ZM35.1133 58.0232H19.9142L19.8847 58.1508H35.1559C35.1428 58.0723 35.1329 58.0297 35.11 57.9872L35.1133 58.0232ZM34.5078 55.7158H20.4018V55.7387C20.4018 55.7747 20.4018 55.8075 20.3789 55.8435H34.5406C34.5373 55.7649 34.5242 55.7224 34.5144 55.6798L34.5078 55.7158ZM34.7958 56.8057H20.1662C20.1662 56.8908 20.1335 56.9726 20.1138 57.0577H34.8678C34.8449 56.9366 34.822 56.8515 34.8024 56.7697L34.7958 56.8057ZM34.246 54.7209C34.2264 54.6456 34.2067 54.5703 34.1904 54.4983H20.7095C20.7095 54.5572 20.6767 54.6161 20.6637 54.6751L20.644 54.7503H34.2591C34.2648 54.7284 34.2625 54.7052 34.2525 54.6849L34.246 54.7209ZM33.9187 53.4117H20.9909C20.9909 53.4543 20.9648 53.5001 20.9549 53.5427H33.9449C33.9318 53.4543 33.9187 53.4117 33.9089 53.3594L33.9187 53.4117ZM33.3001 51.1829V51.0684H21.6913C21.6913 51.1109 21.6586 51.1535 21.6455 51.1993H33.31L33.3001 51.1829ZM33.6078 52.1975H21.3411L21.2626 52.4495H33.6634C33.6372 52.3121 33.6176 52.227 33.598 52.155L33.6078 52.1975ZM32.7536 49.9065H22.1823C22.1463 49.9883 22.107 50.0702 22.071 50.1585H32.8714C32.819 50.0145 32.7863 49.9294 32.7438 49.8476L32.7536 49.9065ZM32.207 48.8559L32.1808 48.8134H22.8041C22.7746 48.8494 22.7452 48.8919 22.7157 48.9345H32.2528L32.207 48.8559ZM30.4037 46.5257L30.348 46.506H26.2373C26.0801 46.5385 25.925 46.58 25.7726 46.6304H30.5706C30.5213 46.5663 30.4615 46.511 30.3938 46.4667L30.4037 46.5257ZM31.4084 47.5991H24.2082L24.0838 47.6908L23.9529 47.7922C23.9262 47.8098 23.9011 47.8295 23.8776 47.8512H31.5753C31.5099 47.7039 31.4575 47.6221 31.3986 47.5402L31.4084 47.5991Z" fill="white"/>
<path d="M30.4627 72.8362C27.3764 73.2323 23.9824 73.6315 21.459 73.9065L21.927 50.4565C22.2936 49.5139 22.6765 48.82 23.0595 48.4698L23.2329 48.3127L30.4627 72.8362Z" fill="#263238"/>
<path d="M34.7173 69.5697C34.5602 68.8432 34.402 68.1166 34.2428 67.39C33.922 65.9369 33.5947 64.4848 33.2609 63.0339C32.5867 60.1079 31.8721 57.1918 31.1172 54.2855C30.6983 52.6491 30.2499 51.0323 29.8375 49.3991C29.8356 49.3941 29.8323 49.3898 29.8279 49.3868C29.8235 49.3837 29.8183 49.3821 29.813 49.3821C29.8076 49.3821 29.8024 49.3837 29.798 49.3868C29.7936 49.3898 29.7903 49.3941 29.7884 49.3991C30.5444 52.2924 31.2023 55.2117 31.8798 58.1246C32.5572 61.0374 33.2216 63.9241 33.8697 66.8304L34.4097 69.2752C34.5897 70.1 34.737 70.9509 34.9726 71.756C34.9988 71.8477 35.1592 71.828 35.1461 71.7298C35.061 71.0327 34.8711 70.2898 34.7173 69.5697Z" fill="#263238"/>
<path d="M29.8211 50.1486C28.6101 50.3155 26.7446 48.3093 26.0802 46.7645C26.0344 46.6598 26.2897 45.6124 26.5417 44.3262C26.689 43.544 26.8363 42.6701 26.9148 41.865C26.9148 41.6981 27.4646 42.0549 27.4646 42.0549L28.4825 42.4083L31.8568 43.5735C31.4724 44.5544 31.2097 45.5788 31.0746 46.6238C31.0637 46.7326 31.0637 46.8422 31.0746 46.951V47.0067C31.1204 47.6547 30.9928 49.985 29.8211 50.1486Z" fill="#AD6359"/>
<path d="M31.0779 46.9609V47.0165C30.9041 47.0231 30.7301 47.0154 30.5575 46.9936C27.157 46.5943 27.1407 42.2316 27.1407 42.2316L28.4826 42.4182L31.8569 43.5833C31.4724 44.5643 31.2097 45.5887 31.0747 46.6336C31.0648 46.7425 31.0659 46.8522 31.0779 46.9609Z" fill="#263238"/>
<path d="M27.5302 35.4438C26.6236 37.0802 26.4894 42.3855 27.504 43.783C28.98 45.8122 31.9223 46.5911 33.7813 44.6994C35.5814 42.8633 35.6337 35.9642 34.4359 34.6387C32.7045 32.6848 28.872 33.0022 27.5302 35.4438Z" fill="#AD6359"/>
<path d="M31.919 39.8295C31.919 39.8295 31.8895 39.8458 31.8895 39.8589C31.8895 40.2157 31.8306 40.6248 31.5033 40.7328C31.5033 40.7328 31.5033 40.7557 31.5033 40.7524C31.9026 40.7099 31.9746 40.1666 31.919 39.8295Z" fill="#263238"/>
<path d="M31.6114 39.4465C31.0386 39.3876 30.9568 40.5331 31.4903 40.592C32.0238 40.6509 32.0892 39.4988 31.6114 39.4465Z" fill="#263238"/>
<path d="M33.9711 40.0291C33.9711 40.0291 34.0006 40.0488 33.9973 40.0651C33.9613 40.4186 33.9973 40.831 34.2951 40.9717C34.2951 40.9717 34.2951 40.9946 34.2951 40.9913C33.8991 40.9226 33.8828 40.3597 33.9711 40.0291Z" fill="#263238"/>
<path d="M34.3148 39.6822C34.8908 39.6822 34.8548 40.8277 34.3148 40.831C33.7747 40.8342 33.8337 39.6855 34.3148 39.6822Z" fill="#263238"/>
<path d="M31.1827 38.8902C31.3364 38.8568 31.4883 38.8153 31.6376 38.7658C31.8037 38.7444 31.9579 38.6684 32.0762 38.5498C32.1065 38.5052 32.1214 38.4519 32.1184 38.3981C32.1155 38.3443 32.0949 38.2929 32.0598 38.252C31.9777 38.1827 31.8787 38.1364 31.7729 38.118C31.6671 38.0996 31.5582 38.1097 31.4576 38.1472C31.2417 38.1919 31.0502 38.3156 30.9208 38.4942C30.8932 38.5364 30.8786 38.5858 30.8787 38.6363C30.8788 38.6868 30.8937 38.7361 30.9216 38.7782C30.9494 38.8203 30.989 38.8534 31.0354 38.8733C31.0818 38.8932 31.133 38.899 31.1827 38.8902Z" fill="#263238"/>
<path d="M34.7992 39.1355C34.6421 39.0962 34.5046 39.0373 34.3508 38.9849C34.1863 38.9529 34.0368 38.8678 33.9253 38.7427C33.8974 38.6969 33.8854 38.6432 33.8914 38.5899C33.8973 38.5366 33.9207 38.4867 33.958 38.4482C34.0442 38.3837 34.1459 38.3431 34.2528 38.3305C34.3596 38.3178 34.4679 38.3336 34.5668 38.3762C34.7796 38.4338 34.9636 38.5678 35.0839 38.7526C35.1084 38.7966 35.1196 38.8467 35.1163 38.897C35.1129 38.9473 35.0952 38.9955 35.0651 39.0359C35.0351 39.0763 34.994 39.1072 34.9468 39.1249C34.8996 39.1425 34.8484 39.1462 34.7992 39.1355Z" fill="#263238"/>
<path d="M31.8077 42.0681C31.8879 42.215 31.9977 42.3438 32.13 42.4463C32.2624 42.5488 32.4145 42.6228 32.5768 42.6637C32.7187 42.7014 32.8654 42.7179 33.0121 42.7128C33.0404 42.7161 33.069 42.7161 33.0972 42.7128H33.1758C33.1948 42.7101 33.2124 42.7014 33.226 42.6878C33.2396 42.6742 33.2484 42.6566 33.251 42.6375C33.2527 42.6256 33.2527 42.6135 33.251 42.6015V42.559C33.2772 42.2841 33.2772 41.8684 33.2772 41.8684C33.3754 41.924 33.8696 42.1957 33.8696 42.0451C33.9245 40.8083 33.8532 39.5692 33.6569 38.3468C33.6569 38.3381 33.6534 38.3298 33.6473 38.3237C33.6412 38.3175 33.6328 38.3141 33.6242 38.3141C33.6155 38.3141 33.6071 38.3175 33.601 38.3237C33.5949 38.3298 33.5914 38.3381 33.5914 38.3468C33.5325 39.489 33.6798 40.6378 33.6405 41.7833C33.4651 41.6853 33.2767 41.6126 33.0809 41.5673C33.0416 41.5673 33.0809 42.3757 33.0809 42.5001C32.8552 42.5064 32.6306 42.4674 32.4203 42.3853C32.2101 42.3033 32.0184 42.1798 31.8568 42.0222C31.8175 42.0157 31.7881 42.0386 31.8077 42.0681Z" fill="#263238"/>
<path d="M34.6911 36.4289C32.8681 37.4664 30.6622 35.483 30.6622 35.483C30.4839 35.8467 30.1929 36.1432 29.8327 36.3283C29.4724 36.5135 29.062 36.5774 28.6625 36.5107C28.6625 36.5107 28.0799 39.3974 27.3108 39.3286C26.1391 39.2239 26.1097 35.2147 26.5449 34.4652C26.9802 33.7157 27.9915 33.5979 27.9915 33.5979C28.1407 33.1338 28.4599 32.7433 28.885 32.5047C29.736 31.9582 32.4263 33.0153 32.4263 33.0153C32.6156 32.6589 32.8857 32.3518 33.215 32.1185C33.2942 32.0605 33.3843 32.0191 33.4799 31.9969C33.5755 31.9747 33.6746 31.972 33.7713 31.9891C33.868 32.0063 33.9601 32.0428 34.0423 32.0966C34.1244 32.1503 34.1948 32.2201 34.2492 32.3018C34.0888 32.5064 33.9769 32.7448 33.922 32.9989C33.7125 33.8401 34.4096 33.8957 34.4685 33.1233C34.4992 32.8337 34.4261 32.5426 34.2623 32.3018C34.6485 31.824 35.2246 31.7062 35.542 32.0073C36.1082 32.5506 36.2064 35.5681 34.6911 36.4289Z" fill="#263238"/>
<path d="M27.7494 39.8229C27.7494 39.8229 26.9051 37.9509 26.077 38.2225C25.249 38.4941 25.6679 41.0535 26.4861 41.5477C26.5869 41.6183 26.701 41.6679 26.8214 41.6933C26.9419 41.7187 27.0662 41.7195 27.1869 41.6957C27.3077 41.6718 27.4224 41.6238 27.5241 41.5545C27.6258 41.4852 27.7125 41.3961 27.7789 41.2924L27.7494 39.8229Z" fill="#AD6359"/>
<path d="M26.2144 38.9588C26.2144 38.9588 26.1948 38.9752 26.2144 38.9817C26.7872 39.3483 27.0032 39.9832 27.121 40.6181C27.0967 40.5493 27.0578 40.4865 27.0069 40.4342C26.956 40.3819 26.8943 40.3412 26.8261 40.3151C26.758 40.2889 26.6849 40.2779 26.6121 40.2828C26.5393 40.2876 26.4683 40.3083 26.4042 40.3432C26.3879 40.3432 26.4042 40.3792 26.4042 40.3792C26.5198 40.365 26.6369 40.3869 26.7395 40.442C26.8421 40.4971 26.9251 40.5826 26.977 40.6869C27.0608 40.8608 27.1266 41.0428 27.1734 41.2302C27.193 41.2923 27.2977 41.2825 27.2879 41.2138C27.4516 40.4087 27.0457 39.1912 26.2144 38.9588Z" fill="#263238"/>
<path d="M31.0779 47.0166L29.9782 49.7593L26.1785 46.1068L25.1671 47.3406C25.1671 47.3406 28.9506 53.2121 28.9669 52.9437L30.1157 50.3451L31.9354 52.0764L31.6638 47.6057L31.0779 47.0166Z" fill="#45BEF2"/>
<path d="M31.9255 49.8542C31.8568 49.1178 31.8077 48.3716 31.703 47.6385C31.7011 47.6335 31.6978 47.6292 31.6934 47.6261C31.689 47.6231 31.6838 47.6214 31.6784 47.6214C31.6731 47.6214 31.6679 47.6231 31.6635 47.6261C31.6591 47.6292 31.6557 47.6335 31.6539 47.6385C31.5262 48.3552 31.8077 51.1699 31.8241 51.8474C31.7455 51.7721 30.1385 50.3255 30.1222 50.3484C29.8702 50.7641 29.0258 52.6394 28.9669 52.826C28.3679 51.8932 25.8347 48.2211 25.1343 47.3439C25.1301 47.3403 25.1249 47.3381 25.1193 47.3376C25.1138 47.3372 25.1082 47.3385 25.1035 47.3414C25.0987 47.3443 25.095 47.3487 25.0929 47.3538C25.0908 47.359 25.0904 47.3647 25.0918 47.3701C25.6253 48.352 28.8981 53.2056 28.9439 53.1925C29.3923 52.299 29.7933 51.3824 30.1451 50.4466C30.42 50.7739 32.0499 52.4103 32.0532 52.2892C32.0535 51.4759 32.0109 50.6631 31.9255 49.8542Z" fill="#263238"/>
<path d="M46.0446 66.8567H59.3357L61.846 48.0476H48.5582L46.0446 66.8567Z" fill="#A6A6A6"/>
<path d="M46.6992 66.8567H59.987L62.5006 48.0476H49.2095L46.6992 66.8567Z" fill="white"/>
<path d="M55.8926 56.521C55.8567 56.8712 55.6936 57.1962 55.4343 57.4344C55.175 57.6726 54.8374 57.8076 54.4853 57.8137C54.3199 57.8166 54.1557 57.7842 54.0037 57.7186C53.8518 57.6531 53.7155 57.5559 53.6041 57.4336C53.4926 57.3113 53.4084 57.1666 53.3572 57.0093C53.306 56.8519 53.2889 56.6854 53.3071 56.521C53.3385 56.168 53.4992 55.8391 53.7584 55.5975C54.0176 55.3558 54.3569 55.2185 54.7111 55.2118C54.8783 55.2087 55.0441 55.2415 55.1975 55.308C55.3509 55.3745 55.4882 55.4731 55.6002 55.5972C55.7122 55.7213 55.7962 55.868 55.8467 56.0273C55.8971 56.1867 55.9128 56.355 55.8926 56.521Z" fill="white"/>
<path d="M22.1332 52.2532C21.5081 61.008 23.0496 67.0366 24.5912 67.6814C28.7477 69.4226 41.3842 70.3913 44.2806 70.0837C45.4131 69.9659 44.6668 60.576 43.4493 60.5924C40.4318 60.6742 29.3761 60.7659 29.2321 60.7004C28.2928 60.2586 28.2502 57.3392 26.077 51.1011C24.3261 46.0675 22.3885 48.6727 22.1332 52.2532Z" fill="#AD6359"/>
<path d="M53.1107 58.7333C53.2684 58.9607 53.3529 59.2307 53.3529 59.5074C53.3529 59.784 53.2684 60.0541 53.1107 60.2814C53.5496 60.4488 53.9156 60.765 54.145 61.1749C54.5148 61.9178 53.5166 62.8113 53.5166 62.8113C53.9345 63.0821 54.2617 63.472 54.4559 63.9306C54.7406 64.6768 53.8602 65.734 53.8602 65.734C54.1071 66.1937 54.1814 66.7265 54.0697 67.2362C53.8439 68.1068 51.674 69.2163 50.3812 69.6287C49.0884 70.041 45.0399 70.005 44.2642 70.0738L41.5445 61.8065C41.5445 61.8065 46.8072 58.3079 48.3946 58.0362C49.7495 57.8202 52.4856 57.8889 53.1107 58.7333Z" fill="#AD6359"/>
<path d="M53.0256 60.1669C51.5463 60.0654 50.1193 60.4091 48.6727 60.6742C48.64 60.6742 48.6498 60.7298 48.6727 60.7233C50.1063 60.4451 51.579 60.4549 53.0224 60.2356C53.0298 60.2337 53.0365 60.2295 53.0413 60.2235C53.0462 60.2175 53.049 60.2102 53.0494 60.2025C53.0497 60.1948 53.0476 60.1872 53.0434 60.1808C53.0391 60.1744 53.0329 60.1695 53.0256 60.1669Z" fill="#263238"/>
<path d="M53.4707 62.7231C53.1379 62.7337 52.8078 62.7876 52.4889 62.8835C52.1387 62.9653 51.7918 63.0536 51.4448 63.1453C50.7543 63.3318 50.0637 63.5348 49.3829 63.7573C49.379 63.7558 49.3747 63.7553 49.3705 63.7559C49.3664 63.7564 49.3624 63.758 49.3589 63.7604C49.3554 63.7628 49.3526 63.766 49.3506 63.7697C49.3487 63.7735 49.3477 63.7776 49.3477 63.7819C49.3477 63.7861 49.3487 63.7902 49.3506 63.794C49.3526 63.7977 49.3554 63.8009 49.3589 63.8034C49.3624 63.8058 49.3664 63.8073 49.3705 63.8078C49.3747 63.8084 49.379 63.8079 49.3829 63.8064C50.0735 63.6231 50.7674 63.4464 51.4645 63.2926C51.8147 63.214 52.1649 63.142 52.5151 63.07C52.8507 63.0226 53.18 62.9381 53.4969 62.818C53.5095 62.8145 53.5202 62.8062 53.5266 62.7948C53.5331 62.7835 53.5348 62.77 53.5313 62.7575C53.5278 62.7449 53.5195 62.7342 53.5081 62.7277C53.4968 62.7213 53.4833 62.7196 53.4707 62.7231Z" fill="#263238"/>
<path d="M53.8472 65.7504C53.5415 65.7629 53.2403 65.8282 52.957 65.9435L52.0144 66.2118C51.3827 66.3886 50.7543 66.562 50.1194 66.7159C50.0867 66.7159 50.0965 66.7748 50.1194 66.765C50.774 66.6144 51.4285 66.4704 52.0569 66.31C52.3842 66.2348 52.6919 66.1529 53.0093 66.0711C53.3039 66.0252 53.5877 65.9265 53.8472 65.7798C53.8472 65.7798 53.8635 65.7504 53.8472 65.7504Z" fill="#263238"/>
<path d="M42.2645 60.1472V70.6858L41.4266 70.6432C41.3481 70.6432 41.263 70.6432 41.1746 70.6432H40.8932L40.2124 70.6072C40.1699 70.6072 40.1273 70.6072 40.0815 70.6072L39.1193 70.545H38.8673L37.9051 70.4796H37.7741L36.8119 70.4043L36.5599 70.3847L35.5977 70.3028H35.4668L34.5046 70.2145L34.2526 70.1883L33.2903 70.0868H33.1594C32.8321 70.0541 32.5048 70.0148 32.1972 69.9788L31.9452 69.9494L30.983 69.825L30.8553 69.7236L30.3873 69.6581L29.8931 69.5861L29.6411 69.5468L29.5495 69.5305C29.2516 69.4846 28.9636 69.4355 28.6789 69.3832L28.548 69.3603C28.2207 69.3014 27.8934 69.2392 27.5857 69.1737L27.3337 69.1181C27.0065 69.0428 26.6792 68.9675 26.3715 68.8857L26.2406 68.8497C25.9068 68.7581 25.6024 68.6631 25.3275 68.565L25.2784 68.5486L25.0264 68.4504C24.9216 68.4046 24.8202 68.3621 24.7285 68.3162C24.4928 68.2103 24.2725 68.0726 24.074 67.9071L24.0412 67.8777L23.9431 67.7762C23.82 67.6457 23.7104 67.5032 23.6158 67.3507C23.5896 67.3115 23.5667 67.2689 23.5405 67.2231C23.3655 66.9142 23.2166 66.5913 23.0954 66.2576L23.007 66.0089L22.9776 65.9172C22.8892 65.6554 22.8041 65.3739 22.7256 65.0761V65.0434L22.6961 64.9157C22.6143 64.6081 22.5423 64.2841 22.4703 63.9339C22.4703 63.8521 22.4375 63.7702 22.4245 63.6851C22.359 63.3742 22.3034 63.0502 22.251 62.7197C22.251 62.6771 22.2346 62.6346 22.2281 62.592C22.179 62.2647 22.1332 61.9538 22.0906 61.6265C22.0906 61.5447 22.0677 61.4596 22.0579 61.3778C22.0186 61.0505 21.9793 60.7232 21.9466 60.4123C21.9466 60.3697 21.9466 60.3272 21.9466 60.2846C21.9139 59.9574 21.8844 59.6301 21.8583 59.3192L21.8386 59.0704C21.819 58.8217 21.8026 58.5729 21.7863 58.3242C21.7863 58.2522 21.7863 58.1802 21.7863 58.1049V57.9773C21.7666 57.65 21.7535 57.3227 21.7404 57.0118C21.7404 56.9267 21.7404 56.8416 21.7404 56.7598C21.7404 56.4325 21.7208 56.1052 21.7142 55.7976V55.6699C21.7142 55.3426 21.7142 55.0153 21.7142 54.7044V54.4524C21.7142 54.1251 21.7142 53.7978 21.7339 53.4902C21.7339 53.4444 21.7339 53.4018 21.7339 53.3593C21.7339 53.032 21.7568 52.7047 21.7764 52.3971C21.7764 52.312 21.7764 52.2269 21.7764 52.1451C21.7764 51.988 21.7993 51.8407 21.8124 51.6967C21.8255 51.5527 21.8484 51.3432 21.8681 51.1828C21.8681 51.137 21.8681 51.0945 21.8681 51.0519C21.8975 50.8261 21.9335 50.6232 21.9695 50.4465C21.9957 50.3221 22.0219 50.2043 22.0546 50.0897C22.0874 49.9752 22.1037 49.9195 22.1299 49.8377C22.2338 49.4976 22.3847 49.1737 22.5783 48.8755L22.6765 48.7446L22.7583 48.6464C22.8332 48.5576 22.9177 48.4775 23.0103 48.4075C23.1423 48.2962 23.296 48.2137 23.4617 48.1652C23.6274 48.1167 23.8014 48.1034 23.9725 48.126L24.1034 48.1522C24.4706 48.2575 24.8015 48.4625 25.0591 48.7446C25.0984 48.7838 25.1377 48.8231 25.1769 48.8689C25.2162 48.9148 25.2686 48.9704 25.3111 49.026C25.5135 49.278 25.6932 49.5474 25.8479 49.8312L25.9853 50.0832C26.0835 50.2763 26.1784 50.4824 26.2733 50.705C26.3159 50.8097 26.3617 50.9177 26.4042 51.0323L26.4533 51.1632C26.5483 51.4218 26.6432 51.6967 26.7315 51.988C26.7315 52.0338 26.761 52.0796 26.7741 52.1254C26.7872 52.1712 26.8232 52.2923 26.8526 52.3774L27.1439 53.3397L27.1832 53.4706C27.2421 53.6702 27.301 53.8666 27.3599 54.0564C27.3992 54.184 27.4385 54.3084 27.4745 54.4328C27.5105 54.5572 27.5268 54.603 27.5497 54.6848C27.5727 54.7666 27.5923 54.8157 27.6119 54.8812L27.8476 55.6503C27.8476 55.6928 27.877 55.7354 27.8901 55.7779C27.9916 56.1052 28.093 56.4325 28.188 56.7401C28.2174 56.8252 28.2436 56.9103 28.2665 56.9922C28.3745 57.3194 28.476 57.6467 28.5742 57.938C28.5742 57.938 28.5742 57.938 28.5742 57.9576C28.5742 57.9773 28.6003 58.0427 28.6167 58.0853L28.6985 58.3275C28.7869 58.5926 28.872 58.8315 28.9505 59.0508L29.0454 59.2995C29.1614 59.6337 29.3071 59.9568 29.4807 60.265C29.51 60.311 29.544 60.3537 29.5822 60.3926C29.6038 60.4128 29.6314 60.4254 29.6607 60.4287H29.9127L30.875 60.409H31.0059H31.4313H31.9681H32.2201L33.1823 60.3861H33.3132L34.2755 60.3632H34.5275L35.4897 60.3403H35.6206L36.5828 60.3174H36.8348L37.7971 60.2912H37.928L38.8902 60.265H39.1422L40.1044 60.2421H40.2353L41.1975 60.2159H41.4496L42.2645 60.1472Z" fill="#45BEF2"/>
<path opacity="0.2" d="M21.7535 51.723V58.3342C21.7535 58.2622 21.7535 58.1902 21.7535 58.1149V57.9872C21.7339 57.66 21.7208 57.3327 21.7077 57.0218C21.7077 56.9367 21.7077 56.8516 21.7077 56.7697C21.7077 56.4425 21.6881 56.1152 21.6815 55.8075V55.6799C21.6815 55.3526 21.6815 55.0253 21.6815 54.7144V54.4624C21.6815 54.1351 21.6815 53.8078 21.7012 53.5002C21.7012 53.4543 21.7012 53.4118 21.7012 53.3692C21.7012 53.042 21.7241 52.7147 21.7437 52.407C21.7437 52.3219 21.7437 52.2368 21.7437 52.155C21.7273 51.9979 21.7404 51.8506 21.7535 51.723ZM23.93 48.1229V67.76L24.0282 67.8614L24.0609 67.8909V48.1621L23.93 48.1229ZM22.7157 48.6432V65.0566C22.7943 65.3544 22.8794 65.6359 22.9677 65.8977V48.4174C22.8751 48.4875 22.7906 48.5676 22.7157 48.6563V48.6432ZM25.1409 48.8723C25.1016 48.8265 25.0624 48.7873 25.0231 48.748V68.4309L25.2751 68.5291V49.0425C25.2326 48.9869 25.1867 48.9345 25.1409 48.8854V48.8723ZM26.2373 50.7084V68.8302L26.3682 68.8662V51.0455C26.3257 50.9342 26.2733 50.8262 26.2373 50.7215V50.7084ZM28.5938 58.1018C28.5774 58.0592 28.5643 58.0167 28.5512 57.9742C28.5381 57.9316 28.5512 57.9742 28.5512 57.9545V69.3408L28.6822 69.3637V58.3571L28.5938 58.1018ZM27.5203 54.7013C27.4974 54.6195 27.4712 54.5344 27.445 54.4493C27.4188 54.3642 27.3697 54.2005 27.3305 54.0729V69.0986L27.5825 69.1542V54.7144L27.5203 54.7013ZM29.6378 60.4452V69.5273L29.8898 69.5666V60.455L29.6378 60.4452ZM30.8521 60.4092V69.7237L30.983 69.7433V60.4222L30.8521 60.4092ZM33.1431 60.3666V69.9855H33.274V60.3764L33.1431 60.3666ZM31.9288 60.3961V69.8481L32.1808 69.8775V60.3862L31.9288 60.3961ZM34.2198 60.3404V70.1001L34.4718 70.1263V60.347L34.2198 60.3404ZM35.434 60.311V70.2146H35.565V60.3208L35.434 60.311ZM37.725 60.2521V70.3979H37.856V60.2619L37.725 60.2521ZM36.6352 60.2815H36.5108V70.3095L36.7628 70.3292V60.2913L36.6352 60.2815ZM38.8182 60.2226V70.4797H39.0702V60.2324L38.8182 60.2226ZM40.0324 60.1931V70.5583C40.0782 70.5583 40.1208 70.5583 40.1633 70.5583V60.203L40.0324 60.1931ZM41.1255 60.1637V70.6172C41.2139 70.6172 41.299 70.6172 41.3775 70.6172V60.1441L41.1255 60.1637ZM29.5462 69.5241L29.6378 69.5404L29.8898 69.5797L30.384 69.6517H42.2645V69.5241H29.5462ZM40.8932 70.6172H41.1746C41.263 70.6172 41.3481 70.6172 41.4266 70.6172L42.2645 70.6597V70.591L40.8932 70.6172ZM24.7253 68.3098C24.8169 68.3556 24.9184 68.3982 25.0231 68.444L25.2751 68.5422L25.3242 68.5586H42.2645V68.3098H24.7253ZM23.5307 67.2167C23.5569 67.2625 23.5798 67.3051 23.606 67.3443H42.2612V67.2167H23.5307ZM22.6765 64.9257L22.7059 65.0533H42.2645V64.9257H22.6765ZM23.0037 66.0188L23.0921 66.2676H42.271V66.0188H23.0037ZM22.4114 63.7115C22.4114 63.7966 22.4408 63.8784 22.4572 63.9602H42.271V63.7115H22.4114ZM22.215 62.6183C22.215 62.6609 22.215 62.7034 22.2379 62.746H42.271V62.6183H22.215ZM21.9204 60.311C21.9204 60.3535 21.9204 60.3961 21.9204 60.4386H29.5462C29.508 60.3997 29.474 60.3569 29.4447 60.311H21.9204ZM36.5665 60.311L35.6042 60.3339H35.4733L34.5111 60.3568H34.2591L33.2969 60.3797H33.1463L32.1841 60.4026H31.9321H31.3953H42.2514V60.275L36.5665 60.311ZM22.0448 61.4041C22.0448 61.4859 22.0644 61.571 22.0775 61.6528H42.271V61.4041H22.0448ZM28.9342 59.1131H21.8059L21.8255 59.3618H29.0258L28.9342 59.1131ZM28.5643 57.9872H21.7306V58.1149H28.584C28.5643 58.0723 28.5643 58.0298 28.5643 57.9872ZM27.8312 55.6799H21.6455V55.8075H27.8639C27.8476 55.765 27.8345 55.7224 27.8181 55.6799H27.8312ZM28.1585 56.7697H21.6717C21.6717 56.8516 21.6717 56.9367 21.6717 57.0218H28.2174C28.2141 56.9399 28.1879 56.8548 28.1585 56.7697ZM27.445 54.4624H21.6357V54.7144H27.5268C27.4974 54.6326 27.4712 54.5475 27.445 54.4624ZM27.1177 53.3692H21.6586C21.6586 53.4118 21.6586 53.4543 21.6586 53.5002H27.157L27.1177 53.3692ZM26.3781 51.0782H21.8288C21.8288 51.1208 21.8288 51.1633 21.8288 51.2092H26.4435L26.3781 51.0782ZM26.7479 52.1714H21.7175C21.7175 52.2532 21.7175 52.3383 21.7175 52.4234H26.8395C26.7937 52.3219 26.7708 52.2401 26.7446 52.155L26.7479 52.1714ZM25.8151 49.8804H22.0873C22.0612 49.9622 22.035 50.0473 22.0121 50.1324H25.9395L25.8151 49.8804ZM25.0231 48.7774H22.6339L22.5357 48.9083H25.154C25.1016 48.8396 25.0624 48.8003 25.0231 48.7774Z" fill="white"/>
<path d="M42.3332 60.1506C42.3417 60.134 42.3457 60.1155 42.3449 60.0968C42.3441 60.0782 42.3385 60.0601 42.3286 60.0443C42.3187 60.0284 42.3049 60.0154 42.2885 60.0065C42.2721 59.9977 42.2537 59.9932 42.235 59.9935C40.579 59.9739 38.9131 60.0622 37.257 60.1048C35.601 60.1473 33.9384 60.1801 32.279 60.2357C31.3463 60.2684 29.5527 60.3502 29.5364 60.3241C29.52 60.2979 29.0193 58.74 28.9112 58.416C28.7018 57.7843 28.4825 57.1559 28.2567 56.5243C28.1945 56.341 28.129 56.1577 28.0636 55.9777C28.0439 55.8533 28.021 55.729 28.0079 55.6079C27.9949 55.4868 27.9687 55.2806 27.949 55.0973C27.9115 54.7596 27.8558 54.4242 27.7821 54.0925C27.7793 54.087 27.7745 54.0826 27.7687 54.0803C27.7629 54.0779 27.7565 54.0777 27.7506 54.0797C27.7446 54.0817 27.7396 54.0857 27.7364 54.0911C27.7332 54.0964 27.732 54.1028 27.733 54.1089C27.8006 54.454 27.8356 54.8046 27.8378 55.1562L27.8574 55.4082C27.5301 54.5377 27.4516 54.3838 27.1734 53.5034C27.1748 53.4995 27.1753 53.4952 27.1748 53.491C27.1743 53.4868 27.1727 53.4828 27.1703 53.4794C27.1679 53.4759 27.1647 53.4731 27.1609 53.4711C27.1572 53.4692 27.153 53.4681 27.1488 53.4681C27.1446 53.4681 27.1404 53.4692 27.1367 53.4711C27.1329 53.4731 27.1297 53.4759 27.1273 53.4794C27.1249 53.4828 27.1234 53.4868 27.1228 53.491C27.1223 53.4952 27.1228 53.4995 27.1243 53.5034C27.4516 54.7766 27.6283 55.3231 28.0276 56.5799C28.2305 57.2149 28.4301 57.8498 28.6429 58.4847C28.7476 58.7924 29.2254 60.2324 29.3793 60.5204C29.3989 60.5564 31.0812 60.4615 31.9092 60.4484C32.7372 60.4353 33.5685 60.4222 34.3998 60.4026L39.3778 60.2782C40.2975 60.2553 41.2237 60.2553 42.1434 60.203C42.1434 60.311 42.2252 60.8575 42.2187 60.8935C42.2121 60.9295 42.271 60.9361 42.2678 60.8935C42.2645 60.851 42.3365 60.1604 42.3332 60.1506Z" fill="#263238"/>
<path d="M40.4022 60.9884C40.4022 60.9622 40.3564 60.9524 40.3499 60.9884C40.2451 61.7182 40.2288 62.4644 40.1862 63.2008C40.1437 63.9372 40.1109 64.726 40.0848 65.4918C40.0357 67.0137 39.9604 68.5421 40.0029 70.0738C40.0029 70.0868 40.0081 70.0993 40.0173 70.1085C40.0265 70.1177 40.039 70.1229 40.052 70.1229C40.0651 70.1229 40.0775 70.1177 40.0867 70.1085C40.096 70.0993 40.1011 70.0868 40.1011 70.0738C40.2517 68.5716 40.2877 67.0497 40.3433 65.5409C40.3717 64.7947 40.3935 64.0463 40.4088 63.2957C40.4186 62.5233 40.4579 61.7444 40.4022 60.9884Z" fill="#263238"/>
<path d="M42.3464 66.3919V66.0646C42.3464 66.0123 42.3464 65.9566 42.3464 65.9042C42.3539 65.8808 42.3539 65.8557 42.3464 65.8322C42.3464 65.8028 42.3464 65.7733 42.3464 65.7406H42.3202C42.3202 65.7733 42.3202 65.8028 42.3202 65.8322C42.3202 65.8322 42.3202 65.8519 42.3202 65.8552C42.2908 66.6439 42.2057 67.4327 42.1697 68.2214C42.1337 69.0102 42.1206 69.8088 42.1271 70.6073C41.2271 70.5321 40.314 70.5419 39.4106 70.4961C38.5073 70.4502 37.5386 70.3815 36.6025 70.3062C34.7272 70.1557 32.8551 69.979 30.9896 69.7138L29.435 69.4946C28.9081 69.4193 28.3582 69.38 27.8411 69.2557C27.8084 69.2557 27.7953 69.3015 27.8411 69.308C28.3157 69.3669 28.787 69.4978 29.2582 69.5829C29.7295 69.668 30.1812 69.7466 30.6459 69.8186C31.5711 69.967 32.4995 70.0979 33.4311 70.2113C35.2901 70.4426 37.1556 70.6052 39.0277 70.699L40.6347 70.7677C41.1616 70.7841 41.6951 70.8168 42.222 70.7906C42.2444 70.7892 42.2656 70.7798 42.2818 70.7643C42.298 70.7487 42.3081 70.7279 42.3104 70.7055C42.3104 69.8775 42.3529 69.0495 42.3628 68.2214C42.3628 67.8156 42.3628 67.4098 42.3628 67.0039C42.3562 66.7977 42.3529 66.5948 42.3464 66.3919Z" fill="#263238"/>
<path d="M61.7772 53.4609C62.6118 54.5344 64.5428 55.7061 64.8766 56.6585C64.9669 56.8909 64.98 57.1462 64.914 57.3867C64.848 57.6272 64.7064 57.84 64.5101 57.9938C64.5101 57.9938 65.5967 58.2654 65.757 59.1786C65.8388 59.6498 65.1581 60.1964 65.1581 60.1964C65.4004 60.2712 65.6174 60.4112 65.7854 60.6011C65.9534 60.791 66.0659 61.0236 66.1105 61.2732C66.1825 61.9277 65.4919 62.3761 65.4919 62.3761C65.4919 62.3761 66.2021 63.0045 66.0614 63.6853C65.7799 65.086 60.2554 66.3036 58.9528 64.4577C58.344 63.5969 59.7088 63.3744 59.7088 63.3744C59.7088 63.3744 57.6698 63.2205 57.3883 62.0881C57.1069 60.9557 58.9004 60.779 58.9004 60.779C58.9004 60.779 56.9203 60.6153 56.7501 59.4109C56.5799 58.2065 58.3866 58.2785 58.3866 58.2785C58.3866 58.2785 56.976 57.7189 57.0545 56.7665C57.1854 55.1955 60.2684 56.5341 61.4205 55.9777L61.7772 53.4609Z" fill="#AD6359"/>
<path d="M65.1875 60.1996C65.2072 60.1996 65.2203 60.2291 65.1875 60.2389C63.2107 61.1941 60.9572 61.4101 58.8349 60.8477C58.7629 60.828 58.7171 60.7331 58.8055 60.7528C60.2717 61.067 63.4398 60.7462 65.1875 60.1996Z" fill="#263238"/>
<path d="M58.2524 58.1902C60.3306 58.7204 62.3729 58.5175 64.4413 58.0331C64.4675 58.0331 64.4741 58.0625 64.4413 58.0756C63.4988 58.596 62.1503 58.7728 61.0834 58.8251C60.097 58.8918 59.1105 58.6976 58.2229 58.2622C58.1967 58.2458 58.2066 58.1804 58.2524 58.1902Z" fill="#263238"/>
<path d="M100.584 96.3418C100.309 97.0814 86.8375 113.829 85.9211 114.143C85.5742 114.264 83.0214 112.444 79.9973 110.156C79.3427 109.662 78.6881 109.148 77.9943 108.625C73.5857 105.218 68.9874 101.5 68.9874 101.5L77.9648 90.2706L86.7262 97.7066L88.6507 99.343C88.6507 99.343 96.6757 95.2388 97.7198 95.0032C98.7638 94.7675 100.858 95.5988 100.584 96.3418Z" fill="#AD6359"/>
<path d="M100.583 96.3419C100.309 97.0815 86.8375 113.829 85.9211 114.143C85.4956 114.287 81.8169 111.57 77.9942 108.625L86.7262 97.7067L88.6506 99.3431C88.6506 99.3431 96.6757 95.2389 97.7197 95.0033C98.7638 94.7676 100.858 95.5989 100.583 96.3419Z" fill="white"/>
<path d="M100.584 96.3418C100.309 97.0815 86.8375 113.829 85.9211 114.143C85.5742 114.264 83.0214 112.444 79.9973 110.157L88.6507 99.3365C88.6507 99.3365 96.6757 95.2323 97.7198 94.9967C98.7638 94.761 100.858 95.5989 100.584 96.3418Z" fill="#45BEF2"/>
<path d="M99.7228 96.0406C97.3925 98.7931 88.2678 110.114 86.1764 113.007C86.1764 113.03 86.1764 113.043 86.1928 113.007C88.5591 110.333 97.5954 98.9338 99.7686 96.0668C99.8144 96.0177 99.7719 95.985 99.7228 96.0406Z" fill="#263238"/>
<path d="M96.2503 95.5793C95.9927 95.8852 95.8016 96.2412 95.6889 96.6249C95.5762 97.0086 95.5445 97.4115 95.5957 97.8081C95.6761 98.5222 96.0275 99.1783 96.5775 99.6409C96.5939 99.6409 96.6201 99.6245 96.6037 99.6081C96.1237 99.0661 95.8323 98.383 95.7733 97.6613C95.7143 96.9396 95.8909 96.2183 96.2765 95.6054C96.277 95.6019 96.2767 95.5982 96.2756 95.5948C96.2745 95.5914 96.2726 95.5882 96.27 95.5857C96.2675 95.5831 96.2643 95.5812 96.2609 95.5801C96.2575 95.579 96.2538 95.5787 96.2503 95.5793Z" fill="#263238"/>
<path d="M89.8059 98.4723C88.8863 99.5818 88.235 101.205 88.5917 102.642C88.5917 102.698 88.6866 102.678 88.6964 102.642C88.971 101.246 89.3945 99.8829 89.9598 98.5771C89.9736 98.5567 89.9789 98.5316 89.9743 98.5073C89.9697 98.4831 89.9556 98.4617 89.9352 98.4478C89.9148 98.4339 89.8897 98.4287 89.8655 98.4333C89.8412 98.4379 89.8198 98.4519 89.8059 98.4723Z" fill="#263238"/>
<path d="M90.8435 97.8701C89.9238 98.9796 89.2725 100.603 89.6292 102.04C89.6292 102.095 89.7209 102.076 89.7307 102.04C90.0064 100.643 90.431 99.2807 90.9973 97.9749C91.0112 97.9545 91.0164 97.9294 91.0118 97.9052C91.0072 97.8809 90.9932 97.8595 90.9728 97.8456C90.9524 97.8317 90.9273 97.8265 90.903 97.8311C90.8788 97.8357 90.8574 97.8497 90.8435 97.8701Z" fill="#263238"/>
<path d="M91.8777 97.2812C90.958 98.3907 90.3067 100.014 90.6635 101.451C90.6798 101.506 90.7584 101.487 90.7682 101.451C91.0428 100.055 91.4663 98.6918 92.0315 97.3859C92.0454 97.3655 92.0506 97.3404 92.046 97.3162C92.0414 97.2919 92.0274 97.2705 92.007 97.2566C91.9866 97.2427 91.9615 97.2375 91.9372 97.2421C91.913 97.2467 91.8916 97.2608 91.8777 97.2812Z" fill="#263238"/>
<path d="M92.9152 96.6855C91.9956 97.7982 91.3443 99.4183 91.701 100.855C91.701 100.911 91.7926 100.891 91.8025 100.855C92.0786 99.4588 92.5032 98.0961 93.069 96.7902C93.0829 96.7698 93.0882 96.7447 93.0836 96.7205C93.0789 96.6962 93.0649 96.6748 93.0445 96.6609C93.0241 96.647 92.999 96.6418 92.9748 96.6464C92.9505 96.651 92.9291 96.6651 92.9152 96.6855Z" fill="#263238"/>
<path d="M84.0851 110.147C83.0737 111.41 85.0375 112.984 86.0488 111.718C87.0601 110.451 85.0964 108.883 84.0851 110.147Z" fill="#263238"/>
<path d="M87.803 94.8461C86.8735 95.036 86.7589 96.1225 86.9651 96.8655C87.3442 98.1372 88.052 99.2865 89.0172 100.197C89.0205 100.202 89.0249 100.206 89.0301 100.208C89.0352 100.211 89.0409 100.213 89.0467 100.213C89.0524 100.213 89.0581 100.211 89.0633 100.208C89.0684 100.206 89.0728 100.202 89.0761 100.197C89.1011 100.21 89.1287 100.217 89.1567 100.217C89.1847 100.217 89.2124 100.21 89.2373 100.197C89.2622 100.184 89.2838 100.166 89.3001 100.143C89.3165 100.12 89.3272 100.094 89.3314 100.066C89.4198 98.8226 89.6587 97.5037 89.3772 96.2666C89.1874 95.54 88.6637 94.6661 87.803 94.8461ZM89.0794 98.1452C89.0499 98.7572 88.991 99.3659 88.9845 99.9812C88.567 99.3463 88.1814 98.6909 87.8292 98.0175C87.6645 97.6882 87.5224 97.3482 87.4037 96.9997C87.227 96.4564 87.1746 94.5974 88.487 95.468C89.1939 95.9393 89.1121 97.4153 89.063 98.1452H89.0794Z" fill="#263238"/>
<path d="M87.1713 103.326C88.1074 102.468 88.6408 101.235 89.266 100.155C89.2782 100.129 89.2842 100.102 89.2836 100.074C89.2829 100.046 89.2755 100.019 89.262 99.9944C89.2485 99.97 89.2293 99.9492 89.2061 99.9338C89.1828 99.9183 89.1562 99.9087 89.1285 99.9058C89.1291 99.8998 89.1283 99.8937 89.1261 99.888C89.124 99.8824 89.1206 99.8773 89.1161 99.8732C89.1117 99.8691 89.1064 99.866 89.1006 99.8643C89.0948 99.8626 89.0886 99.8622 89.0827 99.8633C87.7715 100.075 86.5396 100.629 85.512 101.47C84.9229 101.968 84.409 102.933 85.0702 103.611C85.7313 104.288 86.6248 103.827 87.1713 103.326ZM85.9866 103.49C84.409 103.473 85.4956 101.964 85.9473 101.614C86.2415 101.391 86.551 101.189 86.8735 101.009C87.5281 100.626 88.2416 100.354 88.9354 100.027C88.6081 100.537 88.3037 101.074 87.983 101.598C87.6033 102.223 86.8539 103.496 85.9866 103.49Z" fill="#263238"/>
<path d="M86.2583 96.0112L76.9143 108.618L45.3836 86.7425L42.3431 84.6315C42.3431 84.6315 41.4823 85.2108 40.1863 85.9407C38.3862 86.9225 35.7483 88.1957 33.4148 88.5393C29.4873 89.1186 22.9645 89.0564 19.6688 84.6446C16.8901 80.9299 18.7884 74.2009 18.7884 74.2009L23.3704 73.6937C23.3704 73.6937 32.8617 65.7635 39.4663 65.5115C42.2646 65.4002 46.3393 67.5211 50.1129 69.7368C53.8865 71.9525 86.2583 96.0112 86.2583 96.0112Z" fill="#455A64"/>
<path d="M42.3431 84.6282C42.3431 84.6282 41.4823 85.2074 40.1862 85.9373C37.8952 83.1946 33.0449 78.2134 32.8976 78.0366L42.3431 84.6282Z" fill="#263238"/>
<path d="M26.4206 71.3863C25.8118 71.8052 25.226 72.2569 24.6238 72.6954C24.0216 73.134 23.4259 73.5235 22.8663 73.9882C22.3066 74.4529 21.7535 74.9701 21.2298 75.4773C20.9713 75.7228 20.7127 75.9715 20.464 76.2236C20.2003 76.4702 19.9552 76.736 19.7309 77.0189C19.7112 77.045 19.7505 77.0778 19.7767 77.0614C20.0605 76.8588 20.3326 76.6403 20.5916 76.4068C20.8764 76.1679 21.1546 75.9225 21.4393 75.6835C21.9859 75.2188 22.5422 74.7671 23.0757 74.2991C23.6092 73.8311 24.1198 73.3173 24.6565 72.8623C25.1933 72.4074 25.8347 71.8805 26.4337 71.4157C26.4435 71.3961 26.4337 71.3765 26.4206 71.3863Z" fill="#263238"/>
<path d="M84.0654 95.5594C83.4566 96.214 82.897 96.9177 82.3308 97.6082C81.7646 98.2988 81.1983 98.9992 80.6387 99.6996C79.5194 101.097 78.387 102.491 77.2873 103.905C76.6818 104.684 76.0862 105.466 75.5232 106.275C75.5172 106.283 75.5144 106.292 75.5156 106.302C75.5169 106.312 75.522 106.321 75.5298 106.327C75.5376 106.333 75.5475 106.336 75.5573 106.335C75.5671 106.333 75.5761 106.328 75.5821 106.321C76.7898 104.995 77.8731 103.581 79.0088 102.184C80.1445 100.786 81.2474 99.3756 82.3439 97.9584C82.9461 97.1828 83.5679 96.4104 84.121 95.5987C84.1231 95.5915 84.1229 95.5838 84.1204 95.5767C84.118 95.5697 84.1133 95.5635 84.1072 95.5592C84.1011 95.5549 84.0938 95.5526 84.0863 95.5526C84.0787 95.5527 84.0714 95.555 84.0654 95.5594Z" fill="#263238"/>
<path d="M59.028 75.8734C57.9185 74.5872 53.1598 71.2129 50.1193 69.7041C50.1135 69.7026 50.1074 69.7031 50.1019 69.7056C50.0964 69.7081 50.092 69.7123 50.0893 69.7177C50.0866 69.7231 50.0859 69.7292 50.0871 69.7351C50.0884 69.7409 50.0917 69.7462 50.0964 69.7499C53.1271 71.6973 58.1214 75.389 58.9822 75.9389C59.0215 75.9618 59.0575 75.9062 59.028 75.8734Z" fill="#263238"/>
<path d="M45.8778 41.2302L46.719 42.932L48.5943 43.2037L47.2361 44.5292L47.5568 46.398L45.8778 45.5143L44.2021 46.398L44.5196 44.5292L43.1614 43.2037L45.04 42.932L45.8778 41.2302Z" fill="#FFC727"/>
<path d="M52.1093 35.7776L52.7148 37.0541L54.0664 37.257L53.0879 38.2487L53.3202 39.6494L52.1093 38.9883L50.895 39.6494L51.1274 38.2487L50.1488 37.257L51.5038 37.0541L52.1093 35.7776Z" fill="#FFC727"/>
<path d="M47.2655 27.8181L47.6484 28.5937L48.5027 28.7181L47.8841 29.3203L48.0314 30.1745L47.2655 29.7719L46.4997 30.1745L46.647 29.3203L46.0284 28.7181L46.8826 28.5937L47.2655 27.8181Z" fill="#FFC727"/>
<path d="M52.1094 23.2623L52.3974 23.8514L53.0487 23.9431L52.5774 24.4013L52.6887 25.0493L52.1094 24.7417L51.5268 25.0493L51.6381 24.4013L51.1668 23.9431L51.8181 23.8514L52.1094 23.2623Z" fill="#FFC727"/>
<path d="M115.721 85.6918C115.721 85.6918 123.248 83.9899 127.352 80.1967C131.456 76.4034 133.77 69.6057 133.77 69.6057C130.915 70.1521 128.101 70.8913 125.346 71.8182C124.672 72.5382 123.382 74.0208 122.796 75.4183C122.725 74.5614 122.719 73.7004 122.777 72.8426C121.814 73.2627 120.913 73.8133 120.1 74.479C116.686 77.4573 115.721 85.6918 115.721 85.6918Z" fill="#61F7C1"/>
<path d="M129.08 72.9081C130.105 72.2011 131.145 71.5171 132.167 70.8003C132.177 70.791 132.184 70.7784 132.186 70.7645C132.188 70.7507 132.185 70.7367 132.177 70.7249C132.17 70.7131 132.158 70.7044 132.145 70.7002C132.132 70.696 132.117 70.6967 132.104 70.7021C130.167 71.8575 128.259 73.0946 126.413 74.3874C125.758 74.839 125.137 75.3071 124.511 75.7882L124.642 75.5656C124.868 75.186 125.107 74.8161 125.343 74.4463C125.815 73.6942 126.349 72.9826 126.94 72.3189C126.959 72.2928 126.923 72.2568 126.901 72.2829C126.318 72.9571 125.732 73.6248 125.199 74.3416C124.943 74.6688 124.711 75.0321 124.485 75.3922C124.367 75.582 124.256 75.7685 124.158 75.9616L124.043 76.1547C123.062 76.9173 122.129 77.7126 121.225 78.5537C120.667 79.073 120.129 79.6109 119.612 80.1672C119.9 79.2574 120.155 78.3377 120.492 77.4442C120.494 77.4403 120.494 77.436 120.494 77.4318C120.493 77.4276 120.492 77.4236 120.489 77.4202C120.487 77.4167 120.484 77.4139 120.48 77.4119C120.476 77.41 120.472 77.4089 120.468 77.4089C120.464 77.4089 120.459 77.41 120.456 77.4119C120.452 77.4139 120.449 77.4167 120.446 77.4202C120.444 77.4236 120.442 77.4276 120.442 77.4318C120.441 77.436 120.442 77.4403 120.443 77.4442C120.116 78.3835 119.756 79.3261 119.504 80.2916C118.928 80.9135 118.378 81.5549 117.868 82.2259C117.868 82.1866 117.884 82.144 117.894 82.1048C117.979 81.7513 118.067 81.3978 118.162 81.0444C118.345 80.3669 118.545 79.6894 118.774 79.025C119.207 77.6406 119.891 76.348 120.793 75.2121C120.813 75.1892 120.777 75.1532 120.754 75.1794C119.288 76.914 118.427 78.9988 117.877 81.1851C117.799 81.5124 117.72 81.8397 117.648 82.1473C117.609 82.3208 117.566 82.4942 117.537 82.6677C117.308 82.9753 117.085 83.2863 116.882 83.6037C115.604 85.5571 114.539 87.6418 113.704 89.8222C112.766 92.2792 111.961 94.7855 111.296 97.3301C111.296 97.3792 111.358 97.3955 111.374 97.3301C112.844 92.9346 114.343 88.4934 116.859 84.5463C117.391 83.7184 117.963 82.9177 118.574 82.1473C119.819 82.0664 121.047 81.8221 122.227 81.4207C123.517 80.9864 124.748 80.3915 125.889 79.6501C126.539 79.2118 127.165 78.7387 127.765 78.233C127.768 78.2312 127.771 78.2286 127.773 78.2255C127.776 78.2224 127.777 78.2188 127.778 78.2149C127.779 78.2111 127.779 78.2071 127.778 78.2033C127.777 78.1995 127.775 78.196 127.773 78.193C127.77 78.1899 127.767 78.1875 127.763 78.1859C127.76 78.1843 127.756 78.1835 127.752 78.1835C127.748 78.1836 127.744 78.1846 127.741 78.1863C127.737 78.1881 127.734 78.1906 127.732 78.1937C126.684 79.0408 125.525 79.7421 124.289 80.2785C123.075 80.8365 121.804 81.2622 120.499 81.5484C119.946 81.6695 119.383 81.7611 118.82 81.8364C119.514 80.9792 120.254 80.1598 121.036 79.3818C121.288 79.1298 121.549 78.8876 121.811 78.6421C122.687 78.0284 123.617 77.496 124.59 77.0515C125.821 76.4558 127.031 75.8242 128.249 75.2056C128.936 74.8554 129.62 74.4987 130.314 74.1616C130.344 74.1452 130.314 74.1027 130.285 74.1157C129.051 74.7147 127.797 75.2711 126.55 75.8405C125.379 76.3773 124.191 76.9173 123.065 77.549L122.924 77.6341C123.942 76.7504 124.996 75.906 126.073 75.091C127.041 74.3547 128.059 73.6183 129.08 72.9081Z" fill="#263238"/>
<path d="M128.652 76.7831C128.04 77.0482 127.418 77.2871 126.816 77.5686C126.213 77.85 125.601 78.2002 125.012 78.5504C125.008 78.5538 125.005 78.5587 125.004 78.5642C125.003 78.5697 125.003 78.5754 125.006 78.5802C125.009 78.585 125.014 78.5886 125.019 78.5904C125.024 78.5921 125.03 78.5919 125.035 78.5897C125.634 78.3017 126.243 78.0333 126.835 77.7355C127.428 77.4377 128.043 77.1038 128.668 76.8322C128.714 76.8191 128.681 76.77 128.652 76.7831Z" fill="#263238"/>
<path d="M91.3181 47.8347C92.7053 49.6254 93.4912 51.8087 93.5633 54.0728C93.5862 54.747 93.4815 55.6863 93.4029 56.7892C96.2045 58.2849 98.3122 60.9785 98.3122 60.9785C96.7216 60.0228 94.5353 59.6366 93.3571 59.7937C93.3958 60.5484 93.4921 61.2989 93.6451 62.0389C94.1655 62.0094 95.1703 62.0782 96.8296 62.6673C95.8435 62.6579 94.8662 62.8529 93.9593 63.24C95.2979 67.4948 99.2777 71.8771 110.268 73.7361C110.268 73.7361 112.389 66.274 108.324 58.2686C105.022 51.7883 91.3181 47.8347 91.3181 47.8347Z" fill="#61F7C1"/>
<path d="M114.068 91.9789C113.878 90.1592 113.636 88.3428 113.354 86.5362C112.799 82.9137 112.06 79.322 111.138 75.775C110.709 74.108 110.179 72.4686 109.551 70.8657C109.583 70.5734 109.598 70.2794 109.594 69.9853C109.594 69.6351 109.594 69.2817 109.594 68.9315C109.594 68.2245 109.554 67.5242 109.495 66.8205C109.383 65.4308 109.156 64.0526 108.818 62.7C108.618 61.9178 108.383 61.1454 108.163 60.3697C108.161 60.3641 108.156 60.3598 108.15 60.3574C108.144 60.3551 108.138 60.3549 108.132 60.3568C108.126 60.3588 108.121 60.3629 108.118 60.3682C108.114 60.3736 108.113 60.3799 108.114 60.3861C108.477 61.7328 108.746 63.103 108.919 64.4869C109.118 65.8538 109.241 67.2304 109.289 68.6107C109.289 68.9904 109.309 69.3668 109.312 69.7464C109.312 69.9068 109.312 70.0737 109.312 70.2308C108.765 68.9192 108.14 67.6416 107.44 66.4048C106.323 64.4398 105.066 62.5584 103.676 60.7755C103.673 60.5675 103.643 60.3608 103.588 60.1602C103.536 59.9148 103.483 59.6693 103.428 59.4238C103.313 58.9231 103.189 58.4223 103.051 57.9281C102.78 56.9463 102.42 55.9644 102.105 54.9826C102.104 54.9776 102.1 54.9732 102.096 54.9702C102.091 54.9671 102.086 54.9655 102.081 54.9655C102.075 54.9655 102.07 54.9671 102.066 54.9702C102.062 54.9732 102.058 54.9776 102.056 54.9826C102.348 55.9644 102.541 56.9659 102.763 57.9576C102.875 58.4453 102.983 58.9395 103.091 59.4271L103.248 60.1635V60.2191C102.811 59.6606 102.357 59.1086 101.886 58.5631C99.7849 56.1019 97.4841 53.8305 95.1702 51.5755C94.8855 51.2973 94.5909 51.029 94.3029 50.7541C94.28 50.7311 94.244 50.7541 94.2669 50.7933C96.4826 53.0843 98.6624 55.4375 100.724 57.8823C101.215 58.4649 101.706 59.0507 102.174 59.6464L101.425 59.1489C100.77 58.73 100.135 58.3242 99.4609 57.9511C98.7867 57.578 98.1223 57.2114 97.4383 56.871C96.7543 56.5306 95.9786 56.2394 95.3011 55.8433C95.2717 55.827 95.2455 55.8761 95.2749 55.8892C95.97 56.2093 96.6406 56.5801 97.2812 56.9987C97.9358 57.3947 98.6165 57.794 99.2744 58.2129C99.9322 58.6318 100.584 59.0246 101.212 59.4435C101.745 59.7904 102.272 60.1701 102.829 60.4908C104.103 62.1278 105.279 63.8392 106.35 65.6161C107.015 66.7353 107.623 67.8877 108.17 69.0689L107.774 68.8955L106.786 68.4667C106.131 68.1787 105.476 67.9005 104.841 67.6158C103.608 67.0823 102.354 66.5881 101.146 65.999C100.468 65.6789 99.8122 65.3137 99.1827 64.9059C99.1565 64.8862 99.1304 64.9321 99.1565 64.9484C101.412 66.503 103.938 67.5962 106.432 68.7024L107.515 69.1802C107.813 69.3111 108.108 69.4584 108.415 69.573C109.154 71.2246 109.775 72.9264 110.274 74.6655C111.261 78.1655 112.063 81.7149 112.677 85.299C113.305 88.8992 113.731 92.4993 114.061 96.1354C114.104 96.5871 114.143 97.0387 114.195 97.4904C114.2 97.5245 114.218 97.5555 114.244 97.578C114.27 97.6004 114.303 97.6128 114.338 97.6128C114.372 97.6128 114.405 97.6004 114.432 97.578C114.458 97.5555 114.475 97.5245 114.48 97.4904C114.447 95.6412 114.261 93.7953 114.068 91.9789Z" fill="#263238"/>
<path d="M107.381 61.6101C107.178 60.4941 106.881 59.401 106.579 58.3078C106.579 58.2751 106.524 58.2882 106.53 58.3078C106.809 59.3813 107.008 60.4777 107.211 61.5807C107.414 62.6836 107.597 63.8062 107.754 64.9255C107.754 64.9452 107.787 64.9452 107.784 64.9255C107.712 63.8137 107.578 62.7068 107.381 61.6101Z" fill="#263238"/>
<path d="M102.642 64.6408C101.878 64.1379 101.079 63.6885 100.253 63.2956C99.8538 63.0894 99.4479 62.8931 99.0421 62.6967C98.6363 62.5003 98.1879 62.3236 97.7722 62.1141C97.7664 62.1126 97.7603 62.1131 97.7548 62.1156C97.7493 62.1181 97.7449 62.1224 97.7422 62.1277C97.7395 62.1331 97.7388 62.1392 97.7401 62.1451C97.7414 62.151 97.7446 62.1562 97.7493 62.16C98.1486 62.3629 98.5315 62.6051 98.9275 62.8145L100.145 63.4691C100.95 63.9011 101.739 64.3789 102.583 64.7291C102.594 64.7296 102.605 64.7273 102.614 64.7224C102.624 64.7176 102.632 64.7104 102.638 64.7015C102.644 64.6926 102.647 64.6824 102.648 64.6717C102.649 64.6611 102.647 64.6504 102.642 64.6408Z" fill="#263238"/>
<path opacity="0.1" d="M115.858 72.6692C115.858 72.6692 122.81 71.0099 126.004 66.346C129.054 61.8917 130.039 54.3019 130.118 53.6343C129.99 54.2463 128.557 60.8804 123.824 63.97C120.204 66.3493 116.696 68.2967 115.858 72.6692Z" fill="#263238"/>
<path d="M122.276 60.6675C121.039 61.8042 120.149 63.2681 119.71 64.8895C119.71 64.8895 119.73 64.9124 119.733 64.8895C120.244 63.3072 121.128 61.8706 122.309 60.7003C122.332 60.6839 122.299 60.6446 122.276 60.6675Z" fill="#263238"/>
<path d="M115.858 72.6692C115.858 72.6692 122.81 71.0099 126.004 66.3461C129.054 61.8917 130.039 54.302 130.118 53.6343C130.119 53.618 130.119 53.6015 130.118 53.5852C130.118 53.5852 126.786 58.3243 123.281 59.5352C119.776 60.7462 114.853 64.9322 115.858 72.6692Z" fill="#61F7C1"/>
<path d="M128.89 56.21C128.27 57.4868 127.554 58.7154 126.75 59.8854C125.939 60.9964 124.976 61.988 123.89 62.8309C122.947 63.5804 121.949 64.2612 120.993 64.9943L121.013 64.9616C121.193 64.6932 121.386 64.4346 121.582 64.1826C121.981 63.6753 122.417 63.2008 122.855 62.7197C123.719 61.7836 124.6 60.864 125.375 59.8494C125.804 59.2883 126.177 58.6864 126.488 58.0526C126.505 58.0231 126.455 58.0068 126.439 58.0362C125.313 60.3861 123.062 61.8884 121.455 63.8717C121.225 64.1564 121.009 64.4477 120.8 64.7521C120.642 64.976 120.508 65.2163 120.401 65.4689C119.521 66.1728 118.725 66.9768 118.031 67.8646C118.091 67.4089 118.184 66.9582 118.309 66.5162C118.472 65.8979 118.72 65.3052 119.046 64.7554C119.062 64.7259 119.02 64.6997 119.003 64.7259C118.666 65.2766 118.394 65.8641 118.192 66.4769C118.045 66.9639 117.96 67.4676 117.94 67.9759C117.596 68.442 117.282 68.9296 117 69.4356C117.03 69.2883 117.056 69.1377 117.085 68.9905C117.223 68.2966 117.377 67.606 117.557 66.9253C117.882 65.5289 118.448 64.1999 119.229 62.9979C119.249 62.9717 119.206 62.9422 119.186 62.9684C118.388 64.1504 117.765 65.4412 117.334 66.8009C117.111 67.4817 116.935 68.1755 116.778 68.8759C116.702 69.2196 116.634 69.5632 116.568 69.9069C116.532 70.0836 116.496 70.2669 116.467 70.4501C115.776 71.9637 115.239 73.5425 114.863 75.1631C114.179 78.0571 113.684 80.9925 113.38 83.9507C113.02 87.0497 112.86 90.1685 112.899 93.2881C112.899 93.6776 112.929 94.0703 112.948 94.4598C112.948 94.5613 113.106 94.5743 113.109 94.4598C113.178 92.915 113.217 91.3735 113.308 89.832C113.4 88.2905 113.534 86.749 113.701 85.214C114.017 82.1938 114.5 79.1935 115.148 76.2267C115.714 73.6837 116.457 71.1244 117.832 68.8988C118.522 67.7904 119.367 66.7863 120.342 65.9172C121.324 65.0401 122.381 64.2808 123.408 63.4659C124.447 62.6742 125.391 61.7661 126.223 60.7592C127.073 59.6323 127.814 58.4268 128.436 57.1591C128.599 56.8318 128.763 56.534 128.933 56.2198C128.946 56.21 128.904 56.1805 128.89 56.21Z" fill="#263238"/>
<path d="M127.689 57.2278C127.234 58.1646 126.717 59.0699 126.141 59.9377C126.141 59.9573 126.158 59.977 126.174 59.9573C126.77 59.0981 127.293 58.1905 127.738 57.2441C127.751 57.2147 127.702 57.1983 127.689 57.2278Z" fill="#263238"/>
<path d="M90.3493 69.6057C90.3493 69.6057 90.2381 79.4832 96.1456 82.3371C102.053 85.191 105.218 82.8117 109.237 83.7673C109.083 83.5317 106.219 79.4112 101.664 78.2788C96.9671 77.1071 91.7698 73.723 90.3493 69.6057Z" fill="#61F7C1"/>
<path opacity="0.1" d="M90.3493 69.6057C90.3493 69.6057 90.2381 79.4832 96.1456 82.3371C102.053 85.191 105.218 82.8117 109.237 83.7673C107.118 82.7568 104.852 82.0874 102.524 81.784C98.7868 81.3323 91.6683 78.9072 90.3493 69.6057Z" fill="#263238"/>
<path d="M109.62 83.9441C108.918 83.3043 108.128 82.7686 107.273 82.3535C107.146 82.2913 107.015 82.2422 106.887 82.1866C106.825 82.108 106.756 82.0328 106.687 81.9608C106.511 81.7775 106.327 81.6007 106.131 81.4338C105.762 81.1125 105.364 80.8255 104.943 80.5763C103.961 80.0003 102.894 79.5945 101.893 79.0643C101.863 79.0479 101.837 79.0937 101.867 79.1068C102.361 79.3654 102.848 79.6468 103.323 79.9283C103.798 80.2098 104.269 80.4618 104.724 80.7563C105.134 81.0203 105.524 81.3135 105.892 81.6335C105.997 81.7251 106.098 81.8233 106.197 81.9248C105.544 81.7026 104.877 81.5254 104.2 81.3946C103.12 81.1753 102.027 81.0214 100.947 80.7891C100.417 80.6764 99.8938 80.5355 99.3792 80.3669C98.8882 79.9709 98.3973 79.5814 97.9358 79.1526C97.3742 78.6381 96.8624 78.0715 96.4074 77.4606C96.3878 77.4311 96.3452 77.4606 96.3649 77.4868C97.0817 78.455 97.893 79.3496 98.7868 80.1574C98.5315 80.0614 98.2795 79.9523 98.0308 79.8301C96.0025 78.92 94.2618 77.4724 92.9971 75.6441C92.9807 75.618 92.9349 75.6442 92.9546 75.6703C94.026 77.2465 95.4123 78.5837 97.026 79.5978C97.8343 80.1002 98.6974 80.5087 99.5985 80.8153C100.646 81.1392 101.714 81.3918 102.796 81.5713C103.857 81.7433 104.903 81.9916 105.928 82.3142C106.867 82.6358 107.751 83.1017 108.546 83.6954C110.05 84.8641 111.261 86.3667 112.084 88.0843C113.204 90.3262 113.737 92.8332 114.048 95.3075C114.048 95.4122 114.225 95.4122 114.215 95.3075C113.934 91.1477 112.824 86.8275 109.62 83.9441Z" fill="#263238"/>
<path d="M102.767 80.7235C102.458 80.2621 102.041 79.8833 101.552 79.6206C100.992 79.3299 100.499 78.9226 100.109 78.426C100.089 78.3998 100.044 78.426 100.063 78.4522C100.418 78.9051 100.85 79.2918 101.34 79.5944C101.877 79.8787 102.35 80.2696 102.731 80.7432C102.747 80.7661 102.783 80.7465 102.767 80.7235Z" fill="#263238"/>
<path d="M105.902 91.2361L106.17 96.6657L106.992 113.266H119.386L120.208 96.6657L120.476 91.2361H105.902Z" fill="#37474F"/>
<path d="M105.902 91.2361L106.17 96.6657H120.208L120.476 91.2361H105.902Z" fill="#263238"/>
<path d="M105.031 94.1488H121.347V88.9679H105.031V94.1488Z" fill="#37474F"/>
</svg>
