<svg width="25" height="24" viewBox="0 0 25 24" fill="none" xmlns="http://www.w3.org/2000/svg">
<path fill-rule="evenodd" clip-rule="evenodd" d="M6 5.25C5.58578 5.25 5.25 5.58577 5.25 6V10.75H19.75V6C19.75 5.58576 19.4142 5.25 19 5.25H6ZM3.75 6C3.75 4.75733 4.75737 3.75 6 3.75H19C20.2427 3.75 21.25 4.75734 21.25 6V11.5C21.25 11.9142 20.9142 12.25 20.5 12.25H4.5C4.08579 12.25 3.75 11.9142 3.75 11.5V6Z" fill="#2D4356"/>
<path fill-rule="evenodd" clip-rule="evenodd" d="M3.5 16.75C3.91421 16.75 4.25 17.0858 4.25 17.5V19.5C4.25 19.9142 3.91421 20.25 3.5 20.25C3.08579 20.25 2.75 19.9142 2.75 19.5V17.5C2.75 17.0858 3.08579 16.75 3.5 16.75Z" fill="#2D4356"/>
<path fill-rule="evenodd" clip-rule="evenodd" d="M21.5 16.75C21.9142 16.75 22.25 17.0858 22.25 17.5V19.5C22.25 19.9142 21.9142 20.25 21.5 20.25C21.0858 20.25 20.75 19.9142 20.75 19.5V17.5C20.75 17.0858 21.0858 16.75 21.5 16.75Z" fill="#2D4356"/>
<path fill-rule="evenodd" clip-rule="evenodd" d="M5.25 10.5C5.25 9.25734 6.25734 8.25 7.5 8.25H10.5C11.7427 8.25 12.75 9.25734 12.75 10.5V11.5C12.75 11.9142 12.4142 12.25 12 12.25H6C5.58579 12.25 5.25 11.9142 5.25 11.5V10.5ZM7.5 9.75C7.08576 9.75 6.75 10.0858 6.75 10.5V10.75H11.25V10.5C11.25 10.0858 10.9142 9.75 10.5 9.75H7.5Z" fill="#2D4356"/>
<path fill-rule="evenodd" clip-rule="evenodd" d="M12.25 10.5C12.25 9.25734 13.2573 8.25 14.5 8.25H17.5C18.7427 8.25 19.75 9.25734 19.75 10.5V11.5C19.75 11.9142 19.4142 12.25 19 12.25H13C12.5858 12.25 12.25 11.9142 12.25 11.5V10.5ZM14.5 9.75C14.0858 9.75 13.75 10.0858 13.75 10.5V10.75H18.25V10.5C18.25 10.0858 17.9142 9.75 17.5 9.75H14.5Z" fill="#2D4356"/>
<path fill-rule="evenodd" clip-rule="evenodd" d="M4 12.25C3.58578 12.25 3.25 12.5858 3.25 13V16.75H21.75V13C21.75 12.5858 21.4142 12.25 21 12.25H4ZM1.75 13C1.75 11.7573 2.75737 10.75 4 10.75H21C22.2427 10.75 23.25 11.7573 23.25 13V17.5C23.25 17.9142 22.9142 18.25 22.5 18.25H2.5C2.08579 18.25 1.75 17.9142 1.75 17.5V13Z" fill="#2D4356"/>
</svg>
