<svg width="360" height="203" viewBox="0 0 360 203" fill="none" xmlns="http://www.w3.org/2000/svg">
<path opacity="0.3" d="M299.564 248.778C382.42 226.537 425.223 176.651 422.813 118.571C417.755 118.123 412.66 118.807 407.898 120.574C401.065 123.004 394.885 126.943 388.572 130.506C378.373 136.443 367.47 141.079 356.118 144.305C336.596 149.596 312.479 143.892 292.97 140.456C274.328 137.147 255.494 133.682 236.596 134.84C217.699 135.998 198.442 142.302 185.322 155.949C176.794 164.8 170.155 175.334 161.714 184.248C153.274 193.162 143.878 197.154 132.55 196.942C126.88 196.834 115.81 194.535 108.061 192.236C89.7273 186.801 72.3613 177.756 54.3154 171.444C24.6508 161.077 10.6523 163.221 4.08923 163.031C-11.3276 162.376 -26.6999 165.12 -40.9378 171.069C-48.0179 174.126 -54.9351 177.697 -62.346 179.842C-63.4972 180.187 -64.6728 180.525 -65.8279 180.739C37.8206 248.613 187.568 278.791 299.564 248.778Z" fill="#66ACE8"/>
<path opacity="0.5" d="M299.564 248.778C364.468 231.387 404.812 196.971 418.085 154.949C404.131 163.51 392.506 167.479 369.339 169.062C356.706 169.912 348.15 170.966 321.017 165.055C305.741 161.72 290.149 158.3 275.013 153.957C256.128 148.531 229.265 148.443 212.95 161.182L212.82 161.277C200.971 169.108 190.235 181.368 176.763 198.28C171.635 205.125 164.573 210.276 156.488 213.068C147.89 216.17 138.66 217.108 129.614 215.801C122.535 214.754 115.746 212.334 108.966 209.929L64.4696 194.085C45.4849 187.325 23.813 182.642 3.65007 185.84C-9.63434 187.953 -22.0305 193.337 -34.0382 199.661C66.9931 253.986 198.622 275.779 299.564 248.778Z" fill="#66ACE8"/>
<path d="M299.564 248.778C339.414 238.11 369.993 221.012 390.752 199.687C387.671 199.724 384.597 199.632 381.514 199.433C377.117 199.157 372.74 198.664 368.408 198C349.12 195.054 330.41 189.126 311.311 185.132C295.949 181.961 280.343 180.11 264.666 179.601C249.777 179.114 236.746 184.576 224.025 191.755C212.508 198.25 205.096 210.643 197.053 220.709C186.318 234.184 172.303 244.781 159.199 244.904C142.842 245.07 127.361 238.699 112.605 232.301C99.3581 226.569 85.957 220.142 72.514 215.481C45.4483 206.098 19.8893 205.092 -4.62035 214.171C91.5214 257.669 208.128 273.281 299.564 248.778Z" fill="#66ACE8"/>
<path d="M200.437 144.614C177.942 154.075 168.621 182.765 147.93 192.567C130.441 200.86 109.126 192.26 52.1994 170.706C52.1994 170.706 93.1908 188.461 116.094 195.67C133.764 201.241 143.733 201.206 158.197 191.083C173.708 180.22 179.465 158.052 200.437 144.614Z" fill="#FAFAFA"/>
<path d="M-67.7847 179.456C-65.7888 180.789 -63.7832 182.084 -61.7531 183.386C-56.4189 181.369 -51.2592 178.918 -46.326 176.057C-29.3448 166.83 -8.85141 162.74 1.97078 162.986C-12.0161 161.526 -29.0156 162.918 -51.3469 173.77C-56.5642 176.352 -62.0874 178.263 -67.7847 179.456Z" fill="#FAFAFA"/>
<path d="M240.519 183.862C240.519 183.862 258.651 175.022 286.975 177.709C314.788 180.352 362.518 199.69 384.671 199.6C384.671 199.6 368.26 202.797 330.454 192.667C284.611 180.383 274.93 175.292 240.519 183.862Z" fill="#FAFAFA"/>
<path d="M410.478 119.775C399.553 120.939 386.931 131.36 371.354 137.734C357.085 143.571 336.892 148.786 295.275 140.877C295.275 140.877 322.726 148.873 344.199 147.516C365.672 146.159 374.429 141.042 383.157 135.25C398.367 125.118 406.524 120.676 410.478 119.775Z" fill="#FAFAFA"/>
<path d="M71.7368 196.672C67.4412 195.142 49.8385 186.883 32.7942 184.931C15.7499 182.978 1.44663 183.576 -15.064 191.047C-15.064 191.047 3.61756 185.426 22.1903 186.455C39.1154 187.428 55.8074 190.871 71.7368 196.672Z" fill="#FAFAFA"/>
<path d="M244.565 150.66C237.606 151.41 225.122 152.587 211.442 163.444C197.763 174.3 191.249 182.803 181.042 195.531C170.835 208.259 160.984 211.266 160.984 211.266C160.984 211.266 173.078 202.52 181.059 191.078C189.039 179.636 198.409 168.278 211.107 160.256C223.805 152.234 232.448 150.564 244.565 150.66Z" fill="#FAFAFA"/>
<path d="M415.064 153.395C406.137 159.538 375.293 172.501 331.795 167.172C331.795 167.172 344.947 171.506 370.414 171.05C395.881 170.593 410.107 162.772 416.706 158.972C417.708 156.208 418.593 153.395 419.36 150.533C418.046 151.436 416.646 152.368 415.064 153.395Z" fill="#FAFAFA"/>
<path d="M27.3937 207.914C39.4088 204.245 55.5936 207.405 77.9022 215.565C100.211 223.726 139.953 245.263 161.387 244.784C161.387 244.784 152.705 248.261 126.979 239.486C103.583 231.531 73.7163 216.796 57.6614 212.468C35.4323 206.499 27.3937 207.914 27.3937 207.914Z" fill="#FAFAFA"/>
</svg>
