<svg width="360" height="78" viewBox="0 0 360 78" fill="none" xmlns="http://www.w3.org/2000/svg">
<path d="M103.758 45.0609C22.0299 15.1886 -42.8007 57.5077 -65 82.4012V150L463.904 140.343C485.241 121.029 519.51 70.4266 485.888 22.528C443.86 -37.3452 441.92 45.0609 381.788 10.2957C321.656 -24.4694 205.918 82.4012 103.758 45.0609Z" fill="#66ACE8" fill-opacity="0.11"/>
<path d="M113.758 56.0609C32.0299 26.1886 -32.8007 68.5077 -55 93.4012V161L473.904 151.343C495.241 132.029 529.51 81.4266 495.888 33.528C453.86 -26.3452 451.92 56.0609 391.788 21.2957C331.656 -13.4694 215.918 93.4012 113.758 56.0609Z" fill="#66ACE8"/>
</svg>
