<svg width="30" height="30" viewBox="0 0 30 30" fill="none" xmlns="http://www.w3.org/2000/svg">
<rect width="30" height="30" rx="4" fill="#66ACE8"/>
<g clip-path="url(#clip0_1308_321)">
<path fill-rule="evenodd" clip-rule="evenodd" d="M14.6486 7.06076C14.854 6.89641 15.146 6.89641 15.3514 7.06076L22.8514 13.0608C22.9848 13.1675 23.0625 13.3291 23.0625 13.5V22.5C23.0625 22.8107 22.8107 23.0625 22.5 23.0625H18C17.6893 23.0625 17.4375 22.8107 17.4375 22.5V16.3125H12.5625V22.5C12.5625 22.8107 12.3107 23.0625 12 23.0625H7.5C7.18934 23.0625 6.9375 22.8107 6.9375 22.5V13.5C6.9375 13.3291 7.01518 13.1675 7.14861 13.0608L14.6486 7.06076ZM8.0625 13.7704V21.9375H11.4375V15.75C11.4375 15.4393 11.6893 15.1875 12 15.1875H18C18.3107 15.1875 18.5625 15.4393 18.5625 15.75V21.9375H21.9375V13.7704L15 8.22035L8.0625 13.7704Z" fill="white"/>
<path fill-rule="evenodd" clip-rule="evenodd" d="M15 18.1875C15.3107 18.1875 15.5625 18.4393 15.5625 18.75V22.5C15.5625 22.8107 15.3107 23.0625 15 23.0625C14.6893 23.0625 14.4375 22.8107 14.4375 22.5V18.75C14.4375 18.4393 14.6893 18.1875 15 18.1875Z" fill="white"/>
</g>
<defs>
<clipPath id="clip0_1308_321">
<rect width="18" height="18" fill="white" transform="translate(6 6)"/>
</clipPath>
</defs>
</svg>
