<svg width="19" height="21" viewBox="0 0 19 21" fill="none" xmlns="http://www.w3.org/2000/svg">
<path d="M15.1667 6.66667C15.1667 5.16377 14.5696 3.72243 13.5069 2.65973C12.4442 1.59702 11.0029 1 9.5 1C7.99711 1 6.55577 1.59702 5.49306 2.65973C4.43036 3.72243 3.83333 5.16377 3.83333 6.66667C3.83333 13.2778 1 15.1667 1 15.1667H18C18 15.1667 15.1667 13.2778 15.1667 6.66667Z" stroke="white" stroke-width="1.5" stroke-linecap="round" stroke-linejoin="round"/>
<path d="M11.1339 18.9444C10.9678 19.2306 10.7295 19.4682 10.4427 19.6334C10.156 19.7986 9.83089 19.8855 9.49998 19.8855C9.16906 19.8855 8.84396 19.7986 8.55721 19.6334C8.27046 19.4682 8.03213 19.2306 7.86609 18.9444" stroke="white" stroke-width="1.5" stroke-linecap="round" stroke-linejoin="round"/>
</svg>
