<svg width="30" height="30" viewBox="0 0 30 30" fill="none" xmlns="http://www.w3.org/2000/svg">
<rect width="30" height="30" rx="4" fill="#66ACE8"/>
<path d="M21.75 21H23.25V22.5H6.75V21H8.25V8.25C8.25 8.05109 8.32902 7.86032 8.46967 7.71967C8.61032 7.57902 8.80109 7.5 9 7.5H21C21.1989 7.5 21.3897 7.57902 21.5303 7.71967C21.671 7.86032 21.75 8.05109 21.75 8.25V21ZM20.25 21V9H9.75V21H20.25ZM12 14.25H14.25V15.75H12V14.25ZM12 11.25H14.25V12.75H12V11.25ZM12 17.25H14.25V18.75H12V17.25ZM15.75 17.25H18V18.75H15.75V17.25ZM15.75 14.25H18V15.75H15.75V14.25ZM15.75 11.25H18V12.75H15.75V11.25Z" fill="white"/>
</svg>
