<svg width="320" height="140" viewBox="0 0 320 140" fill="none" xmlns="http://www.w3.org/2000/svg">
<rect width="320" height="140" rx="4" fill="#F5F5F5"/>
<rect x="150.619" y="40.6187" width="50" height="50" rx="4" fill="#FDFDFD"/>
<mask id="mask0_1372_2129" style="mask-type:alpha" maskUnits="userSpaceOnUse" x="150" y="40" width="51" height="51">
<rect x="150.619" y="40.6187" width="50" height="50" rx="4" fill="#FDFDFD"/>
</mask>
<g mask="url(#mask0_1372_2129)">
<path d="M169.619 64.1188C165.219 59.7188 153.119 75.9521 147.619 84.6188L155.119 99.1188L204.619 101.119L206.619 87.6188C205.285 83.6188 201.519 74.2188 197.119 68.6188C191.619 61.6188 188.619 71.6188 184.119 75.6188C179.619 79.6188 175.119 69.6188 169.619 64.1188Z" fill="#DCDCDC"/>
</g>
<circle cx="190.619" cy="49.6187" r="2" fill="#E9E9E9"/>
<rect x="120" y="51.9409" width="50" height="50" rx="4" transform="rotate(-15 120 51.9409)" fill="#FDFDFD"/>
<mask id="mask1_1372_2129" style="mask-type:alpha" maskUnits="userSpaceOnUse" x="120" y="39" width="61" height="61">
<rect x="120" y="51.9409" width="50" height="50" rx="4" transform="rotate(-15 120 51.9409)" fill="#FDFDFD"/>
</mask>
<g mask="url(#mask1_1372_2129)">
<path d="M144.435 69.7227C139.046 66.6114 131.56 85.4233 128.49 95.2182L139.488 107.283L187.819 96.4033L186.256 82.8457C183.933 79.327 177.862 71.2222 172.162 66.9518C165.038 61.6139 164.729 72.0496 161.417 77.078C158.106 82.1064 151.171 73.6118 144.435 69.7227Z" fill="#F0F0F0"/>
</g>
<circle cx="160.966" cy="50.2814" r="2" transform="rotate(-15 160.966 50.2814)" fill="#E9E9E9"/>
<rect x="112.5" y="94.5" width="95" height="27" rx="13.5" fill="#FCB59E" fill-opacity="0.2" stroke="#FCB59E"/>
<path d="M127.164 108.076H124.608V110.668H123.588V108.076H121.044V107.152H123.588V104.548H124.608V107.152H127.164V108.076ZM137.259 110.14H133.611L132.939 112H131.787L134.811 103.684H136.071L139.083 112H137.931L137.259 110.14ZM136.947 109.252L135.435 105.028L133.923 109.252H136.947ZM139.993 108.688C139.993 108.016 140.129 107.428 140.401 106.924C140.673 106.412 141.045 106.016 141.517 105.736C141.997 105.456 142.533 105.316 143.125 105.316C143.637 105.316 144.113 105.436 144.553 105.676C144.993 105.908 145.329 106.216 145.561 106.6V103.12H146.665V112H145.561V110.764C145.345 111.156 145.025 111.48 144.601 111.736C144.177 111.984 143.681 112.108 143.113 112.108C142.529 112.108 141.997 111.964 141.517 111.676C141.045 111.388 140.673 110.984 140.401 110.464C140.129 109.944 139.993 109.352 139.993 108.688ZM145.561 108.7C145.561 108.204 145.461 107.772 145.261 107.404C145.061 107.036 144.789 106.756 144.445 106.564C144.109 106.364 143.737 106.264 143.329 106.264C142.921 106.264 142.549 106.36 142.213 106.552C141.877 106.744 141.609 107.024 141.409 107.392C141.209 107.76 141.109 108.192 141.109 108.688C141.109 109.192 141.209 109.632 141.409 110.008C141.609 110.376 141.877 110.66 142.213 110.86C142.549 111.052 142.921 111.148 143.329 111.148C143.737 111.148 144.109 111.052 144.445 110.86C144.789 110.66 145.061 110.376 145.261 110.008C145.461 109.632 145.561 109.196 145.561 108.7ZM148.102 108.688C148.102 108.016 148.238 107.428 148.51 106.924C148.782 106.412 149.154 106.016 149.626 105.736C150.106 105.456 150.642 105.316 151.234 105.316C151.746 105.316 152.222 105.436 152.662 105.676C153.102 105.908 153.438 106.216 153.67 106.6V103.12H154.774V112H153.67V110.764C153.454 111.156 153.134 111.48 152.71 111.736C152.286 111.984 151.79 112.108 151.222 112.108C150.638 112.108 150.106 111.964 149.626 111.676C149.154 111.388 148.782 110.984 148.51 110.464C148.238 109.944 148.102 109.352 148.102 108.688ZM153.67 108.7C153.67 108.204 153.57 107.772 153.37 107.404C153.17 107.036 152.898 106.756 152.554 106.564C152.218 106.364 151.846 106.264 151.438 106.264C151.03 106.264 150.658 106.36 150.322 106.552C149.986 106.744 149.718 107.024 149.518 107.392C149.318 107.76 149.218 108.192 149.218 108.688C149.218 109.192 149.318 109.632 149.518 110.008C149.718 110.376 149.986 110.66 150.322 110.86C150.658 111.052 151.03 111.148 151.438 111.148C151.846 111.148 152.218 111.052 152.554 110.86C152.898 110.66 153.17 110.376 153.37 110.008C153.57 109.632 153.67 109.196 153.67 108.7ZM160.911 106.636C161.127 106.26 161.447 105.948 161.871 105.7C162.303 105.444 162.803 105.316 163.371 105.316C163.955 105.316 164.483 105.456 164.955 105.736C165.435 106.016 165.811 106.412 166.083 106.924C166.355 107.428 166.491 108.016 166.491 108.688C166.491 109.352 166.355 109.944 166.083 110.464C165.811 110.984 165.435 111.388 164.955 111.676C164.483 111.964 163.955 112.108 163.371 112.108C162.811 112.108 162.315 111.984 161.883 111.736C161.459 111.48 161.135 111.164 160.911 110.788V115.12H159.819V105.424H160.911V106.636ZM165.375 108.688C165.375 108.192 165.275 107.76 165.075 107.392C164.875 107.024 164.603 106.744 164.259 106.552C163.923 106.36 163.551 106.264 163.143 106.264C162.743 106.264 162.371 106.364 162.027 106.564C161.691 106.756 161.419 107.04 161.211 107.416C161.011 107.784 160.911 108.212 160.911 108.7C160.911 109.196 161.011 109.632 161.211 110.008C161.419 110.376 161.691 110.66 162.027 110.86C162.371 111.052 162.743 111.148 163.143 111.148C163.551 111.148 163.923 111.052 164.259 110.86C164.603 110.66 164.875 110.376 165.075 110.008C165.275 109.632 165.375 109.192 165.375 108.688ZM171.192 105.304C171.688 105.304 172.136 105.412 172.536 105.628C172.936 105.836 173.248 106.152 173.472 106.576C173.704 107 173.82 107.516 173.82 108.124V112H172.74V108.28C172.74 107.624 172.576 107.124 172.248 106.78C171.92 106.428 171.472 106.252 170.904 106.252C170.328 106.252 169.868 106.432 169.524 106.792C169.188 107.152 169.02 107.676 169.02 108.364V112H167.928V103.12H169.02V106.36C169.236 106.024 169.532 105.764 169.908 105.58C170.292 105.396 170.72 105.304 171.192 105.304ZM178.472 112.108C177.856 112.108 177.296 111.968 176.792 111.688C176.296 111.408 175.904 111.012 175.616 110.5C175.336 109.98 175.196 109.38 175.196 108.7C175.196 108.028 175.34 107.436 175.628 106.924C175.924 106.404 176.324 106.008 176.828 105.736C177.332 105.456 177.896 105.316 178.52 105.316C179.144 105.316 179.708 105.456 180.212 105.736C180.716 106.008 181.112 106.4 181.4 106.912C181.696 107.424 181.844 108.02 181.844 108.7C181.844 109.38 181.692 109.98 181.388 110.5C181.092 111.012 180.688 111.408 180.176 111.688C179.664 111.968 179.096 112.108 178.472 112.108ZM178.472 111.148C178.864 111.148 179.232 111.056 179.576 110.872C179.92 110.688 180.196 110.412 180.404 110.044C180.62 109.676 180.728 109.228 180.728 108.7C180.728 108.172 180.624 107.724 180.416 107.356C180.208 106.988 179.936 106.716 179.6 106.54C179.264 106.356 178.9 106.264 178.508 106.264C178.108 106.264 177.74 106.356 177.404 106.54C177.076 106.716 176.812 106.988 176.612 107.356C176.412 107.724 176.312 108.172 176.312 108.7C176.312 109.236 176.408 109.688 176.6 110.056C176.8 110.424 177.064 110.7 177.392 110.884C177.72 111.06 178.08 111.148 178.472 111.148ZM184.611 106.324V110.2C184.611 110.52 184.679 110.748 184.815 110.884C184.951 111.012 185.187 111.076 185.523 111.076H186.327V112H185.343C184.735 112 184.279 111.86 183.975 111.58C183.671 111.3 183.519 110.84 183.519 110.2V106.324H182.667V105.424H183.519V103.768H184.611V105.424H186.327V106.324H184.611ZM190.519 112.108C189.903 112.108 189.343 111.968 188.839 111.688C188.343 111.408 187.951 111.012 187.663 110.5C187.383 109.98 187.243 109.38 187.243 108.7C187.243 108.028 187.387 107.436 187.675 106.924C187.971 106.404 188.371 106.008 188.875 105.736C189.379 105.456 189.943 105.316 190.567 105.316C191.191 105.316 191.755 105.456 192.259 105.736C192.763 106.008 193.159 106.4 193.447 106.912C193.743 107.424 193.891 108.02 193.891 108.7C193.891 109.38 193.739 109.98 193.435 110.5C193.139 111.012 192.735 111.408 192.223 111.688C191.711 111.968 191.143 112.108 190.519 112.108ZM190.519 111.148C190.911 111.148 191.279 111.056 191.623 110.872C191.967 110.688 192.243 110.412 192.451 110.044C192.667 109.676 192.775 109.228 192.775 108.7C192.775 108.172 192.671 107.724 192.463 107.356C192.255 106.988 191.983 106.716 191.647 106.54C191.311 106.356 190.947 106.264 190.555 106.264C190.155 106.264 189.787 106.356 189.451 106.54C189.123 106.716 188.859 106.988 188.659 107.356C188.459 107.724 188.359 108.172 188.359 108.7C188.359 109.236 188.455 109.688 188.647 110.056C188.847 110.424 189.111 110.7 189.439 110.884C189.767 111.06 190.127 111.148 190.519 111.148ZM197.654 112.108C197.15 112.108 196.698 112.024 196.298 111.856C195.898 111.68 195.582 111.44 195.35 111.136C195.118 110.824 194.99 110.468 194.966 110.068H196.094C196.126 110.396 196.278 110.664 196.55 110.872C196.83 111.08 197.194 111.184 197.642 111.184C198.058 111.184 198.386 111.092 198.626 110.908C198.866 110.724 198.986 110.492 198.986 110.212C198.986 109.924 198.858 109.712 198.602 109.576C198.346 109.432 197.95 109.292 197.414 109.156C196.926 109.028 196.526 108.9 196.214 108.772C195.91 108.636 195.646 108.44 195.422 108.184C195.206 107.92 195.098 107.576 195.098 107.152C195.098 106.816 195.198 106.508 195.398 106.228C195.598 105.948 195.882 105.728 196.25 105.568C196.618 105.4 197.038 105.316 197.51 105.316C198.238 105.316 198.826 105.5 199.274 105.868C199.722 106.236 199.962 106.74 199.994 107.38H198.902C198.878 107.036 198.738 106.76 198.482 106.552C198.234 106.344 197.898 106.24 197.474 106.24C197.082 106.24 196.77 106.324 196.538 106.492C196.306 106.66 196.19 106.88 196.19 107.152C196.19 107.368 196.258 107.548 196.394 107.692C196.538 107.828 196.714 107.94 196.922 108.028C197.138 108.108 197.434 108.2 197.81 108.304C198.282 108.432 198.666 108.56 198.962 108.688C199.258 108.808 199.51 108.992 199.718 109.24C199.934 109.488 200.046 109.812 200.054 110.212C200.054 110.572 199.954 110.896 199.754 111.184C199.554 111.472 199.27 111.7 198.902 111.868C198.542 112.028 198.126 112.108 197.654 112.108Z" fill="#2F2F2F"/>
</svg>
