<svg width="320" height="320" viewBox="0 0 320 320" fill="none" xmlns="http://www.w3.org/2000/svg">
<g filter="url(#filter0_f_1353_481)">
<circle cx="160" cy="160" r="60" fill="#FFF5E5"/>
</g>
<rect x="107.551" y="153.88" width="94" height="38" rx="4" transform="rotate(-15 107.551 153.88)" fill="#FFF5E6" stroke="white" stroke-width="4"/>
<rect x="114.899" y="158.122" width="26" height="26" rx="4" transform="rotate(-15 114.899 158.122)" fill="#FEE2B9"/>
<rect x="133.208" y="160.192" width="2.5" height="4.16667" rx="0.5" transform="rotate(-15 133.208 160.192)" fill="#FCBC5B"/>
<path fill-rule="evenodd" clip-rule="evenodd" d="M128.474 158.626C128.84 158.528 129.23 158.579 129.558 158.768L140.056 164.829C140.222 164.921 140.368 165.045 140.485 165.194C140.603 165.343 140.689 165.514 140.74 165.697C140.791 165.88 140.804 166.071 140.78 166.259C140.757 166.447 140.695 166.629 140.6 166.793C140.506 166.957 140.379 167.101 140.228 167.216C140.077 167.331 139.905 167.414 139.721 167.462C139.537 167.509 139.346 167.52 139.158 167.492C138.971 167.465 138.79 167.401 138.628 167.303L138.115 167.007L139.811 173.335C139.909 173.701 139.857 174.091 139.668 174.419C139.478 174.748 139.166 174.987 138.8 175.085L127.761 178.043C127.395 178.141 127.005 178.09 126.677 177.9C126.349 177.711 126.11 177.399 126.012 177.033L124.316 170.705L124.02 171.217C123.827 171.538 123.516 171.771 123.153 171.865C122.791 171.959 122.406 171.906 122.081 171.719C121.757 171.532 121.519 171.224 121.419 170.863C121.319 170.502 121.364 170.117 121.546 169.789L127.607 159.291C127.796 158.963 128.108 158.724 128.474 158.626ZM133.812 172.108L130.593 172.971L131.671 176.995L134.891 176.133L133.812 172.108Z" fill="#FCBC5B"/>
<rect x="150.259" y="154.859" width="40" height="4" rx="2" transform="rotate(-15 150.259 154.859)" fill="#FEE2B9"/>
<rect x="152.33" y="162.586" width="30" height="4" rx="2" transform="rotate(-15 152.33 162.586)" fill="#FEE2B9"/>
<rect x="110.867" y="141.068" width="94" height="38" rx="4" fill="#FFF5E6" stroke="white" stroke-width="4"/>
<rect x="116.867" y="147.068" width="26" height="26" rx="4" fill="#FEE2B9"/>
<rect x="134.016" y="153.805" width="2.5" height="4.16667" rx="0.5" fill="#FCBC5B"/>
<path fill-rule="evenodd" clip-rule="evenodd" d="M129.849 151.068C130.228 151.068 130.591 151.218 130.859 151.486L139.431 160.057C139.567 160.189 139.676 160.347 139.751 160.521C139.826 160.695 139.865 160.883 139.867 161.072C139.868 161.262 139.832 161.45 139.76 161.626C139.688 161.801 139.582 161.961 139.448 162.095C139.314 162.229 139.155 162.335 138.979 162.407C138.804 162.479 138.615 162.515 138.426 162.513C138.236 162.512 138.049 162.472 137.874 162.397C137.7 162.323 137.542 162.214 137.411 162.077L136.992 161.659V168.21C136.992 168.589 136.841 168.952 136.574 169.22C136.306 169.488 135.942 169.639 135.563 169.639H124.135C123.756 169.639 123.393 169.488 123.125 169.22C122.857 168.952 122.706 168.589 122.706 168.21V161.659L122.288 162.077C122.018 162.338 121.657 162.482 121.283 162.478C120.908 162.475 120.55 162.325 120.285 162.06C120.02 161.795 119.87 161.437 119.867 161.062C119.863 160.688 120.007 160.327 120.268 160.057L128.839 151.486C129.107 151.218 129.47 151.068 129.849 151.068ZM131.516 165.472H128.183V169.639H131.516V165.472Z" fill="#FCBC5B"/>
<rect x="151.867" y="153.068" width="40" height="4" rx="2" fill="#FEE2B9"/>
<rect x="151.867" y="161.068" width="30" height="4" rx="2" fill="#FEE2B9"/>
<circle cx="196.867" cy="173.068" r="13" fill="#63D0FF"/>
<path d="M203.702 168.764C203.333 168.395 202.895 168.102 202.413 167.902C201.931 167.703 201.415 167.6 200.893 167.6C200.371 167.6 199.854 167.703 199.372 167.902C198.89 168.102 198.452 168.395 198.083 168.764L197.318 169.529L196.552 168.764C195.807 168.019 194.796 167.6 193.743 167.6C192.689 167.6 191.678 168.019 190.933 168.764C190.188 169.509 189.77 170.52 189.77 171.573C189.77 172.627 190.188 173.638 190.933 174.383L191.699 175.148L197.318 180.767L202.937 175.148L203.702 174.383C204.071 174.014 204.364 173.576 204.564 173.094C204.764 172.612 204.866 172.095 204.866 171.573C204.866 171.051 204.764 170.535 204.564 170.053C204.364 169.571 204.071 169.133 203.702 168.764Z" fill="white"/>
<defs>
<filter id="filter0_f_1353_481" x="0" y="0" width="320" height="320" filterUnits="userSpaceOnUse" color-interpolation-filters="sRGB">
<feFlood flood-opacity="0" result="BackgroundImageFix"/>
<feBlend mode="normal" in="SourceGraphic" in2="BackgroundImageFix" result="shape"/>
<feGaussianBlur stdDeviation="50" result="effect1_foregroundBlur_1353_481"/>
</filter>
</defs>
</svg>
