<svg width="23" height="26" viewBox="0 0 23 26" fill="none" xmlns="http://www.w3.org/2000/svg">
<path d="M19.9091 10.3009H12.4542C12.3229 10.3009 12.193 10.327 12.0719 10.3778C11.9509 10.4286 11.8411 10.503 11.7492 10.5966C11.6572 10.6903 11.5848 10.8013 11.5362 10.9233C11.4876 11.0452 11.4638 11.1756 11.4662 11.3069V14.0374C11.4662 14.2994 11.5703 14.5507 11.7556 14.736C11.9409 14.9213 12.1922 15.0254 12.4542 15.0254H17.5864C17.6004 15.7737 17.4565 16.5166 17.1639 17.2056C16.8713 17.8945 16.4367 18.514 15.8885 19.0236C15.3402 19.5332 14.6907 19.9214 13.9822 20.1629C13.2738 20.4044 12.5223 20.4938 11.777 20.4252C7.43696 20.4252 5.34599 16.7463 5.34599 12.5661C5.34599 8.3842 7.59145 4.70703 11.777 4.70703C13.6234 4.64557 15.4327 5.23428 16.8894 6.37047C17.0058 6.44667 17.1375 6.49635 17.2751 6.516C17.4128 6.53564 17.5531 6.52477 17.6862 6.48414C17.8192 6.44352 17.9416 6.37414 18.0448 6.28092C18.1481 6.18771 18.2295 6.07293 18.2834 5.94473L19.505 3.15857C19.6056 2.95279 19.6315 2.71844 19.5785 2.49562C19.5254 2.2728 19.3965 2.07535 19.2139 1.93704C16.9925 0.610658 14.4408 -0.0594944 11.8542 0.00414588C4.80169 -0.0156142 0 5.46151 0 12.5661C0 19.669 4.82324 25.1479 11.777 25.1479C18.7289 25.1479 22.9324 20.1917 22.9324 13.5344C22.9324 11.4039 22.0809 10.3009 19.9109 10.3009H19.9091Z" fill="#3E3E3E"/>
<mask id="mask0_1042_594" style="mask-type:alpha" maskUnits="userSpaceOnUse" x="0" y="0" width="23" height="26">
<path d="M19.9091 10.3009H12.4542C12.3229 10.3009 12.193 10.327 12.0719 10.3778C11.9509 10.4286 11.8411 10.503 11.7492 10.5966C11.6572 10.6903 11.5848 10.8013 11.5362 10.9233C11.4876 11.0452 11.4638 11.1756 11.4662 11.3069V14.0374C11.4662 14.2994 11.5703 14.5507 11.7556 14.736C11.9409 14.9213 12.1922 15.0254 12.4542 15.0254H17.5864C17.6004 15.7737 17.4565 16.5166 17.1639 17.2056C16.8713 17.8945 16.4367 18.514 15.8885 19.0236C15.3402 19.5332 14.6907 19.9214 13.9822 20.1629C13.2738 20.4044 12.5223 20.4938 11.777 20.4252C7.43696 20.4252 5.34599 16.7463 5.34599 12.5661C5.34599 8.3842 7.59145 4.70703 11.777 4.70703C13.6234 4.64557 15.4327 5.23428 16.8894 6.37047C17.0058 6.44667 17.1375 6.49635 17.2751 6.516C17.4128 6.53564 17.5531 6.52477 17.6862 6.48414C17.8192 6.44352 17.9416 6.37414 18.0448 6.28092C18.1481 6.18771 18.2295 6.07293 18.2834 5.94473L19.505 3.15857C19.6056 2.95279 19.6315 2.71844 19.5785 2.49562C19.5254 2.2728 19.3965 2.07535 19.2139 1.93704C16.9925 0.610658 14.4408 -0.0594944 11.8542 0.00414588C4.80169 -0.0156142 0 5.46151 0 12.5661C0 19.669 4.82324 25.1479 11.777 25.1479C18.7289 25.1479 22.9324 20.1917 22.9324 13.5344C22.9324 11.4039 22.0809 10.3009 19.9109 10.3009H19.9091Z" fill="#3E3E3E"/>
</mask>
<g mask="url(#mask0_1042_594)">
<rect x="-2.87341" y="3.03821" width="21.6032" height="18.424" transform="rotate(-45 -2.87341 3.03821)" fill="#EA4335"/>
<rect x="-10.4414" y="8.80981" width="9.87538" height="15.4424" transform="rotate(-45 -10.4414 8.80981)" fill="#FBBC05"/>
<rect x="-0.466919" y="20.5283" width="12.1793" height="18.3127" transform="rotate(-45.698 -0.466919 20.5283)" fill="#34A853"/>
<path d="M7.15967 13.2037L15.2906 6.10581L29.6954 18.1789L21.1889 26.8953L7.15967 13.2037Z" fill="#4285F4"/>
<path d="M7.15967 13.2037L15.2906 6.10581L29.6954 18.1789L21.1889 26.8953L7.15967 13.2037Z" fill="#4285F4"/>
</g>
</svg>
