<svg width="136" height="136" viewBox="0 0 136 136" fill="none" xmlns="http://www.w3.org/2000/svg">
<circle cx="68" cy="68" r="68" fill="white"/>
<mask id="mask0_972_225" style="mask-type:alpha" maskUnits="userSpaceOnUse" x="41" y="14" width="55" height="55">
<rect x="41" y="14" width="54.5772" height="54.5772" fill="#D9D9D9"/>
</mask>
<g mask="url(#mask0_972_225)">
<rect x="68.238" y="15.4923" width="11.4231" height="50.7695" transform="rotate(45 68.238 15.4923)" fill="#2D4356"/>
<rect x="85.4233" y="24.7885" width="5.71157" height="18.4039" fill="#2D4356"/>
<rect x="60.6731" y="23.9813" width="11.4231" height="50.7695" transform="rotate(-45 60.6731 23.9813)" fill="#2D4356"/>
</g>
<rect x="60.1053" y="51.9268" width="6.54659" height="6.54659" fill="#FEB39B"/>
<rect x="69.9252" y="51.9266" width="6.54659" height="6.54659" fill="#FEB39B"/>
<rect x="60.1053" y="61.7465" width="6.54659" height="6.54659" fill="#FEB39B"/>
<rect x="69.9252" y="61.7465" width="6.54659" height="6.54659" fill="#FEB39B"/>
<path d="M23.8877 82.373L20.9141 91H19.1162L22.8623 81.0469H24.0107L23.8877 82.373ZM26.376 91L23.3955 82.373L23.2656 81.0469H24.4209L28.1807 91H26.376ZM26.2324 87.3086V88.6689H20.8184V87.3086H26.2324ZM33.8682 83.6035H35.3652V90.7949C35.3652 91.4603 35.224 92.0254 34.9414 92.4902C34.6589 92.9551 34.2646 93.3083 33.7588 93.5498C33.2529 93.7959 32.6673 93.9189 32.002 93.9189C31.7194 93.9189 31.4049 93.8779 31.0586 93.7959C30.7168 93.7139 30.3841 93.5817 30.0605 93.3994C29.7415 93.2217 29.4749 92.987 29.2607 92.6953L30.0332 91.7246C30.2975 92.0391 30.5892 92.2692 30.9082 92.415C31.2272 92.5609 31.5622 92.6338 31.9131 92.6338C32.2913 92.6338 32.6126 92.5632 32.877 92.4219C33.1458 92.2852 33.3532 92.0824 33.499 91.8135C33.6449 91.5446 33.7178 91.2165 33.7178 90.8291V85.2783L33.8682 83.6035ZM28.8438 87.3838V87.2402C28.8438 86.6797 28.9121 86.1693 29.0488 85.709C29.1855 85.2441 29.3815 84.8454 29.6367 84.5127C29.8919 84.1755 30.2018 83.918 30.5664 83.7402C30.931 83.5579 31.3434 83.4668 31.8037 83.4668C32.2822 83.4668 32.6901 83.5534 33.0273 83.7266C33.3691 83.8997 33.654 84.1481 33.8818 84.4717C34.1097 84.7907 34.2874 85.1735 34.415 85.6201C34.5472 86.0622 34.6452 86.5544 34.709 87.0967V87.5547C34.6497 88.0833 34.5495 88.5664 34.4082 89.0039C34.2669 89.4414 34.0801 89.8197 33.8477 90.1387C33.6152 90.4577 33.3281 90.7038 32.9863 90.877C32.6491 91.0501 32.2503 91.1367 31.79 91.1367C31.3389 91.1367 30.931 91.0433 30.5664 90.8564C30.2064 90.6696 29.8965 90.4076 29.6367 90.0703C29.3815 89.7331 29.1855 89.3366 29.0488 88.8809C28.9121 88.4206 28.8438 87.9215 28.8438 87.3838ZM30.4912 87.2402V87.3838C30.4912 87.721 30.5231 88.0355 30.5869 88.3271C30.6553 88.6188 30.7578 88.8763 30.8945 89.0996C31.0358 89.3184 31.2135 89.4915 31.4277 89.6191C31.6465 89.7422 31.904 89.8037 32.2002 89.8037C32.5876 89.8037 32.9043 89.7217 33.1504 89.5576C33.401 89.3936 33.5924 89.1725 33.7246 88.8945C33.8613 88.612 33.957 88.2975 34.0117 87.9512V86.7139C33.9844 86.445 33.9274 86.1943 33.8408 85.9619C33.7588 85.7295 33.6471 85.5267 33.5059 85.3535C33.3646 85.1758 33.1868 85.0391 32.9727 84.9434C32.7585 84.8431 32.5055 84.793 32.2139 84.793C31.9176 84.793 31.6602 84.8568 31.4414 84.9844C31.2227 85.112 31.0426 85.2874 30.9014 85.5107C30.7646 85.734 30.6621 85.9938 30.5938 86.29C30.5254 86.5863 30.4912 86.903 30.4912 87.2402ZM38.7285 85.0117V91H37.0811V83.6035H38.6533L38.7285 85.0117ZM40.9912 83.5557L40.9775 85.0869C40.8773 85.0687 40.7679 85.055 40.6494 85.0459C40.5355 85.0368 40.4215 85.0322 40.3076 85.0322C40.0251 85.0322 39.7767 85.0732 39.5625 85.1553C39.3483 85.2327 39.1683 85.3467 39.0225 85.4971C38.8812 85.6429 38.7718 85.8206 38.6943 86.0303C38.6169 86.2399 38.5713 86.4746 38.5576 86.7344L38.1816 86.7617C38.1816 86.2969 38.2272 85.8662 38.3184 85.4697C38.4095 85.0732 38.5462 84.7246 38.7285 84.4238C38.9154 84.123 39.1478 83.8883 39.4258 83.7197C39.7083 83.5511 40.0342 83.4668 40.4033 83.4668C40.5036 83.4668 40.6107 83.4759 40.7246 83.4941C40.8431 83.5124 40.932 83.5329 40.9912 83.5557ZM41.5312 87.3838V87.2266C41.5312 86.6934 41.6087 86.1989 41.7637 85.7432C41.9186 85.2829 42.1419 84.8841 42.4336 84.5469C42.7298 84.2051 43.0898 83.9408 43.5137 83.7539C43.9421 83.5625 44.4251 83.4668 44.9629 83.4668C45.5052 83.4668 45.9883 83.5625 46.4121 83.7539C46.8405 83.9408 47.2028 84.2051 47.499 84.5469C47.7952 84.8841 48.0208 85.2829 48.1758 85.7432C48.3307 86.1989 48.4082 86.6934 48.4082 87.2266V87.3838C48.4082 87.917 48.3307 88.4115 48.1758 88.8672C48.0208 89.3229 47.7952 89.7217 47.499 90.0635C47.2028 90.4007 46.8428 90.665 46.4189 90.8564C45.9951 91.0433 45.5143 91.1367 44.9766 91.1367C44.4342 91.1367 43.9489 91.0433 43.5205 90.8564C43.0967 90.665 42.7367 90.4007 42.4404 90.0635C42.1442 89.7217 41.9186 89.3229 41.7637 88.8672C41.6087 88.4115 41.5312 87.917 41.5312 87.3838ZM43.1787 87.2266V87.3838C43.1787 87.7165 43.2129 88.0309 43.2812 88.3271C43.3496 88.6234 43.4567 88.8831 43.6025 89.1064C43.7484 89.3298 43.9352 89.5052 44.1631 89.6328C44.391 89.7604 44.6621 89.8242 44.9766 89.8242C45.2819 89.8242 45.5462 89.7604 45.7695 89.6328C45.9974 89.5052 46.1842 89.3298 46.3301 89.1064C46.4759 88.8831 46.583 88.6234 46.6514 88.3271C46.7243 88.0309 46.7607 87.7165 46.7607 87.3838V87.2266C46.7607 86.8984 46.7243 86.5885 46.6514 86.2969C46.583 86.0007 46.4736 85.7386 46.3232 85.5107C46.1774 85.2829 45.9906 85.1051 45.7627 84.9775C45.5394 84.8454 45.2728 84.7793 44.9629 84.7793C44.653 84.7793 44.3841 84.8454 44.1562 84.9775C43.9329 85.1051 43.7484 85.2829 43.6025 85.5107C43.4567 85.7386 43.3496 86.0007 43.2812 86.2969C43.2129 86.5885 43.1787 86.8984 43.1787 87.2266ZM53.4395 81.0469H56.96C57.7165 81.0469 58.3613 81.1608 58.8945 81.3887C59.4277 81.6165 59.8356 81.9538 60.1182 82.4004C60.4053 82.8424 60.5488 83.3893 60.5488 84.041C60.5488 84.5378 60.4577 84.9753 60.2754 85.3535C60.0931 85.7318 59.8356 86.0508 59.5029 86.3105C59.1702 86.5658 58.7738 86.764 58.3135 86.9053L57.7939 87.1582H54.6289L54.6152 85.7979H56.9873C57.3975 85.7979 57.7393 85.7249 58.0127 85.5791C58.2861 85.4333 58.4912 85.235 58.6279 84.9844C58.7692 84.7292 58.8398 84.4421 58.8398 84.123C58.8398 83.7767 58.7715 83.4759 58.6348 83.2207C58.5026 82.9609 58.2975 82.7627 58.0195 82.626C57.7415 82.4847 57.3883 82.4141 56.96 82.4141H55.1553V91H53.4395V81.0469ZM59.1201 91L56.7822 86.5293L58.5801 86.5225L60.9521 90.9111V91H59.1201ZM65.3545 91.1367C64.8076 91.1367 64.3132 91.0479 63.8711 90.8701C63.4336 90.6878 63.0599 90.4349 62.75 90.1113C62.4447 89.7878 62.21 89.4072 62.0459 88.9697C61.8818 88.5322 61.7998 88.0605 61.7998 87.5547V87.2812C61.7998 86.7025 61.8841 86.1784 62.0527 85.709C62.2214 85.2396 62.4561 84.8385 62.7568 84.5059C63.0576 84.1686 63.4131 83.9111 63.8232 83.7334C64.2334 83.5557 64.6777 83.4668 65.1562 83.4668C65.6849 83.4668 66.1475 83.5557 66.5439 83.7334C66.9404 83.9111 67.2686 84.1618 67.5283 84.4854C67.7926 84.8044 67.9886 85.1849 68.1162 85.627C68.2484 86.069 68.3145 86.5566 68.3145 87.0898V87.7939H62.5996V86.6113H66.6875V86.4814C66.6784 86.1852 66.6191 85.9072 66.5098 85.6475C66.4049 85.3877 66.2432 85.1781 66.0244 85.0186C65.8057 84.859 65.514 84.7793 65.1494 84.7793C64.876 84.7793 64.6322 84.8385 64.418 84.957C64.2083 85.071 64.0329 85.2373 63.8916 85.4561C63.7503 85.6748 63.641 85.9391 63.5635 86.249C63.4906 86.5544 63.4541 86.8984 63.4541 87.2812V87.5547C63.4541 87.8783 63.4974 88.179 63.584 88.457C63.6751 88.7305 63.8073 88.9697 63.9805 89.1748C64.1536 89.3799 64.3633 89.5417 64.6094 89.6602C64.8555 89.7741 65.1357 89.8311 65.4502 89.8311C65.8467 89.8311 66.1999 89.7513 66.5098 89.5918C66.8197 89.4323 67.0885 89.2067 67.3164 88.915L68.1846 89.7559C68.0251 89.9883 67.8177 90.2116 67.5625 90.4258C67.3073 90.6354 66.9951 90.8063 66.626 90.9385C66.2614 91.0706 65.8376 91.1367 65.3545 91.1367ZM73.7695 89.5166V85.9893C73.7695 85.7249 73.7217 85.4971 73.626 85.3057C73.5303 85.1143 73.3844 84.9661 73.1885 84.8613C72.9971 84.7565 72.7555 84.7041 72.4639 84.7041C72.195 84.7041 71.9626 84.7497 71.7666 84.8408C71.5706 84.932 71.418 85.055 71.3086 85.21C71.1992 85.3649 71.1445 85.5404 71.1445 85.7363H69.5039C69.5039 85.4447 69.5745 85.1621 69.7158 84.8887C69.8571 84.6152 70.0622 84.3714 70.3311 84.1572C70.5999 83.943 70.9212 83.7744 71.2949 83.6514C71.6686 83.5283 72.0879 83.4668 72.5527 83.4668C73.1087 83.4668 73.6009 83.5602 74.0293 83.7471C74.4622 83.9339 74.8018 84.2165 75.0479 84.5947C75.2985 84.9684 75.4238 85.4378 75.4238 86.0029V89.291C75.4238 89.6283 75.4466 89.9313 75.4922 90.2002C75.5423 90.4645 75.613 90.6947 75.7041 90.8906V91H74.0156C73.9382 90.8223 73.8766 90.5967 73.8311 90.3232C73.79 90.0452 73.7695 89.7764 73.7695 89.5166ZM74.0088 86.502L74.0225 87.5205H72.8398C72.5345 87.5205 72.2656 87.5501 72.0332 87.6094C71.8008 87.6641 71.6071 87.7461 71.4521 87.8555C71.2972 87.9648 71.181 88.097 71.1035 88.252C71.026 88.4069 70.9873 88.5824 70.9873 88.7783C70.9873 88.9743 71.0329 89.1543 71.124 89.3184C71.2152 89.4779 71.3473 89.6032 71.5205 89.6943C71.6982 89.7855 71.9124 89.8311 72.1631 89.8311C72.5003 89.8311 72.7943 89.7627 73.0449 89.626C73.3001 89.4847 73.5007 89.3138 73.6465 89.1133C73.7923 88.9082 73.8698 88.7145 73.8789 88.5322L74.4121 89.2637C74.3574 89.4505 74.264 89.651 74.1318 89.8652C73.9997 90.0794 73.8265 90.2845 73.6123 90.4805C73.4027 90.6719 73.1497 90.8291 72.8535 90.9521C72.5618 91.0752 72.2246 91.1367 71.8418 91.1367C71.3587 91.1367 70.9281 91.041 70.5498 90.8496C70.1715 90.6536 69.8753 90.3916 69.6611 90.0635C69.4469 89.7308 69.3398 89.3548 69.3398 88.9355C69.3398 88.5436 69.4128 88.1973 69.5586 87.8965C69.709 87.5911 69.9277 87.3359 70.2148 87.1309C70.5065 86.9258 70.862 86.7708 71.2812 86.666C71.7005 86.5566 72.179 86.502 72.7168 86.502H74.0088ZM78.9102 80.5V91H77.2559V80.5H78.9102Z" fill="#2D4356"/>
<path d="M90.8799 89.6396V91H85.5957V89.6396H90.8799ZM86.0811 81.0469V91H84.3652V81.0469H86.0811ZM90.1895 85.2031V86.543H85.5957V85.2031H90.1895ZM90.8457 81.0469V82.4141H85.5957V81.0469H90.8457Z" fill="#FCB59E"/>
<path d="M96.2666 88.9971C96.2666 88.833 96.2256 88.6849 96.1436 88.5527C96.0615 88.416 95.9043 88.293 95.6719 88.1836C95.444 88.0742 95.1068 87.974 94.6602 87.8828C94.2682 87.7962 93.9082 87.6937 93.5801 87.5752C93.2565 87.4521 92.9785 87.304 92.7461 87.1309C92.5137 86.9577 92.3337 86.7526 92.2061 86.5156C92.0785 86.2786 92.0146 86.0052 92.0146 85.6953C92.0146 85.3945 92.0807 85.1097 92.2129 84.8408C92.3451 84.5719 92.5342 84.335 92.7803 84.1299C93.0264 83.9248 93.3249 83.763 93.6758 83.6445C94.0312 83.526 94.4277 83.4668 94.8652 83.4668C95.485 83.4668 96.016 83.5716 96.458 83.7812C96.9046 83.9863 97.2464 84.2666 97.4834 84.6221C97.7204 84.973 97.8389 85.3695 97.8389 85.8115H96.1914C96.1914 85.6156 96.1413 85.4333 96.041 85.2646C95.9453 85.0915 95.7995 84.9525 95.6035 84.8477C95.4076 84.7383 95.1615 84.6836 94.8652 84.6836C94.5827 84.6836 94.348 84.7292 94.1611 84.8203C93.9788 84.9069 93.8421 85.0208 93.751 85.1621C93.6644 85.3034 93.6211 85.4583 93.6211 85.627C93.6211 85.75 93.6439 85.8617 93.6895 85.9619C93.7396 86.0576 93.8216 86.1465 93.9355 86.2285C94.0495 86.306 94.2044 86.3789 94.4004 86.4473C94.6009 86.5156 94.8516 86.5817 95.1523 86.6455C95.7174 86.764 96.2028 86.9167 96.6084 87.1035C97.0186 87.2858 97.333 87.5228 97.5518 87.8145C97.7705 88.1016 97.8799 88.4661 97.8799 88.9082C97.8799 89.2363 97.8092 89.5371 97.668 89.8105C97.5312 90.0794 97.3307 90.3141 97.0664 90.5146C96.8021 90.7106 96.4854 90.8633 96.1162 90.9727C95.7516 91.082 95.3415 91.1367 94.8857 91.1367C94.2158 91.1367 93.6484 91.0182 93.1836 90.7812C92.7188 90.5397 92.3656 90.2321 92.124 89.8584C91.887 89.4801 91.7686 89.0882 91.7686 88.6826H93.3613C93.3796 88.988 93.4639 89.2318 93.6143 89.4141C93.7692 89.5918 93.9606 89.7217 94.1885 89.8037C94.4209 89.8812 94.6602 89.9199 94.9062 89.9199C95.2025 89.9199 95.4508 89.8812 95.6514 89.8037C95.8519 89.7217 96.0046 89.6123 96.1094 89.4756C96.2142 89.3343 96.2666 89.1748 96.2666 88.9971ZM102.713 83.6035V84.8066H98.543V83.6035H102.713ZM99.7461 81.792H101.394V88.9561C101.394 89.1839 101.425 89.3594 101.489 89.4824C101.558 89.6009 101.651 89.6807 101.77 89.7217C101.888 89.7627 102.027 89.7832 102.187 89.7832C102.3 89.7832 102.41 89.7764 102.515 89.7627C102.619 89.749 102.704 89.7354 102.768 89.7217L102.774 90.9795C102.638 91.0205 102.478 91.057 102.296 91.0889C102.118 91.1208 101.913 91.1367 101.681 91.1367C101.302 91.1367 100.967 91.0706 100.676 90.9385C100.384 90.8018 100.156 90.5807 99.9922 90.2754C99.8281 89.9701 99.7461 89.5645 99.7461 89.0586V81.792ZM108.154 89.5166V85.9893C108.154 85.7249 108.106 85.4971 108.011 85.3057C107.915 85.1143 107.769 84.9661 107.573 84.8613C107.382 84.7565 107.14 84.7041 106.849 84.7041C106.58 84.7041 106.347 84.7497 106.151 84.8408C105.955 84.932 105.803 85.055 105.693 85.21C105.584 85.3649 105.529 85.5404 105.529 85.7363H103.889C103.889 85.4447 103.959 85.1621 104.101 84.8887C104.242 84.6152 104.447 84.3714 104.716 84.1572C104.985 83.943 105.306 83.7744 105.68 83.6514C106.053 83.5283 106.473 83.4668 106.938 83.4668C107.493 83.4668 107.986 83.5602 108.414 83.7471C108.847 83.9339 109.187 84.2165 109.433 84.5947C109.683 84.9684 109.809 85.4378 109.809 86.0029V89.291C109.809 89.6283 109.831 89.9313 109.877 90.2002C109.927 90.4645 109.998 90.6947 110.089 90.8906V91H108.4C108.323 90.8223 108.261 90.5967 108.216 90.3232C108.175 90.0452 108.154 89.7764 108.154 89.5166ZM108.394 86.502L108.407 87.5205H107.225C106.919 87.5205 106.65 87.5501 106.418 87.6094C106.186 87.6641 105.992 87.7461 105.837 87.8555C105.682 87.9648 105.566 88.097 105.488 88.252C105.411 88.4069 105.372 88.5824 105.372 88.7783C105.372 88.9743 105.418 89.1543 105.509 89.3184C105.6 89.4779 105.732 89.6032 105.905 89.6943C106.083 89.7855 106.297 89.8311 106.548 89.8311C106.885 89.8311 107.179 89.7627 107.43 89.626C107.685 89.4847 107.885 89.3138 108.031 89.1133C108.177 88.9082 108.255 88.7145 108.264 88.5322L108.797 89.2637C108.742 89.4505 108.649 89.651 108.517 89.8652C108.384 90.0794 108.211 90.2845 107.997 90.4805C107.787 90.6719 107.535 90.8291 107.238 90.9521C106.947 91.0752 106.609 91.1367 106.227 91.1367C105.743 91.1367 105.313 91.041 104.935 90.8496C104.556 90.6536 104.26 90.3916 104.046 90.0635C103.832 89.7308 103.725 89.3548 103.725 88.9355C103.725 88.5436 103.798 88.1973 103.943 87.8965C104.094 87.5911 104.312 87.3359 104.6 87.1309C104.891 86.9258 105.247 86.7708 105.666 86.666C106.085 86.5566 106.564 86.502 107.102 86.502H108.394ZM114.922 83.6035V84.8066H110.752V83.6035H114.922ZM111.955 81.792H113.603V88.9561C113.603 89.1839 113.634 89.3594 113.698 89.4824C113.767 89.6009 113.86 89.6807 113.979 89.7217C114.097 89.7627 114.236 89.7832 114.396 89.7832C114.509 89.7832 114.619 89.7764 114.724 89.7627C114.828 89.749 114.913 89.7354 114.977 89.7217L114.983 90.9795C114.847 91.0205 114.687 91.057 114.505 91.0889C114.327 91.1208 114.122 91.1367 113.89 91.1367C113.511 91.1367 113.176 91.0706 112.885 90.9385C112.593 90.8018 112.365 90.5807 112.201 90.2754C112.037 89.9701 111.955 89.5645 111.955 89.0586V81.792ZM119.454 91.1367C118.907 91.1367 118.413 91.0479 117.971 90.8701C117.533 90.6878 117.16 90.4349 116.85 90.1113C116.544 89.7878 116.31 89.4072 116.146 88.9697C115.981 88.5322 115.899 88.0605 115.899 87.5547V87.2812C115.899 86.7025 115.984 86.1784 116.152 85.709C116.321 85.2396 116.556 84.8385 116.856 84.5059C117.157 84.1686 117.513 83.9111 117.923 83.7334C118.333 83.5557 118.777 83.4668 119.256 83.4668C119.785 83.4668 120.247 83.5557 120.644 83.7334C121.04 83.9111 121.368 84.1618 121.628 84.4854C121.892 84.8044 122.088 85.1849 122.216 85.627C122.348 86.069 122.414 86.5566 122.414 87.0898V87.7939H116.699V86.6113H120.787V86.4814C120.778 86.1852 120.719 85.9072 120.609 85.6475C120.505 85.3877 120.343 85.1781 120.124 85.0186C119.905 84.859 119.614 84.7793 119.249 84.7793C118.976 84.7793 118.732 84.8385 118.518 84.957C118.308 85.071 118.132 85.2373 117.991 85.4561C117.85 85.6748 117.741 85.9391 117.663 86.249C117.59 86.5544 117.554 86.8984 117.554 87.2812V87.5547C117.554 87.8783 117.597 88.179 117.684 88.457C117.775 88.7305 117.907 88.9697 118.08 89.1748C118.253 89.3799 118.463 89.5417 118.709 89.6602C118.955 89.7741 119.235 89.8311 119.55 89.8311C119.946 89.8311 120.299 89.7513 120.609 89.5918C120.919 89.4323 121.188 89.2067 121.416 88.915L122.284 89.7559C122.125 89.9883 121.917 90.2116 121.662 90.4258C121.407 90.6354 121.095 90.8063 120.726 90.9385C120.361 91.0706 119.937 91.1367 119.454 91.1367Z" fill="#FEB39B"/>
<path d="M31.612 107.692C31.916 107.74 32.192 107.864 32.44 108.064C32.696 108.264 32.896 108.512 33.04 108.808C33.192 109.104 33.268 109.42 33.268 109.756C33.268 110.18 33.16 110.564 32.944 110.908C32.728 111.244 32.412 111.512 31.996 111.712C31.588 111.904 31.104 112 30.544 112H27.424V103.636H30.424C30.992 103.636 31.476 103.732 31.876 103.924C32.276 104.108 32.576 104.36 32.776 104.68C32.976 105 33.076 105.36 33.076 105.76C33.076 106.256 32.94 106.668 32.668 106.996C32.404 107.316 32.052 107.548 31.612 107.692ZM28.516 107.248H30.352C30.864 107.248 31.26 107.128 31.54 106.888C31.82 106.648 31.96 106.316 31.96 105.892C31.96 105.468 31.82 105.136 31.54 104.896C31.26 104.656 30.856 104.536 30.328 104.536H28.516V107.248ZM30.448 111.1C30.992 111.1 31.416 110.972 31.72 110.716C32.024 110.46 32.176 110.104 32.176 109.648C32.176 109.184 32.016 108.82 31.696 108.556C31.376 108.284 30.948 108.148 30.412 108.148H28.516V111.1H30.448ZM40.6154 105.424V112H39.5234V111.028C39.3154 111.364 39.0234 111.628 38.6474 111.82C38.2794 112.004 37.8714 112.096 37.4234 112.096C36.9114 112.096 36.4514 111.992 36.0434 111.784C35.6354 111.568 35.3114 111.248 35.0714 110.824C34.8394 110.4 34.7234 109.884 34.7234 109.276V105.424H35.8034V109.132C35.8034 109.78 35.9674 110.28 36.2954 110.632C36.6234 110.976 37.0714 111.148 37.6394 111.148C38.2234 111.148 38.6834 110.968 39.0194 110.608C39.3554 110.248 39.5234 109.724 39.5234 109.036V105.424H40.6154ZM48.1232 105.424L44.1632 115.096H43.0352L44.3312 111.928L41.6792 105.424H42.8912L44.9552 110.752L46.9952 105.424H48.1232ZM53.7881 113.272H52.6961V102.46H53.7881V113.272ZM61.7635 112.084C61.2115 112.084 60.7155 111.988 60.2755 111.796C59.8435 111.596 59.5035 111.324 59.2555 110.98C59.0075 110.628 58.8795 110.224 58.8715 109.768H60.0355C60.0755 110.16 60.2355 110.492 60.5155 110.764C60.8035 111.028 61.2195 111.16 61.7635 111.16C62.2835 111.16 62.6915 111.032 62.9875 110.776C63.2915 110.512 63.4435 110.176 63.4435 109.768C63.4435 109.448 63.3555 109.188 63.1795 108.988C63.0035 108.788 62.7835 108.636 62.5195 108.532C62.2555 108.428 61.8995 108.316 61.4515 108.196C60.8995 108.052 60.4555 107.908 60.1195 107.764C59.7915 107.62 59.5075 107.396 59.2675 107.092C59.0355 106.78 58.9195 106.364 58.9195 105.844C58.9195 105.388 59.0355 104.984 59.2675 104.632C59.4995 104.28 59.8235 104.008 60.2395 103.816C60.6635 103.624 61.1475 103.528 61.6915 103.528C62.4755 103.528 63.1155 103.724 63.6115 104.116C64.1155 104.508 64.3995 105.028 64.4635 105.676H63.2635C63.2235 105.356 63.0555 105.076 62.7595 104.836C62.4635 104.588 62.0715 104.464 61.5835 104.464C61.1275 104.464 60.7555 104.584 60.4675 104.824C60.1795 105.056 60.0355 105.384 60.0355 105.808C60.0355 106.112 60.1195 106.36 60.2875 106.552C60.4635 106.744 60.6755 106.892 60.9235 106.996C61.1795 107.092 61.5355 107.204 61.9915 107.332C62.5435 107.484 62.9875 107.636 63.3235 107.788C63.6595 107.932 63.9475 108.16 64.1875 108.472C64.4275 108.776 64.5475 109.192 64.5475 109.72C64.5475 110.128 64.4395 110.512 64.2235 110.872C64.0075 111.232 63.6875 111.524 63.2635 111.748C62.8395 111.972 62.3395 112.084 61.7635 112.084ZM72.1545 108.46C72.1545 108.668 72.1425 108.888 72.1185 109.12H66.8625C66.9025 109.768 67.1225 110.276 67.5225 110.644C67.9305 111.004 68.4225 111.184 68.9985 111.184C69.4705 111.184 69.8625 111.076 70.1745 110.86C70.4945 110.636 70.7185 110.34 70.8465 109.972H72.0225C71.8465 110.604 71.4945 111.12 70.9665 111.52C70.4385 111.912 69.7825 112.108 68.9985 112.108C68.3745 112.108 67.8145 111.968 67.3185 111.688C66.8305 111.408 66.4465 111.012 66.1665 110.5C65.8865 109.98 65.7465 109.38 65.7465 108.7C65.7465 108.02 65.8825 107.424 66.1545 106.912C66.4265 106.4 66.8065 106.008 67.2945 105.736C67.7905 105.456 68.3585 105.316 68.9985 105.316C69.6225 105.316 70.1745 105.452 70.6545 105.724C71.1345 105.996 71.5025 106.372 71.7585 106.852C72.0225 107.324 72.1545 107.86 72.1545 108.46ZM71.0265 108.232C71.0265 107.816 70.9345 107.46 70.7505 107.164C70.5665 106.86 70.3145 106.632 69.9945 106.48C69.6825 106.32 69.3345 106.24 68.9505 106.24C68.3985 106.24 67.9265 106.416 67.5345 106.768C67.1505 107.12 66.9305 107.608 66.8745 108.232H71.0265ZM74.6879 103.12V112H73.5959V103.12H74.6879ZM77.641 103.12V112H76.549V103.12H77.641ZM84.0693 113.272H82.9773V102.46H84.0693V113.272ZM93.7968 112L91.8048 108.58H90.4848V112H89.3928V103.636H92.0928C92.7248 103.636 93.2568 103.744 93.6888 103.96C94.1288 104.176 94.4568 104.468 94.6728 104.836C94.8888 105.204 94.9968 105.624 94.9968 106.096C94.9968 106.672 94.8288 107.18 94.4928 107.62C94.1648 108.06 93.6688 108.352 93.0048 108.496L95.1048 112H93.7968ZM90.4848 107.704H92.0928C92.6848 107.704 93.1288 107.56 93.4248 107.272C93.7208 106.976 93.8688 106.584 93.8688 106.096C93.8688 105.6 93.7208 105.216 93.4248 104.944C93.1368 104.672 92.6928 104.536 92.0928 104.536H90.4848V107.704ZM102.694 108.46C102.694 108.668 102.682 108.888 102.658 109.12H97.4015C97.4415 109.768 97.6615 110.276 98.0615 110.644C98.4695 111.004 98.9615 111.184 99.5375 111.184C100.01 111.184 100.402 111.076 100.714 110.86C101.034 110.636 101.258 110.34 101.386 109.972H102.562C102.386 110.604 102.034 111.12 101.506 111.52C100.978 111.912 100.322 112.108 99.5375 112.108C98.9135 112.108 98.3535 111.968 97.8575 111.688C97.3695 111.408 96.9855 111.012 96.7055 110.5C96.4255 109.98 96.2855 109.38 96.2855 108.7C96.2855 108.02 96.4215 107.424 96.6935 106.912C96.9655 106.4 97.3455 106.008 97.8335 105.736C98.3295 105.456 98.8975 105.316 99.5375 105.316C100.162 105.316 100.714 105.452 101.194 105.724C101.674 105.996 102.042 106.372 102.298 106.852C102.562 107.324 102.694 107.86 102.694 108.46ZM101.566 108.232C101.566 107.816 101.474 107.46 101.29 107.164C101.106 106.86 100.854 106.632 100.534 106.48C100.222 106.32 99.8735 106.24 99.4895 106.24C98.9375 106.24 98.4655 106.416 98.0735 106.768C97.6895 107.12 97.4695 107.608 97.4135 108.232H101.566ZM107.339 105.304C108.139 105.304 108.787 105.548 109.283 106.036C109.779 106.516 110.027 107.212 110.027 108.124V112H108.947V108.28C108.947 107.624 108.783 107.124 108.455 106.78C108.127 106.428 107.679 106.252 107.111 106.252C106.535 106.252 106.075 106.432 105.731 106.792C105.395 107.152 105.227 107.676 105.227 108.364V112H104.135V105.424H105.227V106.36C105.443 106.024 105.735 105.764 106.103 105.58C106.479 105.396 106.891 105.304 107.339 105.304ZM113.143 106.324V110.2C113.143 110.52 113.211 110.748 113.347 110.884C113.483 111.012 113.719 111.076 114.055 111.076H114.859V112H113.875C113.267 112 112.811 111.86 112.507 111.58C112.203 111.3 112.051 110.84 112.051 110.2V106.324H111.199V105.424H112.051V103.768H113.143V105.424H114.859V106.324H113.143Z" fill="#2D4356"/>
</svg>
