<svg width="38" height="38" viewBox="0 0 38 38" fill="none" xmlns="http://www.w3.org/2000/svg">
<circle cx="19" cy="19" r="18.5" fill="white" stroke="#63D0FF"/>
<path d="M8.57031 27.1048C8.57031 27.0866 13.4849 27.071 19.5453 27.071C25.6057 27.071 30.5229 27.0866 30.5229 27.1048C30.5229 27.123 25.6096 27.1386 19.5453 27.1386C13.481 27.1386 8.57031 27.1165 8.57031 27.1048Z" fill="#263238"/>
<path d="M8.35205 18.4213L10.1254 18.4187L13.3381 14.65L12.1104 13.2937L8.35205 18.4213Z" fill="#4E6C8E"/>
<g opacity="0.3">
<path d="M8.35205 18.4213L10.1254 18.4187L13.3381 14.65L12.1104 13.2937L8.35205 18.4213Z" fill="black"/>
</g>
<path d="M29.381 18.1589L30.5801 23.1229H29.9825L28.9172 18.7669L29.381 18.1589Z" fill="#4E6C8E"/>
<g opacity="0.3">
<path d="M29.381 18.1589L30.5801 23.1229H29.9825L28.9172 18.7669L29.381 18.1589Z" fill="black"/>
</g>
<path d="M30.1589 27.0268L30.155 22.9371L29.2495 19.1411L28.509 23.31L28.5116 27.0281L30.1589 27.0268Z" fill="#DCEAFC"/>
<path d="M14.7779 23.4588L17.8867 23.4561L17.8812 17.1501L14.7724 17.1528L14.7779 23.4588Z" fill="#DCEAFC"/>
<path d="M29.381 18.1746L28.5093 23.3269L15.1011 23.3386L17.7513 18.185L29.381 18.1746Z" fill="#4E6C8E"/>
<path d="M15.183 27.0392L28.512 27.0276L28.5087 23.3108L15.1797 23.3224L15.183 27.0392Z" fill="#DCEAFC"/>
<path d="M27.3167 23.3283L27.3206 27.0295L25.7148 27.0308L25.7382 23.3127L27.3167 23.3283Z" fill="#DCEAFC"/>
<path d="M21.6175 18.6318L25.7383 23.3126L25.7149 27.0307L17.8188 27.0371L17.8864 23.4555L21.6175 18.6318Z" fill="#DCEAFC"/>
<path d="M27.696 23.3112L23.5167 18.1641L21.6174 18.1654L25.9409 23.3125L27.696 23.3112Z" fill="#4E6C8E"/>
<path d="M18.767 18.1682L15.6763 18.2098L11.9985 13.2939L12.1466 13.0886L15.1008 13.1445L18.767 18.1682Z" fill="#4E6C8E"/>
<path d="M14.7358 16.4845L16.0505 18.2098H15.6763L11.9985 13.2939L12.1466 13.0886L14.7358 16.4845Z" fill="#4E6C8E"/>
<path d="M14.7359 16.4845L14.7255 16.4676L14.6891 16.4183L14.5501 16.2299L14.0201 15.5258L12.1636 13.0743L12.1467 13.0522L12.1311 13.0743L11.9818 13.2796L11.9727 13.2913L11.9818 13.303L13.2263 14.9684L15.6635 18.2163H16.0779L16.0584 18.1903L15.0905 16.934L14.8307 16.5924L14.7606 16.5053C14.753 16.4948 14.7448 16.4848 14.7359 16.4754C14.742 16.4868 14.749 16.4976 14.7567 16.5079L14.8229 16.5988L15.0828 16.9444L16.0389 18.2098L16.0519 18.1838H15.6778H15.692L13.2627 14.936C12.8249 14.3514 12.4027 13.7888 12.0168 13.2718V13.2965C12.0688 13.2263 12.1195 13.1562 12.1649 13.0925H12.1324L14.0006 15.5427L14.5397 16.2403L14.6839 16.4248L14.7216 16.4715L14.7359 16.4845Z" fill="#263238"/>
<path d="M9.62524 17.703L9.63304 27.0437L15.1829 27.0398L15.1751 17.5393L12.5314 14.0044L9.62524 17.703Z" fill="#DCEAFC"/>
<g opacity="0.3">
<path d="M27.8116 23.3112L23.5167 18.1641L21.6174 18.1654L25.9409 23.3125L27.8116 23.3112Z" fill="black"/>
</g>
<path d="M21.7733 18.8098L17.8864 23.4555L17.5486 23.4568L21.6174 18.6318L21.7733 18.8098Z" fill="#4E6C8E"/>
<g opacity="0.3">
<path d="M21.7733 18.8098L17.8864 23.4555L17.5486 23.4568L21.6174 18.6318L21.7733 18.8098Z" fill="black"/>
</g>
<path d="M21.6175 18.1655L26.2722 23.3126H25.7383L21.6175 18.6319L17.5486 23.5114L17.3577 23.2828L21.6175 18.1655Z" fill="#4E6C8E"/>
<path d="M21.6175 18.1655L21.598 18.1876L21.5396 18.2565L21.3109 18.5306L20.4457 19.5634L17.3434 23.275L17.333 23.2867L17.3434 23.2984L17.5344 23.5283L17.5487 23.5452L17.5643 23.5283L21.6344 18.6501H21.6006L21.7305 18.7995L25.7214 23.3282H26.3073L26.2788 23.2971L22.9023 19.5699L21.9527 18.5306L21.7033 18.2578L21.6383 18.1876L21.6175 18.1655L21.6383 18.1915L21.7033 18.263L21.9527 18.5423L22.8971 19.5946L26.258 23.3256L26.2723 23.2932H25.7383H25.7526L21.7656 18.7618L21.6357 18.6111L21.6188 18.5929L21.6019 18.6124L17.5357 23.4932H17.5656L17.3733 23.2646V23.288L20.4522 19.5738L21.3135 18.5345L21.5409 18.2578L21.5993 18.1863L21.6175 18.1655Z" fill="#263238"/>
<path d="M25.7318 27.0644C25.7435 27.0644 25.7526 26.2278 25.7513 25.1963C25.75 24.1648 25.7409 23.3281 25.7279 23.3281C25.7149 23.3281 25.7071 24.1648 25.7084 25.1963C25.7097 26.2278 25.7201 27.0644 25.7318 27.0644Z" fill="#263238"/>
<path d="M27.2972 27.0775C27.3089 27.0775 27.318 26.2409 27.3167 25.2094C27.3154 24.1779 27.305 23.3425 27.2933 23.3425C27.2816 23.3425 27.2725 24.1779 27.2738 25.2094C27.2751 26.2409 27.2842 27.0775 27.2972 27.0775Z" fill="#263238"/>
<path d="M21.2574 27.0343L22.8215 27.033L22.8187 23.7787L21.2546 23.78L21.2574 27.0343Z" fill="#455A64"/>
<path d="M22.6827 25.694C22.6896 25.694 22.6965 25.6926 22.7029 25.6899C22.7092 25.6872 22.715 25.6833 22.7199 25.6783C22.7247 25.6734 22.7285 25.6675 22.731 25.661C22.7336 25.6546 22.7348 25.6477 22.7346 25.6407V25.3121C22.7348 25.3051 22.7336 25.2982 22.731 25.2918C22.7285 25.2853 22.7247 25.2794 22.7199 25.2745C22.715 25.2695 22.7092 25.2656 22.7029 25.2629C22.6965 25.2602 22.6896 25.2588 22.6827 25.2588C22.6685 25.2588 22.655 25.2644 22.645 25.2744C22.635 25.2844 22.6294 25.2979 22.6294 25.3121V25.6407C22.6294 25.6477 22.6308 25.6547 22.6335 25.6611C22.6361 25.6676 22.64 25.6734 22.645 25.6784C22.6499 25.6833 22.6558 25.6873 22.6623 25.6899C22.6687 25.6926 22.6757 25.694 22.6827 25.694Z" fill="#263238"/>
<path d="M22.6606 25.5875C22.661 25.5829 22.663 25.5786 22.6664 25.5755C22.6698 25.5723 22.6742 25.5706 22.6788 25.5706C22.6812 25.5704 22.6835 25.5707 22.6857 25.5715C22.6879 25.5723 22.6899 25.5735 22.6916 25.5751C22.6933 25.5767 22.6947 25.5786 22.6956 25.5807C22.6965 25.5829 22.697 25.5852 22.697 25.5875C22.6969 25.5906 22.6959 25.5937 22.694 25.5963C22.6922 25.5988 22.6896 25.6007 22.6866 25.6018V25.6213C22.6866 25.6233 22.6858 25.6253 22.6843 25.6268C22.6829 25.6282 22.6809 25.6291 22.6788 25.6291C22.6768 25.6291 22.6748 25.6282 22.6733 25.6268C22.6719 25.6253 22.671 25.6233 22.671 25.6213V25.6018C22.6682 25.6006 22.6657 25.5986 22.6638 25.5961C22.662 25.5936 22.6609 25.5906 22.6606 25.5875Z" fill="#455A64"/>
<path d="M22.4203 25.4575H22.658C22.6649 25.4575 22.6715 25.4547 22.6764 25.4499C22.6813 25.445 22.684 25.4384 22.684 25.4315C22.684 25.4246 22.6813 25.418 22.6764 25.4131C22.6715 25.4083 22.6649 25.4055 22.658 25.4055H22.4203C22.4134 25.4055 22.4068 25.4083 22.4019 25.4131C22.397 25.418 22.3943 25.4246 22.3943 25.4315C22.3943 25.4384 22.397 25.445 22.4019 25.4499C22.4068 25.4547 22.4134 25.4575 22.4203 25.4575Z" fill="#263238"/>
<path d="M22.5786 25.4587H22.6111C22.6228 25.46 22.6345 25.46 22.6462 25.4587C22.6541 25.4589 22.662 25.4572 22.6692 25.4538C22.6764 25.4504 22.6828 25.4455 22.6877 25.4392C22.6897 25.4354 22.6907 25.4312 22.6907 25.4269C22.6907 25.4226 22.6897 25.4184 22.6877 25.4146C22.6855 25.411 22.6824 25.408 22.6788 25.4057C22.6752 25.4035 22.6712 25.4021 22.667 25.4016C22.6553 25.3998 22.6435 25.3998 22.6319 25.4016C22.6211 25.3997 22.6101 25.3997 22.5994 25.4016H22.6319C22.6431 25.3999 22.6545 25.3999 22.6657 25.4016C22.6686 25.4018 22.6714 25.4027 22.6738 25.4044C22.6763 25.406 22.6782 25.4082 22.6795 25.4109C22.6809 25.4135 22.6815 25.4164 22.6813 25.4193C22.6811 25.4222 22.6802 25.4251 22.6786 25.4275C22.6618 25.4483 22.628 25.4444 22.6098 25.4457C22.5987 25.4481 22.5881 25.4525 22.5786 25.4587Z" fill="#455A64"/>
<path d="M22.0747 24.5066C22.0747 24.5066 22.0747 24.452 22.0747 24.3585C22.0747 24.2649 22.0747 24.1246 22.0747 23.9752H22.5385V24.2545C22.5385 24.3429 22.5385 24.4273 22.5385 24.5053H22.2046H22.0747H22.5424C22.5424 24.4273 22.5424 24.3429 22.5424 24.2545V23.9752H22.0747C22.0747 24.1246 22.0747 24.2558 22.0747 24.365C22.0747 24.4741 22.0747 24.5066 22.0747 24.5066Z" fill="#263238"/>
<path d="M22.1565 24.4417C22.1565 24.4417 22.1565 24.4001 22.1565 24.3287C22.1565 24.2572 22.1565 24.1455 22.1565 24.0364H22.4761V24.4404H22.2448H22.4774V24.0325H22.1526V24.3313C22.1552 24.4014 22.1565 24.4417 22.1565 24.4417Z" fill="#263238"/>
<path d="M22.0812 25.629C22.0812 25.4614 22.0812 25.147 22.0812 24.6365H22.5463V24.9158C22.5463 25.0067 22.5463 25.0938 22.5463 25.1756C22.5463 25.3419 22.5463 25.4939 22.5463 25.6251V24.6365H22.0747C22.0747 25.147 22.0747 25.4614 22.0812 25.629Z" fill="#263238"/>
<path d="M22.1578 25.5744C22.1578 25.5744 22.1578 25.551 22.1578 25.5082V25.325C22.1578 25.1574 22.1578 24.943 22.1578 24.6975H22.4774V24.9482C22.4774 25.0288 22.4774 25.108 22.4774 25.1821C22.4774 25.3276 22.4774 25.4588 22.4774 25.5718H22.1578H22.48C22.48 25.4588 22.48 25.3276 22.48 25.1821V24.6975H22.1526C22.1526 24.9443 22.1526 25.16 22.1526 25.3276C22.1526 25.3977 22.1526 25.4575 22.1526 25.5095C22.1526 25.5614 22.1578 25.5744 22.1578 25.5744Z" fill="#263238"/>
<path d="M22.0825 26.8877C22.0825 26.7188 22.0825 26.4057 22.0825 25.8939H22.5463V26.1719C22.5463 26.2628 22.5463 26.3499 22.5463 26.4317C22.5463 26.598 22.5463 26.75 22.5463 26.8812V25.8887H22.0747C22.0747 26.4057 22.0812 26.7149 22.0825 26.8877Z" fill="#263238"/>
<path d="M22.159 26.8333V26.7657C22.159 26.7151 22.159 26.654 22.159 26.5826C22.159 26.4163 22.159 26.2019 22.159 25.9551H22.4786V26.4397C22.4786 26.5852 22.4786 26.7164 22.4786 26.8294H22.159H22.4812C22.4812 26.7164 22.4812 26.5852 22.4812 26.4397V25.9551H22.1577C22.1577 26.2019 22.1577 26.4189 22.1577 26.5865C22.1577 26.6566 22.1577 26.7164 22.1577 26.7683C22.1577 26.8203 22.159 26.8333 22.159 26.8333Z" fill="#263238"/>
<path d="M22.4646 24.4415C22.4762 24.4543 22.4892 24.4657 22.5036 24.4753C22.5166 24.4873 22.5315 24.4969 22.5477 24.5039C22.5477 24.5039 22.5322 24.4857 22.5088 24.4688C22.4854 24.4519 22.4711 24.4389 22.4646 24.4415Z" fill="#263238"/>
<path d="M22.0747 24.5065C22.0896 24.5004 22.1033 24.4916 22.115 24.4805C22.1371 24.4649 22.1527 24.4506 22.1514 24.448C22.1362 24.4543 22.1221 24.4631 22.1098 24.474C22.0916 24.4831 22.0747 24.4974 22.0747 24.5065Z" fill="#263238"/>
<path d="M22.0864 23.9868C22.0864 23.9868 22.1007 24.0024 22.1202 24.0154C22.1397 24.0284 22.1579 24.0388 22.1592 24.0362C22.1499 24.0249 22.1384 24.0156 22.1254 24.0089C22.1138 23.9993 22.1006 23.9919 22.0864 23.9868Z" fill="#263238"/>
<path d="M22.4747 24.0297C22.4747 24.0297 22.4929 24.0232 22.5124 24.0102C22.5318 23.9972 22.5487 23.9855 22.5474 23.9829C22.5332 23.9866 22.52 23.9933 22.5085 24.0024C22.489 24.0154 22.4734 24.0271 22.4747 24.0297Z" fill="#263238"/>
<path d="M22.4788 24.6976C22.4945 24.6924 22.5085 24.683 22.5191 24.6703C22.5373 24.6508 22.5464 24.63 22.5438 24.6287C22.5412 24.6274 22.5308 24.6456 22.5126 24.6638C22.4944 24.682 22.4775 24.6963 22.4788 24.6976Z" fill="#263238"/>
<path d="M22.0864 24.6365C22.0864 24.6365 22.0994 24.6521 22.1176 24.6677C22.1358 24.6832 22.154 24.6949 22.1553 24.6923C22.1462 24.6802 22.1353 24.6697 22.1228 24.6612C22.1123 24.6508 22.0999 24.6424 22.0864 24.6365Z" fill="#263238"/>
<path d="M22.4788 25.5784C22.4788 25.5784 22.4931 25.5914 22.5099 25.6056C22.5198 25.6154 22.5307 25.6241 22.5424 25.6316C22.5424 25.6316 22.5333 25.6147 22.5151 25.5992C22.5047 25.5896 22.4923 25.5825 22.4788 25.5784Z" fill="#263238"/>
<path d="M22.0943 25.6289C22.1068 25.6231 22.1183 25.6152 22.1281 25.6056C22.145 25.5913 22.158 25.5783 22.1554 25.5757C22.1431 25.5818 22.1317 25.5897 22.1216 25.5991C22.1047 25.6134 22.093 25.6263 22.0943 25.6289Z" fill="#263238"/>
<path d="M22.4724 25.9668C22.4724 25.9668 22.4919 25.9538 22.5127 25.9343C22.5262 25.923 22.5376 25.9094 22.5464 25.894C22.5317 25.9037 22.5182 25.915 22.5062 25.9278C22.4854 25.9473 22.4646 25.9655 22.4724 25.9668Z" fill="#263238"/>
<path d="M22.0825 25.8914C22.0825 25.8914 22.0968 25.9095 22.1176 25.9277C22.1384 25.9459 22.1553 25.9602 22.1566 25.9576C22.1579 25.955 22.1436 25.9394 22.1228 25.9212C22.1112 25.9091 22.0975 25.899 22.0825 25.8914Z" fill="#263238"/>
<path d="M22.4878 26.8281C22.4948 26.8402 22.5036 26.8511 22.5138 26.8606C22.5294 26.8775 22.5437 26.8892 22.5463 26.8866C22.5393 26.8745 22.5305 26.8636 22.5203 26.8541C22.5034 26.845 22.4891 26.8255 22.4878 26.8281Z" fill="#263238"/>
<path d="M22.0903 26.8878C22.0903 26.8878 22.1072 26.8787 22.1267 26.8618C22.1462 26.8449 22.1579 26.8319 22.1566 26.8293C22.1432 26.8361 22.1309 26.8448 22.1202 26.8553C22.1086 26.8645 22.0986 26.8755 22.0903 26.8878Z" fill="#263238"/>
<path d="M21.4626 24.5067C21.4626 24.5067 21.4626 24.4521 21.4626 24.3586C21.4626 24.265 21.4626 24.1247 21.4626 23.9753H21.9277V24.1169C21.9277 24.1637 21.9277 24.2092 21.9277 24.2547V24.5067H21.5926H21.9342V23.987H21.4652C21.4652 24.1377 21.4652 24.2676 21.4652 24.3768C21.4652 24.4859 21.4626 24.5067 21.4626 24.5067Z" fill="#263238"/>
<path d="M21.5394 24.4428C21.5394 24.4428 21.5394 24.3999 21.5394 24.3285C21.5394 24.257 21.5394 24.1466 21.5394 24.0375H21.859V24.2466C21.859 24.3129 21.859 24.3766 21.859 24.4363H21.6277H21.5394H21.8616C21.8616 24.3766 21.8616 24.3129 21.8616 24.2466V24.0349H21.5381C21.5381 24.144 21.5381 24.2427 21.5381 24.3285C21.5381 24.4142 21.5394 24.4428 21.5394 24.4428Z" fill="#263238"/>
<path d="M21.4641 25.6303C21.4641 25.4614 21.4641 25.147 21.4641 24.6365H21.9279V25.1795C21.9279 25.3458 21.9279 25.4965 21.9279 25.629C21.9279 25.4991 21.9279 25.3458 21.9279 25.1795V24.6365H21.4602C21.4615 25.147 21.4628 25.4614 21.4641 25.6303Z" fill="#263238"/>
<path d="M21.5393 25.5743C21.5393 25.5743 21.5393 25.5509 21.5393 25.5081C21.5393 25.4652 21.5393 25.3963 21.5393 25.3249C21.5393 25.1586 21.5393 24.943 21.5393 24.6974H21.8589V25.1846C21.8589 25.3301 21.8589 25.4613 21.8589 25.5743H21.5393H21.6237H21.8589V24.6948H21.5354C21.5354 24.9417 21.5354 25.1573 21.5354 25.3249C21.5354 25.3963 21.5354 25.4548 21.5354 25.5081C21.5354 25.5613 21.5393 25.5743 21.5393 25.5743Z" fill="#263238"/>
<path d="M21.4641 26.8891C21.4641 26.7202 21.4641 26.4058 21.4641 25.8953H21.9279V26.4383C21.9279 26.6033 21.9279 26.7553 21.9279 26.8865V25.8966H21.4602C21.4628 26.4058 21.4641 26.715 21.4641 26.8891Z" fill="#263238"/>
<path d="M21.5406 26.8333C21.5406 26.8333 21.5406 26.81 21.5406 26.7671C21.5406 26.7242 21.5406 26.6554 21.5406 26.5839C21.5406 26.4176 21.5406 26.202 21.5406 25.9564H21.8602V26.0863C21.8602 26.1279 21.8602 26.1695 21.8602 26.2163V26.4501C21.8602 26.5956 21.8602 26.7281 21.8602 26.8398H21.5406H21.8641V25.9616H21.5393C21.5393 26.2085 21.5393 26.4241 21.5393 26.5917C21.5393 26.6632 21.5393 26.7216 21.5393 26.7736C21.5393 26.8255 21.5406 26.8333 21.5406 26.8333Z" fill="#263238"/>
<path d="M21.8511 24.4417C21.8511 24.4417 21.8667 24.4598 21.89 24.4767C21.9134 24.4936 21.9316 24.5066 21.9329 24.504C21.9219 24.4908 21.9092 24.479 21.8952 24.4689C21.8818 24.4579 21.8669 24.4487 21.8511 24.4417Z" fill="#263238"/>
<path d="M21.4602 24.5064C21.4602 24.5064 21.4797 24.4973 21.5005 24.4817C21.5136 24.4725 21.5254 24.4616 21.5356 24.4492C21.5209 24.4552 21.5073 24.4636 21.4953 24.4739C21.4822 24.4831 21.4704 24.494 21.4602 24.5064Z" fill="#263238"/>
<path d="M21.4692 23.9868C21.4786 23.9981 21.49 24.0074 21.503 24.0141C21.5146 24.0237 21.5278 24.0311 21.542 24.0362C21.542 24.0362 21.5277 24.0206 21.5082 24.0076C21.4887 23.9946 21.4705 23.9868 21.4692 23.9868Z" fill="#263238"/>
<path d="M21.8564 24.0298C21.8564 24.0298 21.8759 24.0233 21.8954 24.0104C21.9082 24.0038 21.9196 23.995 21.9292 23.9844C21.9292 23.9844 21.911 23.9844 21.8902 24.0039C21.8777 24.0108 21.8663 24.0195 21.8564 24.0298Z" fill="#263238"/>
<path d="M21.8602 24.6987C21.8762 24.6934 21.8902 24.6835 21.9005 24.6702C21.9125 24.6593 21.9215 24.6454 21.9264 24.6299C21.9264 24.6299 21.9121 24.6455 21.894 24.665C21.8758 24.6844 21.8589 24.6961 21.8602 24.6987Z" fill="#263238"/>
<path d="M21.468 24.6365C21.4771 24.6486 21.488 24.6591 21.5005 24.6677C21.511 24.678 21.5234 24.6864 21.5369 24.6923C21.5369 24.6923 21.5252 24.6754 21.5057 24.6612C21.4862 24.6469 21.4706 24.6365 21.468 24.6365Z" fill="#263238"/>
<path d="M21.8616 25.5796C21.8707 25.59 21.8812 25.5992 21.8928 25.6069C21.9025 25.6165 21.9134 25.6248 21.9252 25.6316C21.9191 25.6189 21.9096 25.6082 21.898 25.6004C21.8798 25.5848 21.8629 25.577 21.8616 25.5796Z" fill="#263238"/>
<path d="M21.4771 25.6291C21.4771 25.6291 21.4927 25.6213 21.5096 25.6057C21.5206 25.5978 21.5302 25.5881 21.5382 25.5771C21.5382 25.5771 21.5213 25.5849 21.5044 25.5992C21.4875 25.6135 21.4745 25.6278 21.4771 25.6291Z" fill="#263238"/>
<path d="M21.854 25.968C21.8691 25.9589 21.8826 25.9475 21.8943 25.9342C21.9078 25.923 21.9196 25.9099 21.9294 25.8953C21.914 25.9034 21.9003 25.9145 21.8891 25.9277C21.8754 25.9393 21.8635 25.9528 21.854 25.968Z" fill="#263238"/>
<path d="M21.4653 25.8926C21.4749 25.9062 21.4863 25.9185 21.4991 25.929C21.511 25.9409 21.5246 25.9509 21.5394 25.9589C21.5394 25.9589 21.5264 25.9407 21.5056 25.9225C21.4848 25.9043 21.4666 25.89 21.4653 25.8926Z" fill="#263238"/>
<path d="M21.8708 26.8279C21.8708 26.8279 21.8799 26.8448 21.8955 26.8604C21.9048 26.8712 21.9158 26.8804 21.928 26.8876C21.9219 26.875 21.9131 26.8639 21.902 26.8552C21.8934 26.8442 21.8829 26.835 21.8708 26.8279Z" fill="#263238"/>
<path d="M21.472 26.889C21.4854 26.8823 21.4977 26.8735 21.5084 26.863C21.5202 26.8536 21.5306 26.8427 21.5396 26.8306C21.526 26.8371 21.5137 26.8458 21.5032 26.8565C21.485 26.8721 21.4707 26.8864 21.472 26.889Z" fill="#263238"/>
<path d="M26.2722 23.3125C26.286 23.3145 26.3 23.3145 26.3138 23.3125H26.4359H26.8971L28.5093 23.319H28.5262V23.3021C28.6028 22.8526 28.6886 22.3538 28.7769 21.8289C28.9471 20.8143 29.0991 19.8958 29.2108 19.2307C29.2641 18.9007 29.307 18.6318 29.3407 18.4408C29.3537 18.3512 29.3641 18.2797 29.3732 18.2265C29.3732 18.2044 29.3732 18.1849 29.3797 18.1706C29.3862 18.1563 29.3797 18.1511 29.3797 18.1511C29.3797 18.1511 29.3797 18.1576 29.3797 18.1693L29.368 18.2252C29.3576 18.2771 29.3446 18.3486 29.3278 18.4382L29.1874 19.2255C29.0731 19.8945 28.9146 20.8117 28.7405 21.8237C28.6522 22.3434 28.5691 22.8461 28.4937 23.2969L28.5132 23.2801L26.8997 23.2891L26.4398 23.2956H26.3177L26.2722 23.3125Z" fill="#263238"/>
<path d="M11.9986 13.2937L8.04663 18.4213H8.5403L12.1986 13.5613L11.9986 13.2937Z" fill="#4E6C8E"/>
<path d="M11.9987 13.2937L12.0104 13.3119C12.0195 13.3236 12.0325 13.3405 12.0468 13.3626L12.1936 13.5652V13.5574C11.7077 14.1888 10.2553 16.1076 8.52355 18.407L8.54043 18.3992H8.04417L8.06236 18.4343L10.8477 14.8033L11.6882 13.7016L11.9168 13.4015L11.9766 13.3223L11.9961 13.2937L11.9766 13.3171L11.9168 13.3924L11.6869 13.686L10.8399 14.7734L8.02728 18.4109L8 18.446H8.54953V18.4382C10.28 16.1375 11.722 14.2109 12.1949 13.5691C12.126 13.4795 12.0753 13.4132 12.039 13.3678L12.0026 13.3197L11.9987 13.2937Z" fill="#263238"/>
<path d="M15.5935 18.194C15.5935 18.207 16.3457 18.2161 17.2746 18.2148C18.2034 18.2135 18.9569 18.2031 18.9569 18.1914C18.9569 18.1797 18.2034 18.1707 17.2746 18.1707C16.3457 18.1707 15.5935 18.1823 15.5935 18.194Z" fill="#263238"/>
<path d="M20.2116 23.7815H19.1372V27.0358H20.2116V23.7815Z" fill="white"/>
<path d="M19.1387 27.036C19.1387 27.036 19.1387 27.0295 19.1387 27.0191C19.1387 27.0087 19.1387 26.9892 19.1387 26.971C19.1387 26.9255 19.1387 26.8645 19.1387 26.7865C19.1387 26.6228 19.1387 26.3968 19.1387 26.1045C19.1387 25.5238 19.1387 24.7131 19.1465 23.7817L19.1258 23.8024H20.2001C20.1573 23.7583 20.1884 23.7908 20.178 23.7817V23.8999C20.178 23.9402 20.178 23.9804 20.178 24.0207V24.7274C20.178 25.0327 20.178 25.325 20.178 25.6017C20.178 26.1539 20.178 26.641 20.1845 27.0308L20.1988 27.0165L19.4129 27.0256H19.1998H19.4103L20.204 27.0321H20.2183V27.0178C20.2183 26.628 20.2183 26.1396 20.2183 25.5887V23.77C20.2079 23.7596 20.2404 23.7908 20.1962 23.7466H19.1219H19.1011V23.7674C19.1011 24.7053 19.1102 25.5199 19.1128 26.1058C19.1128 26.3916 19.1128 26.6254 19.1193 26.7826C19.1193 26.8593 19.1193 26.919 19.1193 26.9632C19.1239 26.9879 19.1304 27.0123 19.1387 27.036Z" fill="#263238"/>
<path d="M19.127 24.6546C19.3054 24.6763 19.4852 24.6832 19.6648 24.6754C19.8439 24.6832 20.0234 24.6758 20.2013 24.6533C20.0233 24.6325 19.8439 24.6255 19.6648 24.6325C19.4852 24.6255 19.3054 24.6329 19.127 24.6546Z" fill="#263238"/>
<path d="M19.1311 26.0031C19.3094 26.0256 19.4894 26.0329 19.6689 26.0252C19.8485 26.0321 20.0284 26.0248 20.2068 26.0031C20.0284 25.9806 19.8485 25.9732 19.6689 25.981C19.4894 25.9741 19.3095 25.9814 19.1311 26.0031Z" fill="#263238"/>
<path d="M19.6662 27.0268C19.6779 27.0268 19.687 26.3058 19.687 25.4159C19.687 24.526 19.6753 23.8037 19.6636 23.8037C19.6519 23.8037 19.6428 24.5247 19.6428 25.4159C19.6428 26.3071 19.6545 27.0268 19.6662 27.0268Z" fill="#263238"/>
<path d="M13.3576 23.7803H12.2832V27.0346H13.3576V23.7803Z" fill="white"/>
<path d="M12.2844 27.0345C12.2844 27.0345 12.2844 27.0345 12.2844 27.0176V26.9747C12.2844 26.9293 12.2844 26.8682 12.2844 26.7903C12.2844 26.6279 12.2844 26.4005 12.2844 26.1082C12.2844 25.5275 12.2844 24.7182 12.2921 23.7854L12.2714 23.8062H13.3457L13.3249 23.7854V24.2648C13.3249 24.4233 13.3249 24.5792 13.3249 24.7312C13.3249 25.0365 13.3249 25.3301 13.3249 25.6068C13.3249 26.1576 13.325 26.6461 13.3314 27.0358L13.3457 27.0215L12.5598 27.0293H12.348H12.2714C12.2714 27.0293 12.2714 27.0293 12.2883 27.0293H12.3415H12.552L13.3457 27.0371H13.3704V27.0228C13.3704 26.6331 13.3704 26.1433 13.3704 25.5938V23.775C13.3613 23.7646 13.3925 23.7958 13.3483 23.7529H12.2532V23.7737C12.2532 24.7117 12.2623 25.5262 12.2649 26.1121C12.2649 26.3979 12.2649 26.6318 12.2714 26.789C12.2714 26.8656 12.2714 26.9254 12.2714 26.9696C12.2714 27.0137 12.2844 27.0358 12.2844 27.0345Z" fill="#263238"/>
<path d="M12.3223 24.6766C12.5007 24.6983 12.6806 24.7052 12.8601 24.6974C13.0393 24.7052 13.2187 24.6978 13.3966 24.6753C13.2182 24.6544 13.0383 24.6475 12.8588 24.6545C12.6797 24.6475 12.5002 24.6549 12.3223 24.6766Z" fill="#263238"/>
<path d="M12.3313 26.0251C12.5096 26.0475 12.6896 26.0549 12.8691 26.0472C13.0487 26.0541 13.2286 26.0467 13.407 26.0251C13.2286 26.0026 13.0487 25.9952 12.8691 26.003C12.6896 25.9968 12.5098 26.0042 12.3313 26.0251Z" fill="#263238"/>
<path d="M12.8615 27.0488C12.8732 27.0488 12.8823 26.3278 12.8823 25.4379C12.8823 24.548 12.8706 23.8257 12.8589 23.8257C12.8472 23.8257 12.8381 24.548 12.8381 25.4379C12.8381 26.3278 12.8511 27.0488 12.8615 27.0488Z" fill="#263238"/>
<path d="M12.0949 23.8049H11.0205V27.0592H12.0949V23.8049Z" fill="white"/>
<path d="M11.0218 27.0592C11.0218 27.0592 11.0218 27.0592 11.0218 27.0423C11.0218 27.0255 11.0218 27.0125 11.0218 26.993C11.0218 26.9488 11.0218 26.8865 11.0218 26.8098C11.0218 26.6461 11.0218 26.4201 11.0283 26.1278C11.0283 25.5471 11.0283 24.7364 11.0361 23.8049L11.014 23.8257H12.0884C12.0455 23.7816 12.0767 23.814 12.0676 23.8049V24.2856C12.0676 24.4441 12.0676 24.6 12.0676 24.7533C12.0676 25.0586 12.0676 25.3509 12.0676 25.6276C12.0676 26.1797 12.0676 26.6669 12.0754 27.0566L12.0897 27.0423L11.3037 27.0514H11.0907H11.2998L12.0949 27.0579H12.1092V27.0436C12.1092 26.6539 12.1092 26.1654 12.1092 25.6146V23.7958C12.1001 23.7855 12.1313 23.8166 12.0871 23.7725H11.0127H10.9919V23.7932C10.9919 24.7312 11.001 25.5458 11.0036 26.1317C11.0036 26.4175 11.0036 26.6513 11.0101 26.8085C11.0101 26.8839 11.0101 26.9449 11.0101 26.9878C11.0101 27.0307 11.0218 27.0605 11.0218 27.0592Z" fill="#263238"/>
<path d="M11.01 24.6781C11.1884 24.6997 11.3683 24.7067 11.5478 24.6988C11.727 24.7059 11.9064 24.6985 12.0844 24.6768C11.9064 24.6559 11.727 24.6489 11.5478 24.656C11.3683 24.6489 11.1884 24.6563 11.01 24.6781Z" fill="#263238"/>
<path d="M11.0154 26.0266C11.1933 26.0491 11.3728 26.0564 11.5519 26.0487C11.7315 26.0557 11.9114 26.0483 12.0898 26.0266C11.9114 26.0041 11.7315 25.9967 11.5519 26.0045C11.3728 25.9975 11.1933 26.0049 11.0154 26.0266Z" fill="#263238"/>
<path d="M11.5518 27.0503C11.5648 27.0503 11.5739 26.3293 11.5726 25.4394C11.5713 24.5495 11.5622 23.8271 11.5492 23.8271C11.5362 23.8271 11.5284 24.5482 11.5297 25.4394C11.531 26.3306 11.5375 27.0503 11.5518 27.0503Z" fill="#263238"/>
<path d="M24.8507 23.7764H23.7764V27.0307H24.8507V23.7764Z" fill="white"/>
<path d="M23.7777 27.0319C23.7777 27.0319 23.7777 27.0254 23.7777 27.015V26.9656C23.7777 26.9215 23.7777 26.8591 23.7777 26.7825C23.7777 26.6188 23.7777 26.3927 23.7842 26.1004C23.7842 25.5197 23.7842 24.7091 23.792 23.7776L23.7699 23.7984H24.8443L24.8235 23.7776V24.2583C24.8235 24.4168 24.8235 24.5727 24.8235 24.7259C24.8235 25.0312 24.8235 25.3235 24.8235 25.6003C24.8235 26.1524 24.8235 26.6396 24.8313 27.0293L24.8456 27.015L24.0596 27.0241H23.8465H24.0557L24.8508 27.0306H24.865V27.0163C24.865 26.6266 24.865 26.1381 24.865 25.5873C24.865 25.3106 24.865 25.0182 24.865 24.713C24.865 24.5597 24.865 24.4038 24.865 24.2453V23.7646C24.856 23.7542 24.8871 23.7854 24.843 23.7412H23.7686H23.7478V23.762C23.7478 24.7 23.7569 25.5145 23.7595 26.1004C23.7595 26.3862 23.7595 26.6201 23.766 26.7773C23.766 26.8526 23.766 26.9072 23.766 26.9565C23.766 27.0059 23.7777 27.0332 23.7777 27.0319Z" fill="#263238"/>
<path d="M23.7637 24.6507C23.9421 24.6716 24.122 24.6785 24.3015 24.6715C24.4807 24.6785 24.6601 24.6711 24.838 24.6494C24.66 24.6286 24.4806 24.6216 24.3015 24.6286C24.1219 24.6216 23.9421 24.629 23.7637 24.6507Z" fill="#263238"/>
<path d="M23.7715 25.9992C23.9494 26.0217 24.1289 26.0291 24.308 26.0213C24.4876 26.0276 24.6674 26.0202 24.8459 25.9992C24.6675 25.9767 24.4876 25.9693 24.308 25.9771C24.1289 25.9701 23.9495 25.9775 23.7715 25.9992Z" fill="#263238"/>
<path d="M24.3053 27.0229C24.3183 27.0229 24.3274 26.3019 24.3261 25.412C24.3248 24.5221 24.3157 23.7998 24.3027 23.7998C24.2897 23.7998 24.2832 24.5208 24.2832 25.4159C24.2832 26.311 24.2936 27.0229 24.3053 27.0229Z" fill="#263238"/>
<path d="M23.1881 20.9326H20.76V22.7332H23.1881V20.9326Z" fill="white"/>
<path d="M20.7612 22.7346C20.7612 22.7346 20.7612 22.7216 20.7612 22.6995C20.7612 22.6774 20.7612 22.6423 20.7612 22.6034C20.7612 22.5168 20.7612 22.3946 20.7612 22.237C20.7612 21.9213 20.7612 21.4744 20.769 20.9379L20.7521 20.9561H23.1801C23.1801 20.9561 23.1386 20.9158 23.158 20.9353V21.4095C23.158 21.5667 23.158 21.7213 23.158 21.872C23.158 22.1734 23.158 22.4618 23.158 22.732L23.1775 22.7125L21.4302 22.7242H20.9301H20.8001H20.7534H20.7962H20.9262H21.4211L23.1814 22.732H23.2009V22.7125C23.2009 22.4423 23.2009 22.1539 23.2009 21.8525V20.9158C23.2217 20.934 23.1749 20.8885 23.1801 20.8937H20.7521H20.7339V20.9119C20.7339 21.4575 20.7417 21.9083 20.7443 22.2266C20.7443 22.3799 20.7443 22.5007 20.7443 22.5878C20.7443 22.6268 20.7443 22.6579 20.7443 22.6813C20.7464 22.7 20.7521 22.7181 20.7612 22.7346Z" fill="#263238"/>
<path d="M21.3511 21.3887C21.5088 21.514 21.675 21.6282 21.8486 21.7303C22.0143 21.8441 22.188 21.9457 22.3683 22.0343C22.2102 21.9088 22.0435 21.7947 21.8694 21.6927C21.7043 21.5788 21.531 21.4772 21.3511 21.3887Z" fill="#263238"/>
<path d="M21.9929 22.0134C22.0547 22.0761 22.1262 22.1283 22.2047 22.168C22.2774 22.2188 22.3576 22.2578 22.4424 22.2836C22.3793 22.2212 22.3065 22.1694 22.2268 22.1303C22.1557 22.079 22.0767 22.0395 21.9929 22.0134Z" fill="#263238"/>
<path d="M17.6903 24.2297H15.2622V26.0303H17.6903V24.2297Z" fill="white"/>
<path d="M15.2634 26.0318C15.2634 26.0318 15.2634 26.0188 15.2634 25.9967C15.2634 25.9746 15.2634 25.9408 15.2634 25.9006C15.2634 25.8122 15.2634 25.6901 15.2634 25.5355C15.2634 25.2185 15.2634 24.7716 15.2712 24.2364L15.253 24.2546H17.681L17.6602 24.2338V24.708C17.6602 24.8652 17.6602 25.0198 17.6602 25.1705C17.6602 25.4718 17.6602 25.7603 17.6602 26.0305L17.6797 26.011L15.9324 26.0227H15.4323H15.3023H15.2556C15.2698 26.024 15.2842 26.024 15.2984 26.0227H15.4284H15.9233L17.6836 26.0305H17.7031V26.0097C17.7031 25.7395 17.7031 25.4511 17.7031 25.1497V24.6872C17.7031 24.6092 17.7031 24.53 17.7031 24.4507V24.213L17.681 24.1909L15.253 24.1974H15.2361V24.2143C15.2361 24.7599 15.2439 25.2107 15.2465 25.529C15.2465 25.6823 15.2465 25.8044 15.2465 25.8902C15.2465 25.9291 15.2465 25.9603 15.2465 25.9837C15.2492 26.0006 15.2549 26.0169 15.2634 26.0318Z" fill="#263238"/>
<path d="M15.853 24.6807C16.1763 24.9223 16.5172 25.1394 16.8728 25.3302C16.7148 25.2047 16.5481 25.0906 16.374 24.9886C16.2079 24.8736 16.0338 24.7707 15.853 24.6807Z" fill="#263238"/>
<path d="M16.4949 25.312C16.5585 25.3734 16.6313 25.4247 16.7105 25.464C16.783 25.5155 16.8633 25.555 16.9483 25.5809C16.8856 25.518 16.8126 25.4662 16.7326 25.4276C16.6606 25.3757 16.5802 25.3366 16.4949 25.312Z" fill="#263238"/>
<path d="M13.6253 18.6411H11.1973V21.0692H13.6253V18.6411Z" fill="white"/>
<path d="M11.1985 21.0702C11.1997 21.0546 11.1997 21.039 11.1985 21.0234C11.1985 20.991 11.1985 20.9481 11.1985 20.8935C11.1985 20.7766 11.1985 20.609 11.1985 20.3986C11.1985 19.9712 11.1985 19.3671 11.2063 18.6435L11.1881 18.6629H13.6305C13.6305 18.6629 13.5889 18.6227 13.6084 18.6422V18.9695C13.6084 19.0787 13.6084 19.1878 13.6084 19.2943V19.9218C13.6084 20.3297 13.6084 20.7143 13.6084 21.0676L13.6266 21.0481L11.8728 21.0598H11.3778H11.2479H11.2011H11.244H11.3739H11.865L13.6305 21.0676H13.65V21.0494C13.65 20.6961 13.65 20.3115 13.65 19.9036V18.6227L13.6292 18.6006H11.2011H11.1816V18.6188C11.1816 19.3476 11.1907 19.9556 11.1933 20.3856C11.1933 20.5947 11.1933 20.7597 11.1933 20.8766C11.1933 20.9299 11.1933 20.9728 11.1933 21.0066C11.1933 21.0403 11.1985 21.0715 11.1985 21.0702Z" fill="#263238"/>
<path d="M11.7882 19.1062C11.9462 19.2308 12.1124 19.3445 12.2858 19.4466C12.4513 19.561 12.625 19.663 12.8055 19.7519C12.4817 19.511 12.1408 19.2939 11.7856 19.1023L11.7882 19.1062Z" fill="#263238"/>
<path d="M12.4299 19.7361C12.493 19.7986 12.5658 19.8504 12.6456 19.8894C12.7183 19.9402 12.7985 19.9792 12.8833 20.005C12.8206 19.9421 12.7477 19.8903 12.6677 19.8517C12.5953 19.8004 12.515 19.7613 12.4299 19.7361Z" fill="#263238"/>
<path d="M21.6515 23.3823L22.4375 23.3816L22.4373 23.1361L21.6513 23.1367L21.6515 23.3823Z" fill="#DCEAFC"/>
<path d="M15.214 22.9268C15.2257 22.9268 15.2348 21.7199 15.2335 20.2324C15.2322 18.7449 15.2218 17.5354 15.2088 17.5354C15.1958 17.5354 15.1881 18.7423 15.1893 20.2324C15.1906 21.7225 15.2023 22.9268 15.214 22.9268Z" fill="#263238"/>
<path d="M30.1577 26.8514C30.1707 26.8514 30.1798 26.0252 30.1785 25.0041C30.1772 23.983 30.1668 23.1567 30.1551 23.1567C30.1434 23.1567 30.1292 23.9869 30.1292 25.0041C30.1292 26.0213 30.146 26.8514 30.1577 26.8514Z" fill="#263238"/>
<path d="M19.0673 14.7045C19.0614 14.698 19.0565 14.6906 19.053 14.6825L19.0167 14.6188C18.9971 14.5847 18.9793 14.5496 18.9634 14.5136C18.9439 14.4733 18.9205 14.4265 18.8997 14.3733C18.8893 14.346 18.8776 14.3174 18.866 14.2888C18.8543 14.2602 18.8465 14.2278 18.8348 14.1966C18.8114 14.1329 18.7945 14.0667 18.775 13.9887C18.7355 13.8288 18.7095 13.6658 18.6971 13.5016C18.6873 13.3366 18.6908 13.171 18.7075 13.0066C18.7166 12.9312 18.7244 12.8598 18.7386 12.7935C18.7451 12.7598 18.7503 12.7286 18.7568 12.6974C18.7633 12.6662 18.7724 12.6376 18.7789 12.6104C18.7906 12.5545 18.8088 12.5051 18.8218 12.461C18.8348 12.4168 18.8491 12.3804 18.8608 12.3505C18.8725 12.3207 18.8802 12.2999 18.888 12.2817L18.8984 12.2583C18.8984 12.2583 18.8984 12.2674 18.8919 12.2843L18.8686 12.3531C18.8582 12.3843 18.8452 12.4207 18.8335 12.4649C18.8218 12.509 18.8049 12.5571 18.7932 12.6143C18.7867 12.6415 18.7802 12.6701 18.7737 12.7013C18.7672 12.7325 18.762 12.7637 18.7555 12.7961C18.7425 12.8624 18.736 12.9338 18.727 13.0092C18.7112 13.1724 18.7086 13.3366 18.7192 13.5003C18.7317 13.6634 18.7564 13.8254 18.7932 13.9848C18.8127 14.0576 18.8296 14.1277 18.8517 14.1914C18.8621 14.2226 18.8712 14.2537 18.8815 14.2836C18.8919 14.3135 18.9036 14.3408 18.914 14.3668C18.9335 14.4213 18.9556 14.4668 18.9738 14.5097C18.992 14.5525 19.0089 14.5863 19.0244 14.6149L19.0569 14.6799C19.0634 14.6955 19.0673 14.7032 19.0673 14.7045Z" fill="white"/>
<path d="M20.8288 13.047C20.8027 13.0319 20.7804 13.011 20.7638 12.9859C20.7197 12.9272 20.6964 12.8554 20.6975 12.782C20.6982 12.7088 20.7223 12.6377 20.7664 12.5793C20.7834 12.5544 20.8061 12.5339 20.8327 12.5195C20.8327 12.5195 20.808 12.5442 20.7794 12.5884C20.7405 12.6455 20.7192 12.7128 20.7183 12.782C20.7183 12.8516 20.7387 12.9198 20.7768 12.9781C20.8054 13.0223 20.8314 13.0444 20.8288 13.047Z" fill="white"/>
<path d="M21.2952 12.2012C21.2952 12.2012 21.2835 12.1622 21.2822 12.1128C21.2809 12.0635 21.2822 12.0232 21.29 12.0232C21.3009 12.0513 21.3054 12.0815 21.303 12.1115C21.3068 12.1416 21.3041 12.1722 21.2952 12.2012Z" fill="white"/>
<path d="M21.5445 11.0165C21.5212 11.019 21.4977 11.019 21.4744 11.0165C21.4471 11.0151 21.4198 11.0151 21.3925 11.0165C21.3613 11.0165 21.325 11.0165 21.2847 11.0165C21.2444 11.0165 21.2016 11.0165 21.1548 11.0255C21.108 11.0346 21.0573 11.0372 21.0054 11.045C20.8923 11.0646 20.7808 11.0919 20.6715 11.1269C20.5629 11.1626 20.457 11.206 20.3545 11.2568C20.3078 11.2815 20.2636 11.3036 20.2246 11.3295C20.1856 11.3555 20.1467 11.3763 20.1142 11.3984C20.0817 11.4205 20.0518 11.4426 20.0259 11.4621C19.9999 11.4815 19.9791 11.4971 19.9609 11.5114C19.9438 11.5272 19.9251 11.5412 19.905 11.553C19.9208 11.5358 19.9377 11.5198 19.9557 11.5049C19.976 11.4861 19.9972 11.4683 20.0194 11.4517C20.044 11.4322 20.0713 11.4088 20.1051 11.3867C20.1389 11.3646 20.1752 11.3386 20.2155 11.314C20.2558 11.2893 20.3 11.2646 20.3454 11.2386C20.4487 11.1876 20.5555 11.1442 20.665 11.1087C20.7754 11.0734 20.8883 11.0464 21.0028 11.0281C21.0548 11.0281 21.1054 11.0139 21.1535 11.0113C21.2016 11.0087 21.2444 11.0113 21.2834 11.0035C21.3224 10.9957 21.36 11.0035 21.3925 11.0035H21.4744L21.5445 11.0165Z" fill="white"/>
<path d="M21.8864 15.9922C21.8701 15.9988 21.8531 16.0036 21.8357 16.0065C21.7896 16.0187 21.7427 16.0283 21.6954 16.0351C21.3813 16.0861 21.0595 16.0625 20.7562 15.9662C20.6977 15.948 20.6509 15.9311 20.6198 15.9182C20.6034 15.9121 20.5877 15.9043 20.573 15.8948C20.5904 15.8981 20.6074 15.9034 20.6237 15.9104L20.7601 15.9519C20.911 15.9952 21.066 16.0226 21.2226 16.0338C21.3794 16.0454 21.5369 16.0411 21.6928 16.0208C21.7526 16.013 21.8007 16.0052 21.8344 15.9987C21.8515 15.9951 21.8689 15.9929 21.8864 15.9922Z" fill="white"/>
</svg>
