<svg width="40" height="40" viewBox="0 0 40 40" fill="none" xmlns="http://www.w3.org/2000/svg">
<circle cx="20" cy="20" r="19.5" fill="#EEFAFF" stroke="#63D0FF"/>
<rect width="18.2963" height="18.2963" transform="matrix(1 0 0 -1 10.1484 33.3704)" fill="#D5F2FF"/>
<mask id="mask0_1401_2635" style="mask-type:alpha" maskUnits="userSpaceOnUse" x="10" y="15" width="19" height="19">
<rect width="18.2963" height="18.2963" transform="matrix(1 0 0 -1 10.1484 33.3704)" fill="#FFF4DF"/>
</mask>
<g mask="url(#mask0_1401_2635)">
<path d="M10.3604 22.1781L7.86285 22.5073L7.84448 18.2625L10.3604 18.5288V22.1781Z" fill="#D5F2FF"/>
<path d="M28.9782 18.0407L28.8732 16.5624L25.9231 16.2436L26.1513 15.0748L29.5002 15.3267L29.4504 17.0044L29.718 18.1155L28.9782 18.0407Z" fill="#D5F2FF"/>
<path d="M23.6618 14.8858L26.0138 15.0642L25.5022 17.689L23.448 17.4817L23.6618 14.8858Z" fill="#D5F2FF"/>
<path d="M14.4346 24.9493L14.6418 24.5952L10.4967 22.1776V16.4439L14.8714 16.7535L23.3007 17.6048L22.9925 21.363L14.9383 22.4124L14.9921 22.8191L22.9584 21.7788L22.4337 28.1395L14.55 27.3813L14.5238 27.6529L22.4127 28.4137L22.1411 31.7324H14.5566L7.89681 30.5204L7.86401 22.9201L10.3865 22.5869L14.4346 24.9493ZM10.9217 16.9909C10.9217 16.9909 10.9532 21.7198 10.9217 21.8956L14.3034 23.6914L14.7481 17.2323L10.9217 16.9909Z" fill="#D5F2FF"/>
<path d="M28.7027 18.0117L25.6384 17.7035L25.8706 16.5124L28.6174 16.8088L28.7027 18.0117Z" fill="#D5F2FF"/>
<path d="M14.7638 11.2181L14.8071 16.6121L10.4993 16.3077L10.6514 11.0227L14.7638 11.2181Z" fill="#D5F2FF"/>
<path d="M15.5562 12.4632L21.6572 9.54061C21.7306 11.4505 21.7949 13.2358 21.7883 13.3447L21.9195 13.3526L21.9838 13.4837C22.0717 13.4404 22.0717 13.4405 22.0258 12.1379C22.0008 11.4112 21.9641 10.4444 21.9274 9.47765H24.038L23.7271 12.4107L23.3126 17.4675L15.3411 16.6621L15.5562 12.4632Z" fill="#D5F2FF"/>
<path d="M30.5115 21.4157L30.4419 22.1267L23.1289 21.3659L23.4372 17.6182L29.7506 18.2557L30.5115 21.4157Z" fill="#D5F2FF"/>
<path d="M20.4754 33.5547H17.743L17.4321 32.1446H20.4754V33.5547Z" fill="#D5F2FF"/>
<path d="M29.3822 33.0785L22.5401 33.552L22.262 31.9359L22.5492 28.4283L29.7639 29.1222L29.3822 33.0785ZM22.7919 31.9385L23.1592 32.9591L29.1014 32.5826L29.4399 29.6653L22.9874 28.8992L22.7919 31.9385Z" fill="#D5F2FF"/>
<path d="M30.0913 25.7471L29.7909 28.8494L22.571 28.1554L22.8426 24.8538L30.0913 25.7471Z" fill="#D5F2FF"/>
<path d="M23.0961 21.7736L26.1315 22.0897L25.5333 24.7722L22.8757 24.4443L23.0961 21.7736Z" fill="#D5F2FF"/>
<path d="M29.6455 37.3235L23.9748 37.3248L23.5039 37.3589L22.8638 33.6453L29.5944 33.1796L29.4383 34.7944L30.1007 37.1792L29.6455 37.3235Z" fill="#D5F2FF"/>
<path d="M30.1312 25.3391L25.6699 24.7882L26.2694 22.1043L30.4027 22.5346L30.1312 25.3391Z" fill="#D5F2FF"/>
<path d="M29.7703 10.5912L29.6877 12.5024L23.9304 12.223C23.7802 12.2162 23.6308 12.2478 23.4962 12.3148L15.3266 16.4416C15.2337 16.4887 15.1548 16.5594 15.098 16.6467C15.0411 16.734 15.0082 16.8347 15.0026 16.9387L13.8916 38.5026C13.8883 38.5538 13.8963 38.6051 13.9148 38.6529C13.9334 38.7007 13.9622 38.7439 13.9991 38.7794C14.0358 38.815 14.0794 38.8425 14.1273 38.8601C14.1752 38.8777 14.2263 38.8851 14.2772 38.8817L17.7783 38.6194V42.4497H18.1889V38.5682C18.1886 38.5187 18.1783 38.4698 18.1584 38.4245C18.1385 38.3792 18.1095 38.3384 18.0732 38.3047C18.037 38.271 17.9942 38.2451 17.9475 38.2287C17.9008 38.2122 17.8513 38.2054 17.8019 38.2088L14.3035 38.4712L15.4119 16.9584C15.4139 16.9266 15.4241 16.8958 15.4416 16.8691C15.4591 16.8424 15.4832 16.8208 15.5116 16.8063L23.6812 12.6795C23.7523 12.6439 23.8313 12.6272 23.9108 12.6309L29.7179 12.913C29.7656 12.9153 29.8133 12.9081 29.8583 12.892C29.9032 12.8758 29.9446 12.8509 29.9799 12.8187C30.0153 12.7866 30.0439 12.7477 30.0642 12.7045C30.0845 12.6612 30.0961 12.6144 30.0983 12.5667L30.1822 10.6082L29.7703 10.5912Z" fill="#63D0FF"/>
<path d="M43.6966 24.8105L42.2645 25.5419L39.5892 20.4385C39.519 20.3056 39.4213 20.1895 39.3053 20.1011L32.2175 14.7598C32.1368 14.6991 32.0459 14.6605 31.9539 14.6479C31.862 14.6353 31.7722 14.6492 31.6938 14.6881L15.4465 22.7855C15.4077 22.8041 15.3743 22.8326 15.3488 22.8687C15.3233 22.9049 15.3063 22.948 15.2989 22.9949C15.2913 23.0415 15.2932 23.0909 15.3043 23.1398C15.3154 23.1887 15.3356 23.236 15.3635 23.2787L17.305 26.2005L14.5177 27.8097L14.723 28.1653L17.5475 26.5346C17.5834 26.5136 17.6138 26.484 17.6368 26.4478C17.6598 26.4115 17.675 26.3693 17.6814 26.3237C17.6878 26.2782 17.6852 26.2302 17.6739 26.1829C17.6626 26.1355 17.6427 26.0898 17.6155 26.0485L15.6754 23.1289L31.8841 15.0508C31.9082 15.0391 31.9357 15.035 31.9639 15.039C31.992 15.0429 32.0199 15.0547 32.0446 15.0732L39.1324 20.4145C39.1939 20.4611 39.2455 20.5225 39.2825 20.5929L41.9809 25.7405C42.0031 25.7828 42.0321 25.8211 42.0664 25.8533C42.1006 25.8854 42.1394 25.9108 42.1805 25.9278C42.2215 25.9449 42.2641 25.9534 42.3057 25.9528C42.3474 25.9523 42.3872 25.9426 42.4231 25.9245L43.8902 25.1744L43.6966 24.8105Z" fill="#63D0FF"/>
<path d="M29.3082 36.5668L27.8761 37.2982L25.2008 32.1949C25.1306 32.062 25.0329 31.9459 24.9169 31.8574L17.8291 26.5161C17.7484 26.4555 17.6574 26.4169 17.5655 26.4043C17.4735 26.3917 17.3838 26.4055 17.3053 26.4444L1.05812 34.5418C1.01924 34.5605 0.985898 34.5889 0.960403 34.6251C0.934907 34.6612 0.917873 34.7043 0.910488 34.7512C0.902912 34.7979 0.904747 34.8473 0.915873 34.8962C0.927 34.945 0.947171 34.9924 0.975081 35.0351L2.91652 37.9569L0.129266 39.5661L0.334555 39.9217L3.15904 38.2909C3.19494 38.2699 3.22534 38.2404 3.24838 38.2041C3.27141 38.1679 3.28658 38.1256 3.29296 38.0801C3.29934 38.0345 3.29679 37.9866 3.28546 37.9392C3.27413 37.8919 3.25427 37.8461 3.2271 37.8048L1.28697 34.8853L17.4956 26.8071C17.5198 26.7954 17.5473 26.7914 17.5755 26.7953C17.6036 26.7992 17.6314 26.811 17.6562 26.8295L24.744 32.1708C24.8054 32.2175 24.8571 32.2789 24.8941 32.3492L27.5924 37.4968C27.6146 37.5391 27.6437 37.5775 27.6779 37.6096C27.7122 37.6418 27.751 37.6671 27.792 37.6842C27.8331 37.7013 27.8757 37.7098 27.9173 37.7092C27.9589 37.7086 27.9988 37.699 28.0346 37.6808L29.5017 36.9307L29.3082 36.5668Z" fill="#63D0FF"/>
</g>
<path d="M23.8445 18.779C23.8481 18.2114 23.7204 17.6505 23.4714 17.1404C23.2223 16.6303 22.8587 16.1847 22.4089 15.8384C21.9591 15.4921 21.4353 15.2545 20.8784 15.1442C20.3216 15.0338 19.7468 15.0538 19.1989 15.2025C18.651 15.3511 18.145 15.6244 17.7203 16.0011C17.2956 16.3778 16.9637 16.8475 16.7506 17.3737C16.5375 17.8999 16.449 18.4682 16.492 19.0342C16.535 19.6003 16.7083 20.1487 16.9983 20.6367L17.0091 20.6505C17.1502 20.8867 17.3266 21.057 17.5045 21.307L19.6398 24.1342C19.7016 24.2164 19.7816 24.2831 19.8736 24.3291C19.9656 24.3751 20.067 24.399 20.1698 24.399C20.2727 24.399 20.3741 24.3751 20.4661 24.3291C20.5581 24.2831 20.6381 24.2164 20.6998 24.1342L22.7983 21.353C22.9893 21.1275 23.1675 20.8914 23.3321 20.6459L23.3398 20.6367C23.6709 20.0736 23.8452 19.4322 23.8445 18.779ZM20.1629 20.379C19.8429 20.379 19.53 20.284 19.2638 20.1062C18.9977 19.9284 18.7903 19.6756 18.6678 19.3799C18.5453 19.0842 18.5132 18.7588 18.5757 18.4449C18.6381 18.131 18.7923 17.8426 19.0186 17.6163C19.2449 17.3899 19.5333 17.2358 19.8472 17.1734C20.1611 17.1109 20.4865 17.143 20.7823 17.2654C21.078 17.3879 21.3307 17.5954 21.5085 17.8615C21.6864 18.1276 21.7813 18.4405 21.7813 18.7606C21.7817 19.1891 21.6119 19.6003 21.3094 19.9038C21.0068 20.2072 20.5961 20.3781 20.1675 20.379H20.1629Z" fill="#2198EF"/>
</svg>
