<svg width="25" height="24" viewBox="0 0 25 24" fill="none" xmlns="http://www.w3.org/2000/svg">
<mask id="mask0_1372_1197" style="mask-type:alpha" maskUnits="userSpaceOnUse" x="0" y="0" width="25" height="24">
<rect x="0.5" width="24" height="24" fill="#D9D9D9"/>
</mask>
<g mask="url(#mask0_1372_1197)">
<path d="M8.5 21C7.95 21 7.47917 20.8042 7.0875 20.4125C6.69583 20.0208 6.5 19.55 6.5 19V5C6.5 4.45 6.69583 3.97917 7.0875 3.5875C7.47917 3.19583 7.95 3 8.5 3H13.5C15.1667 3 16.5833 3.58333 17.75 4.75C18.9167 5.91667 19.5 7.33333 19.5 9C19.5 10.6667 18.9167 12.0833 17.75 13.25C16.5833 14.4167 15.1667 15 13.5 15H10.5V19C10.5 19.55 10.3042 20.0208 9.9125 20.4125C9.52083 20.8042 9.05 21 8.5 21ZM10.5 11H13.7C14.25 11 14.7208 10.8042 15.1125 10.4125C15.5042 10.0208 15.7 9.55 15.7 9C15.7 8.45 15.5042 7.97917 15.1125 7.5875C14.7208 7.19583 14.25 7 13.7 7H10.5V11Z" fill="#2D4356"/>
</g>
</svg>
