<svg width="204" height="212" viewBox="0 0 204 212" fill="none" xmlns="http://www.w3.org/2000/svg">
<path d="M123.239 206.247C123.239 207.496 115.285 208.504 105.453 208.504C95.6207 208.504 87.6672 207.496 87.6672 206.247C87.6672 204.997 95.6207 203.967 105.453 203.967C115.285 203.967 123.239 204.997 123.239 206.247Z" fill="#E0E0E0"/>
<path d="M70.4926 59.8242C71.9621 58.9373 73.5433 58.2502 75.1944 57.7811L76.1612 53.1249L84.028 52.988L85.159 57.6032C86.8261 58.0129 88.4306 58.6449 89.9293 59.4821L93.906 56.8781L99.5655 62.3507L97.0983 66.414C97.987 67.8827 98.6742 69.4641 99.1414 71.1159L103.784 72.0553L103.921 79.9221L99.3056 81.0531C98.8954 82.7201 98.2634 84.3244 97.4267 85.8234L100.031 89.8001L94.5582 95.4551L90.4948 92.9924C89.0236 93.8793 87.4409 94.5664 85.7884 95.0355L84.8216 99.6917L76.9593 99.8286L75.8238 95.2134C74.1581 94.7991 72.5543 94.1673 71.0535 93.3345L67.0814 95.9385L61.4218 90.4659L63.8845 86.4026C62.9976 84.933 62.3105 83.3518 61.8414 81.7007L57.1852 80.7339L57.0483 72.8671L61.6681 71.7361C62.0787 70.07 62.709 68.4659 63.5424 66.9659L60.9384 62.9891L66.411 57.3342L70.4743 59.7968L70.4926 59.8242ZM74.6837 70.3132C73.5247 71.5137 72.7478 73.0309 72.4512 74.673C72.1545 76.315 72.3514 78.0082 73.017 79.5383C73.6826 81.0684 74.787 82.3668 76.1905 83.2693C77.594 84.1718 79.2336 84.6378 80.902 84.6085C82.5703 84.5792 84.1925 84.0558 85.5634 83.1045C86.9343 82.1532 87.9924 80.8168 88.6038 79.2642C89.2151 77.7116 89.3524 76.0126 88.9982 74.382C88.644 72.7514 87.8142 71.2625 86.6138 70.1035C85.006 68.5488 82.8467 67.6961 80.6104 67.7329C78.3742 67.7697 76.244 68.6929 74.6882 70.2996L74.6837 70.3132Z" fill="#F5F5F5"/>
<path d="M116.749 73.542C117.986 73.1143 119.274 72.8535 120.58 72.7668L122.044 69.4513L127.927 70.6005L128.036 74.2215C129.215 74.7933 130.312 75.5204 131.297 76.3832L134.672 75.0698L138.024 80.0453L135.538 82.6812C135.966 83.9181 136.226 85.2063 136.314 86.512L139.629 87.9759L138.485 93.8589L134.859 93.9683C134.288 95.1464 133.563 96.243 132.702 97.2291L134.011 100.608L129.04 103.979L126.399 101.498C125.163 101.926 123.874 102.185 122.568 102.268L121.109 105.588L115.222 104.435L115.112 100.786C113.935 100.217 112.839 99.4915 111.856 98.6291L108.477 99.938L105.152 94.9717L107.633 92.3357C107.206 91.0989 106.945 89.8106 106.858 88.5049L103.542 87.041L104.669 81.1762L108.29 81.0668C108.862 79.8908 109.587 78.7958 110.447 77.8106L109.138 74.4313L114.113 71.0839L116.749 73.5648V73.542ZM118.209 82.0199C117.153 82.7307 116.331 83.7386 115.848 84.9162C115.365 86.0939 115.242 87.3883 115.495 88.6358C115.748 89.8833 116.365 91.0278 117.268 91.9246C118.171 92.8213 119.32 93.4301 120.57 93.6738C121.819 93.9176 123.112 93.7853 124.287 93.2938C125.461 92.8023 126.463 91.9737 127.166 90.9127C127.869 89.8517 128.242 88.606 128.237 87.3332C128.232 86.0603 127.849 84.8176 127.138 83.762C126.185 82.3473 124.708 81.369 123.034 81.0424C121.36 80.7157 119.624 81.0673 118.209 82.0199Z" fill="#EBEBEB"/>
<path d="M137.367 10.0649C137.367 10.0649 137.408 10.0649 137.477 10.1425C137.545 10.22 137.645 10.2838 137.782 10.3842C138.181 10.6923 138.6 10.9727 139.036 11.2233C139.724 11.6187 140.453 11.9353 141.212 12.1673C142.216 12.4703 143.264 12.6074 144.313 12.5732C145.586 12.4975 146.853 12.3452 148.107 12.1171C149.559 11.8666 151.038 11.819 152.503 11.9758C154.125 12.1693 155.703 12.6316 157.173 13.3439C160.363 14.8876 162.812 17.6328 163.982 20.9781C164.527 22.518 164.768 24.1487 164.693 25.7803C164.639 27.3354 164.42 28.7902 164.383 30.1629C164.317 31.4347 164.482 32.7081 164.871 33.9207C165.2 34.9188 165.683 35.8591 166.303 36.7072C166.767 37.3516 167.305 37.938 167.909 38.4538C168.15 38.6727 168.365 38.8369 168.588 38.992C168.812 39.147 168.967 39.2565 169.113 39.3477L169.45 39.5483C169.523 39.5985 169.564 39.6213 169.564 39.6259C169.521 39.6085 169.48 39.5872 169.441 39.562L169.099 39.375C168.948 39.2884 168.771 39.1653 168.561 39.0284C168.351 38.8916 168.105 38.7183 167.868 38.4994C166.435 37.2925 165.362 35.7148 164.766 33.939C164.365 32.7162 164.192 31.4301 164.256 30.1447C164.288 28.7765 164.502 27.2989 164.552 25.7575C164.62 24.1441 164.379 22.5326 163.841 21.0101C162.684 17.7035 160.264 14.9907 157.109 13.467C155.657 12.7594 154.098 12.2971 152.494 12.0989C151.041 11.9404 149.572 11.9833 148.13 12.2266C146.871 12.4561 145.599 12.6084 144.322 12.6826C143.26 12.7041 142.201 12.55 141.189 12.2266C139.945 11.8363 138.785 11.2177 137.768 10.4024C137.632 10.293 137.536 10.2018 137.472 10.147L137.367 10.0649Z" fill="#E0E0E0"/>
<path d="M145.17 0C145.686 0.461384 146.172 0.954898 146.625 1.47759C147.167 2.08227 147.662 2.72714 148.107 3.40667C148.713 4.30278 149.156 5.29847 149.416 6.34816C149.485 6.64846 149.532 6.95326 149.557 7.26026C149.557 7.57949 149.557 7.89872 149.557 8.22252C149.557 8.87466 149.53 9.54961 149.516 10.2519C149.489 11.652 149.443 13.1524 149.466 14.7257C149.494 16.3683 149.802 17.994 150.378 19.5325C150.998 21.1857 151.955 22.6921 153.187 23.9561C154.431 25.2113 155.944 26.1673 157.611 26.7517C159.16 27.3067 160.819 27.4819 162.45 27.2624C164.005 27.0527 165.441 26.5921 166.828 26.3504C167.497 26.2214 168.176 26.1557 168.857 26.1543C169.486 26.1627 170.112 26.2314 170.727 26.3595C171.782 26.5916 172.794 26.9903 173.723 27.5406C174.424 27.9553 175.068 28.4597 175.639 29.041C176.002 29.4045 176.331 29.7998 176.624 30.2222L176.838 30.5551L176.911 30.6737C176.882 30.6387 176.854 30.6021 176.829 30.5642C176.77 30.4867 176.697 30.3772 176.596 30.2404C175.812 29.1758 174.819 28.282 173.678 27.6136C172.765 27.0734 171.772 26.6809 170.736 26.4507C170.128 26.3272 169.51 26.263 168.889 26.2591C168.216 26.2631 167.544 26.3287 166.883 26.4552C165.514 26.7015 164.073 27.1712 162.504 27.3673C160.855 27.6047 159.174 27.4468 157.597 26.9067C155.907 26.3164 154.374 25.3478 153.114 24.0747C151.866 22.7957 150.899 21.2704 150.273 19.5963C149.691 18.0422 149.382 16.3989 149.361 14.7394C149.338 13.1569 149.389 11.6611 149.425 10.2565C149.425 9.55873 149.457 8.88834 149.471 8.23164C149.471 7.90328 149.471 7.58861 149.471 7.2785C149.447 6.9719 149.402 6.66722 149.338 6.36641C149.085 5.32694 148.653 4.33938 148.061 3.44771C147.626 2.76775 147.139 2.12139 146.607 1.51407C146.151 1.00786 145.813 0.633905 145.567 0.383079L145.289 0.0957693L145.17 0Z" fill="#E0E0E0"/>
<path d="M149.516 7.69801C149.548 7.72537 148.636 8.87005 147.478 10.2564C146.319 11.6428 145.353 12.7419 145.321 12.7145C145.289 12.6872 146.201 11.5425 147.359 10.1561C148.518 8.76972 149.484 7.67065 149.516 7.69801Z" fill="#E0E0E0"/>
<path d="M148.732 4.79307C148.764 4.82499 147.172 6.485 145.179 8.50984C143.186 10.5347 141.531 12.1582 141.531 12.1126C141.531 12.067 143.09 10.4207 145.083 8.40039C147.076 6.38011 148.7 4.76114 148.732 4.79307Z" fill="#E0E0E0"/>
<path d="M147.108 2.0978C147.14 2.12516 145.206 4.10897 142.794 6.52145C140.381 8.93394 138.402 10.8676 138.37 10.8356C138.338 10.8037 140.272 8.82449 142.684 6.412C145.097 3.99952 147.076 2.06588 147.108 2.0978Z" fill="#E0E0E0"/>
<path d="M164.438 22.9665C164.465 22.9984 163.339 24.0108 161.921 25.2467C160.502 26.4826 159.335 27.4266 159.303 27.3947C159.271 27.3628 160.402 26.3503 161.82 25.1144C163.239 23.8786 164.392 22.93 164.438 22.9665Z" fill="#E0E0E0"/>
<path d="M162.919 18.9716C162.841 19.079 162.753 19.1783 162.655 19.268C162.482 19.4504 162.222 19.724 161.898 20.0205C161.246 20.6498 160.334 21.5026 159.298 22.4147C158.263 23.3268 157.296 24.1203 156.59 24.6949C156.234 24.9731 155.946 25.1966 155.741 25.3471C155.643 25.4353 155.535 25.5104 155.417 25.5705C155.504 25.4713 155.6 25.3811 155.705 25.3015L156.521 24.6083C157.21 24.0246 158.158 23.2402 159.194 22.3281C160.229 21.416 161.155 20.5814 161.82 19.9749L162.614 19.2224C162.707 19.1285 162.809 19.0445 162.919 18.9716Z" fill="#E0E0E0"/>
<path d="M160.612 15.9069C160.511 16.0123 160.401 16.1085 160.283 16.1942L159.371 16.9512C158.587 17.5897 157.515 18.479 156.357 19.4959C155.198 20.5129 154.181 21.4661 153.447 22.1593L152.581 22.9801C152.481 23.0893 152.369 23.1872 152.248 23.272C152.332 23.1513 152.428 23.0397 152.535 22.9391C152.727 22.7339 153.014 22.4374 153.37 22.0817C154.086 21.3657 155.098 20.3989 156.256 19.3774C157.415 18.3558 158.5 17.4802 159.303 16.8646C159.704 16.559 160.033 16.3127 160.265 16.1486C160.373 16.0577 160.489 15.9768 160.612 15.9069Z" fill="#E0E0E0"/>
<path d="M156.795 13.8273C156.725 13.9181 156.646 14.0007 156.557 14.0735L155.878 14.6983C155.303 15.2273 154.51 15.957 153.652 16.7779C152.795 17.5988 152.029 18.3558 151.477 18.9076L150.82 19.5598C150.746 19.6456 150.66 19.7208 150.565 19.7832C150.626 19.687 150.696 19.5969 150.775 19.5142C150.921 19.35 151.13 19.1174 151.4 18.8301C151.929 18.26 152.686 17.4893 153.543 16.6639C154.4 15.8384 155.212 15.1224 155.823 14.6162C156.12 14.3654 156.361 14.1602 156.535 14.0279C156.614 13.9525 156.701 13.8853 156.795 13.8273Z" fill="#E0E0E0"/>
<path d="M153.835 12.1947C153.18 12.9106 152.487 13.5911 151.76 14.2332C151.068 14.9143 150.338 15.5568 149.575 16.1577C150.238 15.4484 150.936 14.7741 151.669 14.1375C152.356 13.4526 153.079 12.8041 153.835 12.1947Z" fill="#E0E0E0"/>
<path d="M170.116 26.218C170.057 26.3035 169.988 26.3816 169.911 26.4506L169.299 27.0161C168.757 27.5223 168.059 28.1653 167.284 28.8768C166.508 29.5882 165.824 30.2449 165.286 30.7557L164.675 31.3212C164.603 31.3937 164.524 31.4579 164.438 31.5127C164.438 31.5127 164.497 31.4215 164.634 31.2756C164.771 31.1296 164.962 30.9244 165.209 30.6736C165.701 30.1719 166.394 29.4924 167.179 28.7628C167.963 28.0331 168.693 27.3946 169.226 26.9386C169.496 26.7105 169.714 26.5327 169.87 26.4096C169.942 26.3337 170.025 26.2692 170.116 26.218Z" fill="#E0E0E0"/>
<path d="M173.837 27.6227C173.865 27.6501 172.013 29.4469 169.674 31.6086C167.334 33.7702 165.437 35.5123 165.405 35.4804C165.373 35.4485 167.229 33.6562 169.569 31.4946C171.908 29.3329 173.805 27.5908 173.837 27.6227Z" fill="#E0E0E0"/>
<path d="M176.396 29.0547C176.428 29.0821 174.421 31.116 171.917 33.6152C169.414 36.1143 167.357 38.0753 167.325 38.0434C167.293 38.0115 169.3 35.982 171.808 33.4829C174.316 30.9838 176.368 29.0228 176.396 29.0547Z" fill="#E0E0E0"/>
<path d="M179.944 163.306L180.03 163.123L180.08 163.023C180.08 162.982 180.108 162.936 180.126 162.891C180.167 162.781 180.198 162.668 180.217 162.553C180.217 162.489 180.245 162.421 180.254 162.348V162.12C180.26 162.035 180.26 161.95 180.254 161.865C180.254 161.773 180.254 161.682 180.254 161.586C180.202 161.146 180.095 160.714 179.934 160.3C179.479 159.168 178.851 158.113 178.074 157.172C177.064 155.915 175.942 154.752 174.722 153.697C173.249 152.408 171.687 151.226 170.047 150.158C168.17 148.926 166.209 147.827 164.178 146.87C163.106 146.368 161.984 145.898 160.817 145.474C159.626 145.037 158.407 144.679 157.169 144.403C155.893 144.1 154.585 143.958 153.274 143.978C152.605 143.992 151.942 144.107 151.308 144.32C150.992 144.431 150.693 144.584 150.419 144.776C150.148 144.976 149.918 145.225 149.74 145.511C149.577 145.807 149.469 146.13 149.42 146.464C149.386 146.797 149.395 147.132 149.448 147.463C149.57 148.12 149.791 148.755 150.104 149.346C150.718 150.501 151.475 151.573 152.357 152.538C153.201 153.483 154.104 154.372 155.062 155.202C155.974 156.018 156.95 156.77 157.912 157.482C159.733 158.796 161.644 159.98 163.631 161.025C165.362 161.943 167.155 162.737 168.998 163.401C170.517 163.951 172.081 164.363 173.673 164.633C174.876 164.856 176.106 164.894 177.321 164.747C177.761 164.686 178.192 164.57 178.603 164.4C178.694 164.368 178.772 164.318 178.854 164.282C178.93 164.245 179.003 164.203 179.072 164.154L179.269 164.026L179.428 163.894C179.519 163.822 179.603 163.741 179.679 163.652C179.711 163.616 179.743 163.584 179.77 163.547L179.834 163.456L179.957 163.287L179.843 163.461L179.779 163.556L179.688 163.661C179.613 163.75 179.531 163.833 179.442 163.908L179.278 164.04L179.086 164.172C179.014 164.219 178.94 164.262 178.863 164.3C178.781 164.336 178.703 164.386 178.612 164.423C178.2 164.596 177.768 164.714 177.326 164.774C176.112 164.931 174.881 164.897 173.677 164.674C172.084 164.41 170.518 164.001 168.998 163.452C167.154 162.79 165.358 161.997 163.626 161.08C161.635 160.038 159.721 158.856 157.898 157.541C156.936 156.843 155.978 156.091 155.039 155.261C154.079 154.431 153.174 153.54 152.33 152.593C151.438 151.62 150.672 150.538 150.05 149.373C149.735 148.775 149.512 148.132 149.388 147.467C149.334 147.128 149.324 146.783 149.361 146.441C149.408 146.098 149.519 145.767 149.689 145.465C149.872 145.17 150.109 144.912 150.387 144.703C150.67 144.513 150.977 144.359 151.299 144.247C151.941 144.035 152.611 143.919 153.288 143.905C154.604 143.884 155.919 144.027 157.201 144.33C158.439 144.609 159.658 144.97 160.849 145.41C162.016 145.834 163.129 146.322 164.215 146.81C166.248 147.771 168.211 148.874 170.088 150.112C171.729 151.182 173.291 152.367 174.763 153.66C175.983 154.72 177.105 155.887 178.115 157.149C178.89 158.096 179.516 159.155 179.971 160.291C180.128 160.708 180.233 161.143 180.281 161.586C180.281 161.682 180.281 161.778 180.281 161.869C180.288 161.954 180.288 162.039 180.281 162.124C180.281 162.207 180.281 162.284 180.281 162.357C180.281 162.43 180.254 162.498 180.24 162.562C180.219 162.678 180.187 162.791 180.144 162.9C180.144 162.945 180.117 162.991 180.099 163.027L180.044 163.132L179.944 163.306Z" fill="#E0E0E0"/>
<path d="M182.415 150.915C182.415 150.915 182.392 150.851 182.356 150.719C182.356 150.687 182.356 150.65 182.324 150.609L182.274 150.482C182.231 150.374 182.18 150.27 182.119 150.171C182.082 150.117 182.05 150.053 182.009 149.994L181.868 149.811C181.818 149.742 181.762 149.678 181.699 149.62C181.639 149.55 181.573 149.484 181.503 149.424C181.169 149.126 180.798 148.873 180.4 148.671C179.307 148.131 178.138 147.762 176.934 147.577C175.341 147.313 173.728 147.192 172.113 147.216C170.158 147.23 168.205 147.383 166.271 147.672C164.051 148.001 161.856 148.485 159.704 149.123C158.569 149.465 157.424 149.857 156.266 150.317C155.089 150.783 153.943 151.324 152.836 151.936C151.682 152.562 150.61 153.327 149.644 154.217C149.155 154.672 148.737 155.198 148.403 155.776C148.245 156.071 148.125 156.385 148.048 156.711C147.973 157.041 147.969 157.382 148.034 157.713C148.099 158.045 148.233 158.359 148.426 158.636C148.623 158.908 148.855 159.153 149.115 159.365C149.643 159.776 150.23 160.103 150.857 160.337C152.088 160.79 153.37 161.088 154.674 161.226C155.932 161.369 157.198 161.432 158.464 161.413C159.704 161.413 160.917 161.326 162.112 161.203C164.343 160.982 166.556 160.604 168.734 160.072C170.635 159.596 172.5 158.987 174.316 158.248C175.817 157.656 177.261 156.928 178.63 156.073C179.673 155.442 180.613 154.655 181.417 153.738C181.707 153.402 181.95 153.03 182.142 152.63C182.183 152.545 182.22 152.458 182.251 152.37C182.284 152.293 182.311 152.213 182.333 152.132L182.392 151.904C182.392 151.836 182.415 151.763 182.424 151.699C182.445 151.585 182.452 151.469 182.447 151.353C182.449 151.307 182.449 151.261 182.447 151.216V151.102C182.447 150.97 182.424 150.897 182.424 150.897L182.452 151.102V151.216V151.353C182.465 151.468 182.465 151.584 182.452 151.699C182.452 151.768 182.452 151.836 182.424 151.909C182.397 151.982 182.383 152.055 182.365 152.137C182.343 152.219 182.316 152.3 182.283 152.379C182.253 152.467 182.218 152.554 182.178 152.639C181.986 153.04 181.743 153.415 181.458 153.756C180.655 154.68 179.713 155.474 178.667 156.109C177.298 156.969 175.854 157.702 174.352 158.298C172.535 159.036 170.668 159.646 168.766 160.122C166.584 160.668 164.367 161.06 162.13 161.294C160.949 161.418 159.736 161.491 158.482 161.504C157.213 161.528 155.944 161.465 154.683 161.317C153.371 161.176 152.083 160.87 150.848 160.405C150.213 160.168 149.618 159.836 149.083 159.42C148.816 159.204 148.58 158.952 148.381 158.672C148.186 158.385 148.049 158.063 147.975 157.724C147.911 157.383 147.911 157.034 147.975 156.693C148.054 156.359 148.177 156.037 148.34 155.735C148.676 155.148 149.098 154.614 149.594 154.153C150.559 153.263 151.631 152.497 152.786 151.873C153.897 151.263 155.048 150.726 156.229 150.267C157.383 149.811 158.537 149.41 159.672 149.072C161.832 148.434 164.034 147.951 166.262 147.627C168.199 147.334 170.154 147.182 172.113 147.171C173.73 147.148 175.345 147.273 176.938 147.545C178.146 147.734 179.319 148.108 180.413 148.653C180.811 148.859 181.18 149.115 181.512 149.414C181.585 149.474 181.645 149.551 181.708 149.611C181.767 149.672 181.822 149.738 181.873 149.807C181.923 149.87 181.973 149.934 182.014 149.994C182.055 150.053 182.087 150.117 182.123 150.176C182.185 150.274 182.235 150.378 182.274 150.486C182.293 150.529 182.31 150.573 182.324 150.618L182.356 150.728C182.397 150.851 182.415 150.915 182.415 150.915Z" fill="#E0E0E0"/>
<path d="M173.303 137.913L173.112 137.835L173.007 137.794L172.875 137.758C172.763 137.723 172.649 137.7 172.533 137.69L172.323 137.667H172.09C172.007 137.66 171.923 137.66 171.84 137.667C171.746 137.671 171.653 137.682 171.561 137.699C171.126 137.783 170.702 137.919 170.298 138.105C169.203 138.64 168.195 139.34 167.311 140.18C166.124 141.273 165.041 142.473 164.073 143.764C162.894 145.322 161.828 146.962 160.881 148.671C159.78 150.627 158.818 152.659 158.003 154.75C157.579 155.854 157.182 157.008 156.84 158.198C156.489 159.414 156.215 160.651 156.019 161.901C155.807 163.196 155.756 164.511 155.869 165.818C155.923 166.482 156.077 167.134 156.325 167.752C156.459 168.06 156.634 168.348 156.845 168.609C157.065 168.864 157.331 169.076 157.629 169.234C157.932 169.379 158.261 169.464 158.596 169.485C158.932 169.499 159.268 169.467 159.595 169.389C160.239 169.223 160.854 168.96 161.419 168.609C162.532 167.915 163.554 167.085 164.461 166.138C165.35 165.234 166.18 164.275 166.946 163.265C167.694 162.275 168.378 161.267 169.007 160.264C170.191 158.356 171.24 156.367 172.145 154.312C172.941 152.525 173.61 150.684 174.147 148.803C174.594 147.253 174.899 145.666 175.059 144.06C175.201 142.845 175.155 141.614 174.922 140.412C174.833 139.977 174.687 139.556 174.489 139.158C174.448 139.075 174.403 138.994 174.352 138.916C174.312 138.841 174.264 138.769 174.211 138.702L174.07 138.52C174.024 138.46 173.974 138.415 173.928 138.364C173.85 138.279 173.763 138.203 173.668 138.136C173.627 138.105 173.595 138.073 173.559 138.05L173.463 137.991L173.29 137.886L173.468 137.986L173.563 138.041C173.6 138.063 173.636 138.095 173.677 138.127C173.772 138.194 173.859 138.27 173.937 138.355C173.983 138.401 174.038 138.451 174.083 138.506L174.229 138.693C174.282 138.759 174.329 138.829 174.371 138.903C174.422 138.98 174.467 139.061 174.507 139.144C174.715 139.542 174.868 139.965 174.963 140.403C175.2 141.604 175.25 142.835 175.114 144.051C174.954 145.661 174.648 147.253 174.202 148.808C173.668 150.692 173 152.536 172.204 154.326C171.302 156.385 170.253 158.377 169.067 160.287C168.442 161.294 167.758 162.302 167.005 163.292C166.245 164.31 165.418 165.275 164.529 166.183C163.619 167.136 162.592 167.971 161.474 168.669C160.898 169.024 160.272 169.29 159.617 169.458C159.283 169.537 158.939 169.571 158.596 169.558C158.244 169.545 157.9 169.456 157.585 169.299C157.271 169.142 156.993 168.919 156.772 168.646C156.554 168.381 156.374 168.086 156.238 167.77C155.98 167.145 155.819 166.483 155.759 165.809C155.646 164.498 155.698 163.177 155.914 161.878C156.106 160.624 156.382 159.384 156.74 158.166C157.082 156.971 157.474 155.817 157.903 154.709C158.723 152.631 159.687 150.614 160.79 148.671C161.747 146.961 162.823 145.32 164.009 143.76C164.984 142.47 166.072 141.27 167.261 140.175C168.153 139.337 169.168 138.64 170.271 138.109C170.675 137.922 171.101 137.787 171.539 137.708C171.634 137.708 171.73 137.708 171.817 137.676C171.902 137.669 171.987 137.669 172.072 137.676H172.309L172.514 137.699C172.63 137.715 172.744 137.739 172.857 137.772L172.989 137.813L173.098 137.854L173.303 137.913Z" fill="#E0E0E0"/>
<path d="M149.229 164.879C149.335 164.952 149.417 165.054 149.465 165.173C149.513 165.292 149.525 165.423 149.499 165.549C149.473 165.675 149.41 165.79 149.319 165.881C149.228 165.971 149.111 166.033 148.985 166.057C148.859 166.082 148.728 166.069 148.61 166.019C148.491 165.97 148.39 165.886 148.318 165.779C148.247 165.672 148.209 165.547 148.208 165.418C148.208 165.29 148.246 165.164 148.317 165.057C148.364 164.984 148.426 164.922 148.497 164.873C148.569 164.825 148.65 164.792 148.735 164.775C148.82 164.758 148.908 164.759 148.993 164.777C149.077 164.795 149.158 164.829 149.229 164.879Z" fill="#E0E0E0"/>
<path d="M181.348 137.931C181.374 138.058 181.361 138.189 181.312 138.308C181.263 138.428 181.18 138.53 181.072 138.602C180.965 138.674 180.839 138.712 180.71 138.712C180.581 138.712 180.455 138.674 180.347 138.603C180.24 138.531 180.156 138.429 180.107 138.31C180.057 138.191 180.044 138.06 180.069 137.933C180.095 137.806 180.157 137.69 180.248 137.599C180.339 137.508 180.456 137.446 180.582 137.42C180.751 137.387 180.927 137.422 181.071 137.517C181.214 137.613 181.314 137.762 181.348 137.931Z" fill="#E0E0E0"/>
<path d="M153.68 166.179C153.684 166.2 153.684 166.222 153.68 166.243C153.676 166.264 153.667 166.285 153.655 166.303C153.643 166.321 153.628 166.336 153.609 166.348C153.591 166.36 153.571 166.368 153.55 166.373C153.529 166.377 153.507 166.377 153.486 166.372C153.464 166.368 153.444 166.36 153.426 166.348C153.408 166.336 153.393 166.32 153.381 166.302C153.369 166.284 153.36 166.264 153.356 166.243C153.348 166.2 153.357 166.155 153.381 166.119C153.405 166.082 153.443 166.057 153.486 166.049C153.529 166.04 153.574 166.049 153.61 166.074C153.646 166.098 153.671 166.136 153.68 166.179Z" fill="#E0E0E0"/>
<path d="M153.593 147.59C153.602 147.633 153.593 147.678 153.568 147.714C153.544 147.751 153.506 147.776 153.463 147.784C153.42 147.793 153.376 147.784 153.34 147.759C153.303 147.735 153.278 147.697 153.27 147.654C153.265 147.633 153.265 147.61 153.269 147.589C153.273 147.567 153.282 147.546 153.294 147.528C153.306 147.51 153.322 147.494 153.341 147.482C153.359 147.47 153.38 147.462 153.402 147.458C153.423 147.454 153.445 147.454 153.466 147.459C153.487 147.463 153.507 147.472 153.525 147.484C153.543 147.497 153.558 147.512 153.57 147.531C153.581 147.549 153.589 147.569 153.593 147.59Z" fill="#E0E0E0"/>
<path d="M180.66 151.266C180.664 151.287 180.663 151.309 180.659 151.33C180.654 151.351 180.646 151.371 180.633 151.389C180.621 151.407 180.605 151.422 180.587 151.434C180.569 151.446 180.549 151.454 180.527 151.458C180.506 151.462 180.485 151.463 180.464 151.459C180.442 151.455 180.422 151.446 180.404 151.435C180.387 151.423 180.371 151.407 180.359 151.389C180.348 151.371 180.34 151.351 180.336 151.33C180.331 151.309 180.331 151.287 180.335 151.265C180.339 151.244 180.347 151.223 180.359 151.205C180.371 151.187 180.386 151.171 180.404 151.159C180.422 151.147 180.442 151.138 180.464 151.134C180.485 151.129 180.507 151.129 180.529 151.133C180.551 151.137 180.571 151.146 180.59 151.158C180.608 151.171 180.624 151.186 180.636 151.205C180.648 151.224 180.656 151.244 180.66 151.266Z" fill="#E0E0E0"/>
<path d="M181.412 143.249C181.417 143.27 181.417 143.291 181.413 143.313C181.409 143.334 181.401 143.354 181.389 143.372C181.377 143.39 181.362 143.405 181.344 143.417C181.326 143.428 181.305 143.437 181.284 143.44C181.263 143.445 181.241 143.445 181.22 143.441C181.198 143.438 181.178 143.429 181.159 143.418C181.141 143.406 181.125 143.39 181.113 143.372C181.101 143.354 181.092 143.334 181.088 143.313C181.083 143.291 181.083 143.269 181.087 143.247C181.092 143.225 181.1 143.205 181.113 143.186C181.125 143.168 181.141 143.153 181.159 143.14C181.178 143.128 181.199 143.12 181.22 143.117C181.242 143.113 181.263 143.113 181.285 143.117C181.306 143.122 181.326 143.131 181.344 143.143C181.361 143.155 181.377 143.171 181.388 143.189C181.4 143.207 181.408 143.227 181.412 143.249Z" fill="#E0E0E0"/>
<path d="M167.999 155.756C168.801 154.2 168.191 152.289 166.635 151.486C165.079 150.684 163.167 151.295 162.365 152.851C161.563 154.407 162.174 156.318 163.729 157.12C165.285 157.923 167.197 157.312 167.999 155.756Z" fill="#E0E0E0"/>
<path d="M144.664 52.8146C143.282 49.1868 141.164 45.8842 138.443 43.1145C133.742 38.3078 128.383 34.062 122.322 31.0795C116.261 28.0969 106.361 25.4519 99.1687 25.4929C95.4473 25.347 93.5684 25.5796 90.1846 26.8884C88.0731 27.7047 86.299 29.5882 86.1531 31.8183C86.0163 33.8842 87.2932 36.4243 88.9988 37.6283C96.3321 42.7999 101.887 43.0689 109.001 45.3446C116.115 47.6203 123.43 50.9905 127.266 57.3204C129.35 60.7498 130.536 65.1461 134.147 66.9658C137.65 68.7352 142.265 67.0205 144.413 63.7734C146.561 60.5264 146.05 56.4402 144.664 52.8146Z" fill="#F5F5F5"/>
<path d="M47.1611 117.701C47.1611 117.701 46.9833 117.806 46.6276 117.997C46.2719 118.189 45.7474 118.453 45.0725 118.864C43.0868 119.993 41.171 121.24 39.3354 122.599C36.4223 124.736 33.7125 127.138 31.2406 129.773C29.6992 131.419 28.2528 133.152 26.9081 134.962C25.3871 136.98 24.0688 139.143 22.9724 141.42C22.3981 142.65 21.909 143.917 21.5085 145.214C21.1057 146.572 20.8339 147.964 20.6968 149.373C20.57 150.843 20.6483 152.322 20.9294 153.77C21.0759 154.517 21.2787 155.251 21.5359 155.968C21.806 156.689 22.1324 157.387 22.5118 158.057C24.1648 160.83 26.5257 163.114 29.3525 164.674C32.3621 166.306 35.6369 167.393 39.0253 167.884C40.7583 168.172 42.5232 168.368 44.32 168.505C45.2321 168.582 46.1442 168.609 47.0289 168.65L49.7652 168.769C50.6773 168.828 51.5894 168.806 52.5379 168.806H55.3381C56.2775 168.806 57.2215 168.742 58.1655 168.71L61.0204 168.578C68.8998 168.059 76.7222 166.884 84.4065 165.066C100.231 161.39 114.692 155.662 127.425 149.72C133.81 146.769 139.77 143.687 144.796 139.965C147.229 138.184 149.471 136.156 151.486 133.913L152.198 133.102C152.43 132.833 152.654 132.541 152.864 132.267L153.516 131.433L154.113 130.571C154.911 129.473 155.594 128.296 156.152 127.059C157.235 124.781 157.781 122.285 157.748 119.762C157.704 117.499 156.801 115.337 155.221 113.715C153.789 112.368 151.989 111.478 150.05 111.157C148.427 110.869 146.766 110.869 145.143 111.157C143.846 111.385 142.57 111.722 141.33 112.165C140.249 112.539 139.355 112.908 138.63 113.213L136.993 113.916L136.437 114.153L136.984 113.893C137.349 113.729 137.896 113.478 138.612 113.168C139.328 112.858 140.227 112.479 141.307 112.096C142.548 111.645 143.825 111.3 145.124 111.066C146.759 110.765 148.435 110.757 150.073 111.043C152.036 111.354 153.861 112.243 155.317 113.597C156.929 115.239 157.853 117.434 157.903 119.735C157.947 122.288 157.401 124.816 156.307 127.123C155.75 128.371 155.065 129.559 154.264 130.666L153.666 131.533L153.037 132.372C152.813 132.65 152.604 132.942 152.366 133.216L151.655 134.032C149.635 136.286 147.387 138.325 144.947 140.116C139.907 143.86 133.929 146.956 127.553 149.912C114.816 155.872 100.341 161.609 84.4931 165.294C68.6455 168.979 52.9849 170.028 39.0162 168.099C35.6053 167.597 32.3104 166.494 29.2841 164.842C26.423 163.263 24.0336 160.951 22.3613 158.143C21.9745 157.464 21.6435 156.755 21.3717 156.023C21.113 155.3 20.9087 154.559 20.7606 153.806C20.4789 152.342 20.4022 150.845 20.5326 149.36C20.6734 147.938 20.9498 146.533 21.358 145.164C21.7638 143.859 22.259 142.584 22.8402 141.347C23.9445 139.062 25.2736 136.893 26.8078 134.871C30.3252 130.148 34.5365 125.985 39.2989 122.521C41.1431 121.17 43.0699 119.935 45.0679 118.823C46.4178 118.057 47.1611 117.701 47.1611 117.701Z" fill="#E0E0E0"/>
<path d="M179.597 77.3318L173.892 98.3099L156.562 103.098C156.281 103.193 156.044 103.388 155.898 103.647C155.753 103.905 155.708 104.209 155.773 104.498L174.735 99.6233L175.383 99.4181L197.862 93.3983L200.374 83.4565L203.617 71.7817C203.682 71.6294 203.705 71.4621 203.682 71.298C203.659 71.1338 203.592 70.979 203.488 70.85C203.384 70.7211 203.247 70.623 203.091 70.5661C202.935 70.5093 202.767 70.496 202.604 70.5276L180.199 76.6797C180.05 76.7257 179.916 76.8103 179.81 76.9248C179.705 77.0393 179.631 77.1797 179.597 77.3318Z" fill="#EBEBEB"/>
<path d="M180.765 78.0113L175.575 97.1288L195.942 91.5377L200.498 72.6938L180.765 78.0113Z" fill="#FAFAFA"/>
<path d="M202.605 70.5275C202.61 70.5638 202.61 70.6007 202.605 70.637C202.582 70.7236 202.559 70.8285 202.532 70.9608C202.459 71.2572 202.358 71.6722 202.235 72.1967C201.961 73.2866 201.574 74.8417 201.095 76.7571C200.105 80.6518 198.733 86.0513 197.178 92.1487V92.2171H197.109L193.848 93.0973L176.295 97.7809L170.969 99.1718L169.518 99.5412L169.14 99.6278L169.008 99.6506C169.047 99.6311 169.088 99.6158 169.131 99.605L169.505 99.4956L170.946 99.0851L176.25 97.6167L193.785 92.8647L197.05 91.9891L196.963 92.0757C198.546 85.9829 199.946 80.5879 200.958 76.7024C201.464 74.7779 201.87 73.2319 202.167 72.1419C202.308 71.622 202.422 71.2298 202.504 70.9152C202.541 70.7875 202.568 70.6826 202.595 70.6005C202.623 70.5184 202.605 70.5275 202.605 70.5275Z" fill="#E0E0E0"/>
<path d="M48.1382 158.573C52.2401 156.168 53.6152 150.892 51.2096 146.79C48.804 142.688 43.5287 141.313 39.4268 143.719C35.3249 146.124 33.9498 151.4 36.3554 155.502C38.761 159.604 44.0363 160.979 48.1382 158.573Z" fill="#EBEBEB"/>
<g opacity="0.3">
<path d="M40.8769 151.439C40.632 151.571 40.3535 151.627 40.0767 151.6C39.8 151.574 39.5373 151.465 39.3221 151.289C39.1069 151.113 38.9488 150.877 38.8679 150.611C38.7869 150.345 38.7867 150.061 38.8673 149.795C38.9479 149.529 39.1057 149.293 39.3207 149.116C39.5356 148.94 39.7981 148.831 40.0748 148.804C40.3516 148.777 40.6301 148.833 40.8752 148.964C41.1203 149.096 41.3208 149.297 41.4515 149.542C41.6261 149.87 41.6636 150.254 41.5559 150.609C41.4483 150.965 41.2041 151.263 40.8769 151.439Z" fill="white"/>
</g>
<g opacity="0.3">
<path d="M43.5083 147.759C43.3658 147.834 43.2041 147.866 43.0438 147.849C42.8834 147.833 42.7314 147.769 42.6071 147.667C42.4828 147.564 42.3916 147.427 42.3451 147.273C42.2986 147.118 42.2989 146.954 42.3458 146.799C42.3928 146.645 42.4844 146.508 42.609 146.406C42.7337 146.304 42.8858 146.241 43.0462 146.225C43.2066 146.209 43.3682 146.241 43.5105 146.317C43.6528 146.393 43.7694 146.509 43.8458 146.651C43.9463 146.843 43.9672 147.067 43.9041 147.274C43.8409 147.481 43.6988 147.656 43.5083 147.759Z" fill="white"/>
</g>
<path d="M37.9854 144.786C37.8714 144.89 28.1074 141.716 27.6742 144.111C27.2409 146.505 34.4602 151.759 42.5687 155.183C50.6772 158.608 59.5518 160.948 60.3089 158.599C61.0659 156.251 52.3873 151.193 52.3873 151.193L52.2961 152.406C52.2961 152.406 57.6638 155.398 57.3126 157.45C56.9615 159.502 50.3078 157.765 42.9609 154.23C35.614 150.696 29.6352 146.678 30.3329 145.187C31.0307 143.696 37.1007 145.73 37.1007 145.73L37.9854 144.786Z" fill="#E0E0E0"/>
<g opacity="0.3">
<path d="M46.883 144.111C46.842 144.211 46.1306 143.933 44.9403 143.819C43.4066 143.649 41.8569 143.932 40.4818 144.632C39.1068 145.332 37.9665 146.419 37.2012 147.759C36.5946 148.79 36.4031 149.528 36.2891 149.501C36.1751 149.474 36.2389 148.694 36.7725 147.54C37.0893 146.866 37.5059 146.243 38.0084 145.693C38.6248 145.012 39.3585 144.446 40.1746 144.024C40.9961 143.613 41.8839 143.35 42.7969 143.249C43.5373 143.166 44.2861 143.195 45.0178 143.335C46.2537 143.6 46.915 144.047 46.883 144.111Z" fill="white"/>
</g>
<path d="M34.5012 14.9902L34.9573 17.0333C35.0427 17.4297 35.0246 17.8414 34.9048 18.2288C34.785 18.6162 34.5675 18.9662 34.2732 19.2451L20.5553 32.2288C20.1657 32.5956 19.8671 33.0485 19.6836 33.5512C19.5 34.0539 19.4364 34.5926 19.498 35.1243C19.5596 35.6559 19.7446 36.1658 20.0382 36.6132C20.3319 37.0607 20.726 37.4333 21.1892 37.7013L29.8541 42.7178C30.3468 43.0008 30.8988 43.1647 31.466 43.1966C32.0333 43.2286 32.6002 43.1275 33.1215 42.9017C33.6428 42.6758 34.1042 42.3312 34.4688 41.8955C34.8334 41.4598 35.0913 40.945 35.2218 40.392L39.4493 22.0681C39.5441 21.6554 39.7483 21.2758 40.0404 20.9693C40.3325 20.6628 40.7017 20.4405 41.1093 20.326L42.856 19.8334L34.5012 14.9902Z" fill="#F5F5F5"/>
<path d="M37.0825 29.4195C36.1118 29.1185 35.2311 28.581 34.5195 27.8553C33.84 27.153 33.3338 26.3002 32.6953 25.5751C32.0569 24.85 31.1904 24.2069 30.2144 24.1659L21.6545 32.5343C21.3329 32.8484 21.0883 33.2326 20.9399 33.6568C20.7914 34.0811 20.7431 34.5339 20.7988 34.98C20.8544 35.426 21.0125 35.8531 21.2606 36.2279C21.5087 36.6027 21.8402 36.915 22.2291 37.1404L29.9819 41.6553C30.3694 41.8808 30.8036 42.014 31.2509 42.0446C31.6983 42.0752 32.1466 42.0023 32.5612 41.8316C32.9758 41.661 33.3455 41.397 33.6416 41.0604C33.9377 40.7237 34.1523 40.3234 34.2687 39.8904L37.0825 29.4195Z" fill="#E0E0E0"/>
<g opacity="0.3">
<path d="M23.7933 36.7574C23.7933 36.7848 23.5744 36.7073 23.3373 36.4199C23.0123 35.9863 22.8406 35.4569 22.8493 34.915C22.8474 34.5417 22.9123 34.171 23.0409 33.8205C23.1861 33.4277 23.384 33.0564 23.6292 32.7168C24.197 31.9884 24.8158 31.3011 25.4807 30.6601C28.1851 27.8919 30.4698 25.7439 30.593 25.8625C30.7161 25.981 28.6183 28.316 25.9139 31.0842C25.2712 31.7048 24.6623 32.3594 24.0898 33.0452C23.8602 33.3417 23.6673 33.6648 23.5151 34.0075C23.3915 34.2976 23.3146 34.6054 23.2871 34.9196C23.2427 35.3905 23.3312 35.8645 23.5425 36.2877C23.6839 36.5796 23.8253 36.7209 23.7933 36.7574Z" fill="white"/>
</g>
<path d="M35.9743 30.7102C35.8627 30.7134 35.751 30.7042 35.6414 30.6828C35.427 30.6828 35.1215 30.6144 34.7293 30.5369C34.2823 30.4423 33.8499 30.289 33.4432 30.0808C33.2033 29.9545 32.9784 29.8016 32.7729 29.6248C32.5582 29.4381 32.3613 29.232 32.1846 29.0091C31.8288 28.5531 31.5506 28.0514 31.2725 27.641C31.0218 27.2762 30.7138 26.9543 30.3604 26.6879C30.1197 26.5094 29.845 26.3821 29.5532 26.3139C29.3479 26.2683 29.2294 26.2683 29.2294 26.2546C29.2294 26.2409 29.2567 26.2546 29.316 26.2546C29.398 26.2496 29.4803 26.2496 29.5623 26.2546C29.8674 26.3105 30.1568 26.4319 30.4105 26.6103C30.7839 26.872 31.1094 27.1959 31.3728 27.568C31.6783 27.9739 31.9611 28.4801 32.3122 28.9362C32.4791 29.1617 32.6685 29.3695 32.8777 29.5564C33.0731 29.7336 33.289 29.8867 33.5208 30.0124C33.9172 30.2147 34.3368 30.3678 34.7703 30.4685C35.1443 30.5551 35.4498 30.6099 35.6596 30.6509C35.7656 30.6644 35.8707 30.6842 35.9743 30.7102Z" fill="#FAFAFA"/>
<path d="M52.4968 12.7237C52.294 11.8179 51.7969 11.0049 51.0831 10.4115C49.9401 9.27244 48.4702 8.51836 46.8783 8.25443C46.0322 8.13762 45.1711 8.19466 44.3477 8.42206C43.5244 8.64946 42.7561 9.04244 42.0898 9.57697C41.4471 10.0895 40.9205 10.7325 40.5447 11.4636C40.1689 12.1947 39.9526 12.9973 39.9099 13.8182C39.7549 14.8945 40.8768 15.802 41.9576 15.8567C43.0384 15.9114 44.06 15.4007 45.0313 14.9127C46.0027 14.4247 47.0744 13.9733 48.1416 14.1739C49.2087 14.3746 50.2394 15.2411 51.2929 14.9264C52.173 14.6847 52.6382 13.6312 52.4968 12.7237Z" fill="#F5F5F5"/>
<path d="M59.6523 10.9451C59.5884 10.1014 58.9363 8.76518 57.3721 8.96128C56.7336 8.96128 56.045 9.75024 55.8808 10.3705C55.8067 10.6827 55.8203 11.0093 55.9201 11.3143C56.0199 11.6193 56.202 11.8908 56.4463 12.0989C56.6978 12.3042 56.9929 12.4492 57.3091 12.5227C57.6254 12.5962 57.9542 12.5963 58.2705 12.523C59.0138 12.3634 59.7116 11.7067 59.6523 10.9451Z" fill="#F5F5F5"/>
<path d="M0.329785 79.1149L0.0926406 79.7488C0.0202185 79.9453 -0.0102971 80.1547 0.00305494 80.3636C0.016407 80.5725 0.0733313 80.7763 0.170168 80.9619L13.0717 105.657C13.1656 105.837 13.2947 105.995 13.4514 106.124C13.6082 106.252 13.7893 106.348 13.9838 106.405L14.7135 106.601C14.878 106.647 15.0493 106.664 15.2197 106.651L30.2692 105.465C30.6285 105.436 30.9651 105.278 31.2166 105.019C31.4681 104.761 31.6176 104.421 31.6374 104.061C31.6515 103.788 31.5916 103.517 31.4641 103.276L17.7827 77.7651C17.6455 77.5101 17.437 77.3006 17.1827 77.1621C16.9284 77.0236 16.6393 76.9621 16.3507 76.9852L1.62952 78.1481C1.34275 78.1669 1.06752 78.2682 0.836933 78.4397C0.60635 78.6112 0.430238 78.8457 0.329785 79.1149Z" fill="#E0E0E0"/>
<path d="M1.27368 78.7638L14.9642 104.357L30.4743 103.135L16.8887 77.537L1.27368 78.7638Z" fill="#FAFAFA"/>
<path d="M16.5422 98.1822C16.9578 98.0128 17.4142 97.9698 17.8542 98.0587C18.2941 98.1475 18.698 98.3642 19.0154 98.6816C19.3327 98.999 19.5493 99.403 19.638 99.843C19.7267 100.283 19.6837 100.739 19.5142 101.155C19.3447 101.571 19.0563 101.927 18.6852 102.179C18.3141 102.432 17.8767 102.569 17.4279 102.574C16.9791 102.579 16.5388 102.451 16.1622 102.207C15.7857 101.963 15.4895 101.613 15.3109 101.201C15.19 100.923 15.126 100.623 15.1227 100.319C15.1194 100.015 15.1767 99.7139 15.2914 99.4327C15.4061 99.1514 15.5758 98.8959 15.7906 98.6812C16.0054 98.4665 16.261 98.2968 16.5422 98.1822Z" fill="#E0E0E0"/>
<path d="M17.4679 99.222L17.4086 99.637C17.4039 99.6617 17.4083 99.6872 17.4208 99.709C17.4334 99.7307 17.4533 99.7473 17.477 99.7556L17.5545 99.7875C17.5545 99.7875 17.6959 99.8285 17.6503 99.9562C17.6047 100.084 17.3858 100.617 17.3858 100.617C17.3858 100.617 17.3265 100.773 17.2125 100.718L17.0985 100.672C17.0785 100.665 17.0569 100.665 17.0366 100.671C17.0162 100.676 16.9981 100.688 16.9845 100.704L16.6972 101.064C16.682 101.083 16.6737 101.106 16.6737 101.131C16.6737 101.155 16.682 101.178 16.6972 101.197L16.8066 101.297C16.8244 101.319 16.8482 101.335 16.875 101.343C16.9465 101.364 17.0225 101.364 17.0939 101.343C17.2931 101.227 17.4665 101.072 17.6037 100.887C17.7409 100.702 17.839 100.491 17.892 100.266C18.1383 99.5503 17.892 99.2813 17.851 99.2129C17.8005 99.1592 17.7326 99.1253 17.6594 99.1171H17.591C17.576 99.1158 17.561 99.1176 17.5467 99.1222C17.5323 99.1268 17.5191 99.1342 17.5076 99.1439C17.4962 99.1537 17.4868 99.1656 17.48 99.179C17.4731 99.1924 17.469 99.207 17.4679 99.222Z" fill="white"/>
<path d="M22.5619 101.11C22.2234 100.815 21.9796 100.427 21.861 99.9934C21.7424 99.5603 21.7543 99.1019 21.8952 98.6755C22.0362 98.2492 22.2998 97.874 22.6532 97.5969C23.0065 97.3198 23.4338 97.1532 23.8815 97.118C24.3291 97.0828 24.7772 97.1805 25.1695 97.399C25.5618 97.6174 25.8809 97.9468 26.0868 98.3459C26.2926 98.7449 26.3761 99.1959 26.3266 99.6422C26.2772 100.088 26.0971 100.51 25.8089 100.855C25.6143 101.087 25.3752 101.279 25.1056 101.418C24.836 101.557 24.5414 101.641 24.2391 101.664C23.9367 101.688 23.6326 101.651 23.3446 101.556C23.0566 101.461 22.7905 101.309 22.5619 101.11Z" fill="#E0E0E0"/>
<path d="M23.0637 99.8194L23.465 99.6871C23.489 99.6799 23.5098 99.6646 23.5239 99.6439C23.5381 99.6231 23.5446 99.5981 23.5425 99.5731V99.491C23.5385 99.4733 23.538 99.455 23.5411 99.4372C23.5442 99.4193 23.5509 99.4023 23.5606 99.387C23.5704 99.3717 23.5831 99.3585 23.598 99.3482C23.6129 99.3379 23.6297 99.3306 23.6474 99.3268C23.7432 99.3268 24.3588 99.2721 24.3588 99.2721C24.3588 99.2721 24.523 99.2721 24.5276 99.3861V99.5047C24.5292 99.5257 24.5377 99.5455 24.5517 99.5611C24.5657 99.5768 24.5845 99.5874 24.6051 99.5914L25.0611 99.6917C25.0846 99.6964 25.109 99.6926 25.13 99.6809C25.1509 99.6692 25.1669 99.6503 25.1751 99.6278L25.2208 99.4865C25.2275 99.4595 25.2275 99.4313 25.2208 99.4044C25.2065 99.3326 25.1752 99.2654 25.1295 99.2083C24.9373 99.0797 24.7208 98.992 24.4933 98.9504C24.2658 98.9088 24.0323 98.9143 23.807 98.9666C23.0591 99.0623 22.8949 99.3952 22.8949 99.4728C22.8723 99.5424 22.8723 99.6175 22.8949 99.6871L22.936 99.7601C22.9475 99.7828 22.9664 99.801 22.9896 99.8118C23.0127 99.8225 23.0388 99.8252 23.0637 99.8194Z" fill="white"/>
<path d="M15.9402 88.3226C16.5193 87.9167 16.6926 87.1004 16.2959 86.2247C15.7805 85.0801 14.4717 84.2774 13.4045 84.4279C12.3374 84.5784 11.8768 85.6364 12.3967 86.7766C12.5982 87.2091 12.8942 87.5909 13.2627 87.894C13.6313 88.197 14.0631 88.4136 14.5264 88.5278C11.74 89.4399 13.3726 92.6322 13.3726 92.6322L21.0068 92.0348C21.0068 92.0348 19.1097 88.3317 15.9402 88.3226Z" fill="#EBEBEB"/>
<path d="M24.9471 94.6387C24.9471 94.7618 22.2108 95.0719 18.8133 95.341C15.4157 95.6101 12.6521 95.7286 12.643 95.6101C12.6338 95.4915 15.3792 95.154 18.7768 94.9078C22.1743 94.6615 24.938 94.5201 24.9471 94.6387Z" fill="#EBEBEB"/>
<path d="M28.5908 182.136L29.0879 182.966C29.6451 183.907 30.4623 184.667 31.4411 185.155L32.3122 185.583L31.4822 186.067C30.5484 186.626 29.7961 187.443 29.316 188.42L28.8827 189.287L28.3856 188.457C27.8238 187.525 27.0073 186.773 26.0324 186.29L25.1614 185.862L25.9959 185.36C26.9263 184.799 27.6777 183.984 28.1622 183.011L28.5908 182.136Z" fill="#EBEBEB"/>
<path d="M189.452 18.9761L189.949 19.8061C190.511 20.7378 191.328 21.4894 192.302 21.9723L193.169 22.401L192.339 22.8981C191.407 23.4599 190.656 24.2764 190.173 25.2513L189.744 26.1223L189.247 25.2923C188.688 24.3585 187.871 23.6062 186.894 23.1261L186.023 22.6974L186.853 22.1958C187.787 21.6366 188.539 20.8194 189.019 19.8426L189.452 18.9761Z" fill="#EBEBEB"/>
<path d="M195.166 31.8594L195.6 32.5799C196.087 33.3895 196.796 34.043 197.643 34.4634L198.4 34.8374L197.679 35.2934C196.868 35.7816 196.215 36.4923 195.796 37.3411L195.422 38.0935L194.993 37.3502C194.505 36.5393 193.794 35.8856 192.946 35.4667L192.188 35.1155L192.909 34.6595C193.719 34.1718 194.372 33.4629 194.792 32.6164L195.166 31.8594Z" fill="#EBEBEB"/>
<path d="M18.9591 172.755L19.3103 173.343C19.7073 174.003 20.285 174.534 20.9749 174.875L21.5905 175.181L21.0022 175.532C20.3429 175.929 19.8111 176.507 19.4699 177.197L19.1644 177.812L18.8132 177.224C18.4113 176.564 17.829 176.032 17.1349 175.692L16.5193 175.386L17.1076 175.035C17.7669 174.638 18.2987 174.06 18.6399 173.371L18.9591 172.755Z" fill="#EBEBEB"/>
<path d="M169.815 179.194L170.171 179.783C170.565 180.444 171.143 180.977 171.835 181.315L172.446 181.621L171.858 181.976C171.2 182.373 170.668 182.949 170.326 183.636L170.025 184.252L169.669 183.664C169.272 183.004 168.694 182.472 168.004 182.131L167.389 181.83L167.977 181.475C168.638 181.08 169.171 180.502 169.509 179.81L169.815 179.194Z" fill="#EBEBEB"/>
<path d="M14.5493 11.05L14.9004 11.6383C15.2974 12.2977 15.8751 12.8295 16.565 13.1707L17.1806 13.4762L16.5923 13.8274C15.931 14.2281 15.3991 14.8107 15.06 15.5056L14.7545 16.1213L14.3988 15.5056C14.0006 14.8472 13.4232 14.3158 12.7342 13.9733L12.1185 13.6814L12.7068 13.3257C13.3652 12.9275 13.8967 12.3502 14.2391 11.6612L14.5493 11.05Z" fill="#EBEBEB"/>
<path d="M189.844 118.399L190.2 118.987C190.596 119.647 191.174 120.179 191.865 120.519L192.48 120.825L191.892 121.176C191.231 121.572 190.699 122.15 190.36 122.841L190.054 123.456L189.698 122.868C189.302 122.21 188.726 121.679 188.038 121.336L187.423 121.035L188.011 120.679C188.669 120.281 189.201 119.703 189.543 119.014L189.844 118.399Z" fill="#EBEBEB"/>
<path d="M13.0306 53.4304L13.3863 54.0142C13.7807 54.6757 14.3591 55.2081 15.0509 55.5465L15.662 55.852L15.0783 56.2077C14.4168 56.6021 13.8843 57.1805 13.5459 57.8723L13.2404 58.4834L12.8984 57.9179C12.5013 57.2586 11.9237 56.7268 11.2338 56.3856L10.6227 56.0846L11.2064 55.7289C11.8681 55.3334 12.4017 54.7554 12.7433 54.0643L13.0306 53.4304Z" fill="#EBEBEB"/>
<path d="M195.851 202.485C195.851 202.548 155.381 202.603 105.476 202.603C55.5707 202.603 15.092 202.535 15.092 202.485C15.092 202.434 55.5479 202.366 105.476 202.366C155.404 202.366 195.851 202.402 195.851 202.485Z" fill="#2D4356"/>
<path d="M37.1008 60.9232L37.4292 61.4705C37.7971 62.0834 38.3339 62.5774 38.9752 62.8933L39.5498 63.1761L39.0025 63.509C38.3884 63.8769 37.8929 64.4135 37.5751 65.055L37.2924 65.6251L36.964 65.0824C36.5945 64.4679 36.0563 63.9725 35.4134 63.6549L34.8434 63.3722L35.3906 63.0438C36.0037 62.674 36.4976 62.1358 36.8135 61.4933L37.1008 60.9232Z" fill="#FCB59E"/>
<path d="M155.477 120.98L155.805 121.527C156.174 122.14 156.71 122.636 157.351 122.955L157.926 123.237L157.378 123.566C156.764 123.935 156.268 124.473 155.951 125.116L155.668 125.686L155.34 125.139C154.969 124.527 154.433 124.032 153.794 123.712L153.219 123.429L153.766 123.101C154.381 122.733 154.876 122.196 155.194 121.555L155.477 120.98Z" fill="#FCB59E"/>
<path d="M91.1788 8.20886L91.5072 8.75612C91.8751 9.37026 92.4117 9.86573 93.0532 10.1835L93.6278 10.4663L93.0805 10.7946C92.4712 11.1563 91.9764 11.6828 91.6531 12.3133L91.3704 12.8879L91.042 12.3406C90.6725 11.7262 90.1343 11.2307 89.4914 10.9132L88.9214 10.6305L89.4686 10.3021C90.0806 9.93295 90.5743 9.39655 90.8915 8.75612L91.1788 8.20886Z" fill="#FCB59E"/>
<path d="M168.15 59.7421L168.479 60.2893C168.848 60.9038 169.386 61.3992 170.029 61.7167L170.599 61.9995L170.052 62.3278C169.44 62.697 168.946 63.2334 168.629 63.8738L168.346 64.4485L168.018 63.9012C167.649 63.2867 167.11 62.7913 166.468 62.4738L165.897 62.191L166.44 61.8627C167.053 61.4936 167.548 60.9573 167.868 60.3167L168.15 59.7421Z" fill="#FCB59E"/>
<path d="M49.5691 81.9972L49.8062 82.394C50.0762 82.8414 50.4686 83.2023 50.9372 83.4337L51.3568 83.639L50.9554 83.8807C50.508 84.1506 50.1471 84.5431 49.9157 85.0117L49.7104 85.4267L49.4687 85.0299C49.1988 84.5824 48.8063 84.2216 48.3377 83.9901L47.9227 83.7849L48.3195 83.5432C48.7681 83.2746 49.1293 82.8818 49.3593 82.4122L49.5691 81.9972Z" fill="#FCB59E"/>
<path d="M60.4596 133.102L60.7013 133.503C60.9713 133.946 61.362 134.304 61.8277 134.534L62.2473 134.739L61.8459 134.981C61.3984 135.251 61.0376 135.643 60.8062 136.112L60.6009 136.527L60.3592 136.13C60.0905 135.683 59.6997 135.322 59.2328 135.09L58.8132 134.88L59.2146 134.643C59.662 134.373 60.0229 133.981 60.2543 133.512L60.4596 133.102Z" fill="#FCB59E"/>
<path d="M164.575 44.2365L164.812 44.6332C165.08 45.0819 165.473 45.443 165.943 45.673L166.362 45.8828L165.961 46.1199C165.514 46.3899 165.153 46.7824 164.921 47.2509L164.716 47.6705L164.474 47.2692C164.204 46.8217 163.812 46.4608 163.343 46.2294L162.928 46.0242L163.325 45.7824C163.774 45.5139 164.135 45.121 164.365 44.6515L164.575 44.2365Z" fill="#FCB59E"/>
<path d="M28.217 71.2162L28.4541 71.6129C28.7234 72.0621 29.116 72.4246 29.5851 72.6573L30.0047 72.8625L29.6034 73.0997C29.1578 73.372 28.7976 73.7638 28.5636 74.2307L28.3584 74.6502L28.1167 74.2489C27.8467 73.8014 27.4542 73.4406 26.9857 73.2091L26.5707 73.0039L26.9674 72.7622C27.4161 72.4936 27.7773 72.1008 28.0072 71.6312L28.217 71.2162Z" fill="#FCB59E"/>
<path d="M176.104 46.7083L176.241 46.9363C176.396 47.1917 176.62 47.3974 176.888 47.5291L177.13 47.6477L176.902 47.7845C176.641 47.9365 176.43 48.1616 176.295 48.4321L176.177 48.6738L176.04 48.4458C175.887 48.1881 175.662 47.9805 175.392 47.8484L175.155 47.7298L175.383 47.593C175.639 47.4381 175.844 47.2134 175.976 46.9454L176.104 46.7083Z" fill="#FCB59E"/>
<path d="M167.58 112.361L167.717 112.593C167.872 112.849 168.097 113.054 168.365 113.186L168.602 113.305L168.374 113.442C168.117 113.596 167.91 113.821 167.776 114.089L167.658 114.331L167.521 114.098C167.366 113.843 167.141 113.637 166.873 113.505L166.636 113.387L166.864 113.25C167.121 113.095 167.328 112.871 167.462 112.602L167.58 112.361Z" fill="#FCB59E"/>
<path d="M108.604 3.06921L108.741 3.29724C108.896 3.55263 109.121 3.75835 109.389 3.8901L109.63 4.00867L109.402 4.15004C109.143 4.30085 108.934 4.52443 108.8 4.79307L108.682 5.03477L108.545 4.80675C108.388 4.5487 108.16 4.3413 107.888 4.20933L107.66 4.10444L107.893 3.96763C108.148 3.81279 108.354 3.58807 108.486 3.32004L108.604 3.06921Z" fill="#FCB59E"/>
<path d="M82.4866 14.712L82.6234 14.9401C82.7755 15.1955 82.9969 15.4027 83.2619 15.5375L83.499 15.6561L83.271 15.7929C83.0156 15.9477 82.8099 16.1724 82.6781 16.4405L82.5596 16.6776L82.4182 16.4496C82.2654 16.193 82.0423 15.9856 81.7752 15.8522L81.5334 15.7336L81.7615 15.5968C82.0158 15.4421 82.2201 15.2172 82.3498 14.9492L82.4866 14.712Z" fill="#FCB59E"/>
<path d="M63.3964 139.094L63.5332 139.322C63.6878 139.579 63.9125 139.786 64.1808 139.92L64.418 140.038L64.1899 140.175C63.9345 140.33 63.7288 140.555 63.5971 140.823L63.4785 141.06L63.3417 140.832C63.186 140.576 62.9616 140.369 62.6941 140.234L62.4524 140.116L62.6804 139.979C62.9382 139.826 63.1457 139.6 63.2778 139.331L63.3964 139.094Z" fill="#FCB59E"/>
<path d="M130.499 172.764L73.9493 172.632C71.6053 172.632 69.7081 170.976 69.7127 168.947C69.7127 166.922 71.6235 165.299 73.9676 165.299L130.517 165.431C132.861 165.431 134.754 167.082 134.749 169.111C134.745 171.127 132.843 172.769 130.499 172.764Z" fill="#455A64"/>
<path d="M130.499 163.844L73.9493 163.716C71.6053 163.716 69.7081 162.061 69.7127 160.031C69.7127 158.002 71.6235 156.383 73.9676 156.383L130.517 156.511C132.861 156.511 134.754 158.166 134.749 160.195C134.745 162.211 132.843 163.848 130.499 163.844Z" fill="#455A64"/>
<path d="M128.228 174.096L76.4576 173.977C75.4754 174.044 74.5555 174.482 73.8837 175.202C73.2118 175.921 72.8381 176.869 72.8381 177.853C72.8381 178.838 73.2118 179.786 73.8837 180.505C74.5555 181.225 75.4754 181.662 76.4576 181.73H82.1399L89.6464 196.127C90.0696 196.932 90.7034 197.606 91.4801 198.079C92.2569 198.551 93.1473 198.803 94.0564 198.809L112.558 198.85C113.477 198.853 114.379 198.602 115.165 198.125C115.95 197.647 116.588 196.962 117.009 196.145L124.37 181.858H128.233C129.215 181.79 130.135 181.352 130.806 180.633C131.478 179.913 131.852 178.966 131.852 177.981C131.852 176.997 131.478 176.049 130.806 175.329C130.135 174.61 129.215 174.172 128.233 174.105L128.228 174.096Z" fill="#455A64"/>
<path d="M146.009 113.861C146.009 113.861 145.868 114.08 145.59 114.486L144.358 116.31L143.46 117.66C143.132 118.157 142.808 118.727 142.434 119.329L141.248 121.29C140.815 121.983 140.441 122.772 139.994 123.57C139.775 123.981 139.538 124.4 139.319 124.829C139.205 125.048 139.091 125.285 138.972 125.486C138.854 125.686 138.758 125.942 138.649 126.174C138.193 127.109 137.737 128.085 137.281 129.111L135.94 132.39C135.516 133.544 135.096 134.757 134.663 136.011C133.785 138.716 133.067 141.471 132.515 144.261C131.892 147.407 131.586 150.608 131.603 153.815V153.893H131.53L71.172 153.925H71.0763V153.829C70.4424 146.765 68.6006 139.862 65.6311 133.421C64.0762 130.005 62.2825 126.702 60.2634 123.538C59.2419 121.929 58.1565 120.346 57.0027 118.791C55.8489 117.236 54.5902 115.754 53.3543 114.231L53.2038 114.048H53.4455L53.3588 114.231C47.7051 106.961 43.8472 98.4591 42.0991 89.417C41.8528 88.2587 41.7023 87.0821 41.5199 85.9055C41.4469 85.3126 41.3922 84.7198 41.3283 84.1269L41.2371 83.2148L41.1779 82.3027C41.1459 81.7053 41.0912 81.1079 41.073 80.5059C41.0547 79.9039 41.073 79.3019 41.0365 78.6817C41 78.0615 41.0365 77.4777 41.0365 76.8575C41.0365 76.2373 41.0365 75.6444 41.0912 75.0333C41.3673 70.1402 42.2402 65.2991 43.6907 60.6177C47.9011 47.4153 56.6368 36.1229 68.3582 28.731C71.1506 26.9713 74.0838 25.4459 77.128 24.1705C80.1172 22.9273 83.2066 21.9402 86.3629 21.2199C92.48 19.8106 98.7829 19.3873 105.033 19.9657C108.04 20.2505 111.022 20.7581 113.954 21.4844C116.802 22.2179 119.595 23.1506 122.313 24.2754C124.936 25.4048 127.482 26.7058 129.934 28.17C132.29 29.6188 134.549 31.2199 136.697 32.9631C140.756 36.2999 144.353 40.1632 147.391 44.4509C150.199 48.4029 152.497 52.6932 154.232 57.2202C154.688 58.2873 155.002 59.3818 155.376 60.449C155.75 61.5161 155.997 62.6015 156.289 63.6413C156.53 64.7176 156.795 65.771 157.005 66.8336C157.096 67.3626 157.191 67.8825 157.283 68.4024C157.374 68.9223 157.474 69.4376 157.529 69.9575C158.091 73.8358 158.267 77.7604 158.053 81.6734C157.682 87.9582 156.296 94.1415 153.949 99.9836C153.09 102.106 152.112 104.178 151.021 106.19C150.054 107.933 149.17 109.383 148.413 110.496L147.405 111.978L146.629 113.013L145.996 113.861L146.607 113.013L147.373 111.959L148.376 110.468C149.124 109.337 150 107.901 150.957 106.159C152.039 104.143 153.009 102.07 153.862 99.9472C157.627 90.4294 158.843 80.0936 157.388 69.9621C157.333 69.4422 157.233 68.9314 157.141 68.4115C157.05 67.8917 156.954 67.3718 156.859 66.8473C156.653 65.7984 156.403 64.7495 156.143 63.655C155.883 62.5605 155.559 61.5252 155.23 60.4627C154.902 59.4001 154.537 58.3056 154.086 57.243C152.351 52.733 150.053 48.4609 147.245 44.5284C144.21 40.2639 140.622 36.4222 136.574 33.1044C134.429 31.3724 132.176 29.7791 129.829 28.3342C127.385 26.8757 124.847 25.5822 122.231 24.4624C119.524 23.3428 116.741 22.4147 113.904 21.685C110.981 20.9596 108.009 20.455 105.011 20.1755C98.784 19.6009 92.5055 20.0258 86.4131 21.4342C83.2689 22.1515 80.1916 23.1356 77.2146 24.3757C74.1825 25.6519 71.2614 27.1773 68.4813 28.9362C56.7921 36.3241 48.0918 47.6075 43.9187 60.791C42.4735 65.4546 41.6036 70.2773 41.3283 75.1519C41.2964 75.7539 41.2919 76.3559 41.2736 76.9761C41.2554 77.5963 41.2235 78.1755 41.2508 78.7775C41.2782 79.3795 41.2736 79.9769 41.2873 80.5743C41.301 81.1717 41.3557 81.7691 41.3922 82.362L41.4469 83.2741L41.5381 84.1862C41.602 84.7745 41.6613 85.3673 41.7342 85.9557C41.9121 87.1277 42.0626 88.2997 42.3043 89.4535C44.0441 98.4599 47.8847 106.929 53.5139 114.171L53.6598 114.358H53.4227L53.5139 114.171C54.7589 115.681 56.0404 117.158 57.1623 118.732C58.2842 120.305 59.406 121.883 60.4276 123.497C62.4542 126.668 64.2511 129.98 65.8044 133.407C68.7877 139.871 70.6388 146.798 71.2769 153.888L71.1766 153.793L131.534 153.824L131.461 153.902C131.453 150.686 131.768 147.478 132.401 144.325C132.951 141.528 133.663 138.766 134.535 136.052C134.991 134.798 135.397 133.585 135.826 132.431C136.254 131.278 136.738 130.197 137.194 129.148C137.65 128.099 138.138 127.146 138.562 126.215L138.886 125.527L139.237 124.87C139.47 124.441 139.693 124.022 139.916 123.611C140.373 122.804 140.746 122.015 141.18 121.331L142.375 119.375C142.748 118.773 143.077 118.203 143.41 117.71C143.743 117.218 144.053 116.771 144.322 116.374L145.571 114.55L146.027 113.934L146.009 113.861Z" fill="#2D4356"/>
<path d="M49.3912 97.8676C49.3682 97.8278 49.3513 97.7847 49.3411 97.7399C49.3046 97.6395 49.2635 97.5119 49.2088 97.3522C49.0903 96.9965 48.9306 96.4994 48.7254 95.8655L48.3788 94.7893C48.2648 94.3925 48.1645 93.9547 48.0459 93.4895C47.8179 92.5501 47.5123 91.492 47.3162 90.2972C47.2068 89.6998 47.0928 89.075 46.9696 88.4228C46.8465 87.7707 46.7918 87.0821 46.696 86.3706C46.4817 84.9569 46.4133 83.4337 46.3084 81.8102C46.1723 78.3254 46.3249 74.8354 46.7644 71.3758C47.2579 67.9235 48.0343 64.5175 49.0857 61.1923C49.6147 59.6737 50.089 58.2235 50.6727 56.9146C50.9555 56.2579 51.1972 55.6103 51.4845 55.0129L52.3191 53.2982C52.8253 52.1945 53.4045 51.2551 53.8696 50.4114C54.1113 49.9964 54.3257 49.5996 54.54 49.2485L55.1602 48.2999L56.0222 46.9956L56.2502 46.6627C56.3049 46.5852 56.3323 46.5487 56.3368 46.5532C56.3414 46.5578 56.3368 46.5943 56.273 46.6764L56.0632 47.023L55.2378 48.3501L54.6358 49.3032C54.426 49.6589 54.2208 50.0602 53.9882 50.4798C53.5321 51.328 52.9621 52.2675 52.4696 53.3757L51.6487 55.0904C51.3705 55.6878 51.1333 56.3354 50.8552 56.9921C50.2805 58.2964 49.8154 59.7284 49.2955 61.2607C48.265 64.5766 47.5025 67.9698 47.0152 71.4078C46.5744 74.8535 46.4113 78.3291 46.5273 81.8011C46.6276 83.3972 46.6869 84.9204 46.8921 86.3296C46.9833 87.0365 47.038 87.7251 47.1521 88.3772C47.2661 89.0294 47.3755 89.6496 47.485 90.247C47.6628 91.4464 47.941 92.5273 48.1736 93.4394C48.2876 93.8954 48.3834 94.3515 48.4883 94.7437C48.5932 95.1359 48.7163 95.4961 48.8121 95.8245C48.999 96.4629 49.1495 96.9646 49.2681 97.3203L49.3776 97.7125C49.3901 97.7632 49.3947 97.8155 49.3912 97.8676Z" fill="#2D4356"/>
<path d="M66.8122 36.4836C65.8196 37.495 64.7721 38.4511 63.6747 39.3476C62.6283 40.3058 61.5274 41.2026 60.3774 42.0337C61.3711 41.0217 62.4201 40.0656 63.5196 39.1698C64.5654 38.2127 65.6647 37.3159 66.8122 36.4836Z" fill="#2D4356"/>
<path d="M146.652 104.485C146.652 104.485 146.652 104.448 146.693 104.38L146.83 104.083L147.373 102.962L147.769 102.154C147.911 101.858 148.048 101.525 148.225 101.174C148.526 100.467 148.905 99.678 149.238 98.7705L149.785 97.3522C149.972 96.8597 150.132 96.3352 150.314 95.7971C150.697 94.7254 151.012 93.5533 151.363 92.322C152.065 89.6411 152.592 86.9173 152.941 84.1679C153.256 81.4129 153.395 78.6406 153.356 75.8679C153.306 74.5909 153.283 73.3733 153.164 72.2195C153.114 71.654 153.082 71.1067 153.019 70.5823C152.955 70.0578 152.886 69.5562 152.827 69.0773C152.722 68.1151 152.544 67.2531 152.421 66.5007C152.353 66.1221 152.298 65.7664 152.234 65.4426C152.17 65.1188 152.097 64.8315 152.038 64.567L151.778 63.3448C151.755 63.2171 151.732 63.1122 151.719 63.0256C151.713 62.9894 151.713 62.9524 151.719 62.9161C151.734 62.9499 151.746 62.985 151.755 63.021C151.778 63.1077 151.805 63.208 151.837 63.3357C151.915 63.6321 152.015 64.0334 152.143 64.5442L152.357 65.4198C152.43 65.7436 152.489 66.0948 152.562 66.4733C152.699 67.2303 152.891 68.0923 153.019 69.0545L153.228 70.5595C153.297 71.0885 153.333 71.6357 153.388 72.2058C153.516 73.3368 153.548 74.559 153.602 75.8542C153.743 81.428 153.07 86.9925 151.605 92.3722C151.244 93.6035 150.921 94.7801 150.528 95.8518C150.337 96.3899 150.177 96.9144 149.981 97.4069L149.42 98.8207C149.078 99.7328 148.691 100.517 148.376 101.219C148.212 101.571 148.07 101.899 147.92 102.195L147.5 102.993L146.917 104.097L146.762 104.38C146.732 104.422 146.695 104.457 146.652 104.485Z" fill="#2D4356"/>
<path d="M41.0183 128.541L41.0502 134.867C41.0502 134.867 51.5393 128.938 48.4655 123.26L41.0183 128.541Z" fill="#FCB59E"/>
<path d="M42.0398 113.93C42.0398 113.93 34.4649 111.161 28.7369 116.292L34.6291 119.616L42.0398 113.93Z" fill="#FCB59E"/>
<path d="M34.629 119.635C34.8662 119.945 41.0137 128.541 41.0137 128.541L57.0756 117.14C57.7371 116.672 58.2943 116.071 58.7121 115.376C59.1298 114.682 59.399 113.908 59.5027 113.104C59.6065 112.3 59.5424 111.484 59.3146 110.706C59.0868 109.928 58.7002 109.206 58.1793 108.585C57.2045 107.432 55.8234 106.7 54.3227 106.54C52.8221 106.379 51.3173 106.803 50.1209 107.723L34.629 119.635Z" fill="#F5F5F5"/>
<path d="M34.6291 119.635C34.6683 119.594 34.711 119.558 34.7568 119.525L35.1581 119.201L36.7269 117.975L42.546 113.442L46.5821 110.313L48.8349 108.571L50.0161 107.659C50.4271 107.344 50.876 107.082 51.3523 106.879C51.5939 106.773 51.8422 106.683 52.0956 106.61C52.3537 106.542 52.6156 106.49 52.8801 106.455C53.4184 106.377 53.9652 106.377 54.5036 106.455C55.6219 106.606 56.674 107.072 57.5363 107.8C57.9771 108.172 58.3626 108.605 58.681 109.086C59.0014 109.576 59.2516 110.109 59.4243 110.669C59.7604 111.827 59.7446 113.059 59.3787 114.208C59.0271 115.305 58.3631 116.277 57.4679 117.003C56.5558 117.687 55.6756 118.285 54.8 118.919L49.7288 122.503L41.0639 128.614L40.9909 128.664L40.9408 128.596C38.9843 125.832 37.3973 123.579 36.2891 122.029L35.0441 120.25L34.7248 119.794C34.6867 119.746 34.6532 119.694 34.6245 119.639C34.6687 119.69 34.7099 119.743 34.7476 119.799C34.8343 119.908 34.9483 120.063 35.0942 120.255L36.3849 122.02L41.0821 128.491H40.9636L49.5965 122.339C51.2155 121.194 52.9074 119.99 54.6586 118.745C55.5297 118.116 56.4463 117.505 57.3128 116.839C58.168 116.139 58.8017 115.206 59.137 114.153C59.4876 113.05 59.5018 111.867 59.178 110.755C59.0141 110.217 58.7746 109.704 58.4666 109.232C58.0161 108.549 57.4251 107.969 56.7331 107.532C56.0412 107.095 55.264 106.81 54.4534 106.697C53.9362 106.621 53.4109 106.621 52.8937 106.697C52.6385 106.729 52.3856 106.778 52.1367 106.843C51.8923 106.91 51.653 106.996 51.4207 107.098C50.4767 107.476 49.7379 108.174 48.9535 108.749L46.7097 110.464L42.6737 113.528L36.7999 117.993L35.19 119.21L34.7613 119.525L34.6291 119.635Z" fill="#2D4356"/>
<path d="M42.3271 119.142L32.2941 126.361C32.2941 126.361 32.7501 127.46 33.0009 127.351C33.2518 127.241 40.7948 122.106 43.2437 120.437C43.3378 120.373 43.4169 120.289 43.4756 120.191C43.5342 120.093 43.5711 119.984 43.5837 119.87C43.5962 119.757 43.5842 119.642 43.5483 119.534C43.5125 119.425 43.4537 119.326 43.376 119.242C43.2443 119.099 43.0643 119.01 42.8707 118.992C42.6772 118.973 42.4836 119.027 42.3271 119.142Z" fill="#FCB59E"/>
<path d="M52.7387 114.609C52.7816 115.272 52.6269 115.932 52.2943 116.507C51.9618 117.082 51.4661 117.545 50.8702 117.838C50.2743 118.131 49.6049 118.24 48.9467 118.153C48.2884 118.065 47.6709 117.785 47.1723 117.346C46.6737 116.907 46.3164 116.331 46.1456 115.689C45.9748 115.047 45.9982 114.369 46.2128 113.741C46.4274 113.113 46.8236 112.562 47.3513 112.159C47.8789 111.756 48.5143 111.518 49.177 111.476C50.0646 111.42 50.9383 111.718 51.6061 112.306C52.2739 112.893 52.6813 113.721 52.7387 114.609Z" fill="white"/>
<path d="M52.7387 114.609C52.7387 114.609 52.7068 114.313 52.538 113.815C52.2961 113.111 51.8258 112.507 51.2018 112.101C50.7455 111.803 50.2219 111.624 49.6786 111.58C49.1353 111.536 48.5898 111.629 48.0916 111.85C47.4813 112.121 46.9684 112.571 46.6219 113.142C46.2754 113.713 46.1119 114.376 46.1534 115.042C46.2032 115.73 46.4662 116.385 46.9059 116.917C47.2975 117.388 47.8144 117.739 48.3969 117.93C48.9795 118.12 49.604 118.142 50.1985 117.993C50.6924 117.873 51.1505 117.637 51.5347 117.304C52.1043 116.824 52.4948 116.165 52.6429 115.434C52.6886 115.164 52.7206 114.892 52.7387 114.618C52.7593 114.688 52.7686 114.76 52.7661 114.832C52.7804 115.04 52.7682 115.248 52.7296 115.453C52.6264 116.101 52.3363 116.705 51.8948 117.191C51.4533 117.677 50.8797 118.024 50.2441 118.189C49.6142 118.355 48.95 118.339 48.329 118.142C47.708 117.945 47.1559 117.575 46.7371 117.076C46.2621 116.512 45.9793 115.81 45.9299 115.074C45.8857 114.364 46.0611 113.657 46.4323 113.05C46.8036 112.443 47.3526 111.965 48.0049 111.681C48.5723 111.438 49.1938 111.35 49.8063 111.426C50.4556 111.51 51.0668 111.78 51.5666 112.203C52.0665 112.626 52.4338 113.185 52.6247 113.811C52.688 114.007 52.7263 114.211 52.7387 114.417C52.7483 114.481 52.7483 114.545 52.7387 114.609Z" fill="#2D4356"/>
<path d="M57.828 116.524C63.2231 111.481 62.2608 105.639 62.2608 105.639C55.0051 103.732 50.1072 107.723 50.1072 107.723C54.9367 108.402 57.5225 111.325 57.828 116.524Z" fill="#FCB59E"/>
<path d="M115.135 95.0492L117.009 112.274L128.1 115.973L128.556 121.336L112.905 120.287C112.905 120.287 108.08 120.405 107.031 114.048L106.776 97.3385L115.135 95.0492Z" fill="#FFBE9D"/>
<path d="M138.152 121.244C138.053 121.361 137.921 121.446 137.774 121.486C137.627 121.527 137.471 121.522 137.326 121.472C137.263 121.453 137.203 121.424 137.148 121.386C136.756 121.14 137.025 120.278 137.025 120.278L135.073 119.407C135.073 119.407 131.958 120.419 130.713 121.304C129.468 122.188 127.298 120.633 127.298 120.633L127.612 116.073L132.273 113.665C132.273 113.665 131.99 113.806 132.419 113.236C132.848 112.666 133.965 113.236 133.965 113.236C134.23 112.972 135.032 113.063 135.032 113.063L138.224 114.313C138.548 114.441 138.839 114.641 139.076 114.896C139.313 115.152 139.489 115.457 139.593 115.79L140.404 118.367C140.404 118.367 140.724 120.154 140.509 120.492C140.417 120.633 140.275 120.735 140.111 120.778C139.948 120.821 139.775 120.802 139.625 120.725C139.625 120.725 139.168 121.723 138.899 121.691C138.62 121.602 138.361 121.461 138.133 121.276L138.152 121.244Z" fill="#FFBE9D"/>
<path d="M131.603 120.793C131.685 120.767 131.764 120.734 131.84 120.693L132.515 120.396C133.35 120.042 134.206 119.737 135.078 119.484H135.028L136.98 120.373L136.929 120.269C136.88 120.433 136.85 120.603 136.838 120.775C136.817 120.966 136.851 121.159 136.939 121.331C136.998 121.417 137.08 121.485 137.176 121.527C137.263 121.576 137.359 121.607 137.458 121.618C137.664 121.64 137.871 121.588 138.042 121.473C138.086 121.443 138.127 121.409 138.165 121.372L138.193 121.345H138.065L138.12 121.39L138.361 121.55C138.444 121.606 138.531 121.655 138.621 121.696C138.669 121.72 138.72 121.738 138.772 121.751C138.835 121.773 138.904 121.773 138.968 121.751C139.077 121.706 139.172 121.632 139.242 121.536C139.305 121.455 139.363 121.37 139.415 121.281C139.522 121.106 139.618 120.925 139.702 120.738L139.561 120.788C139.691 120.855 139.838 120.885 139.984 120.875C140.13 120.864 140.271 120.814 140.391 120.729C140.514 120.637 140.601 120.505 140.637 120.355C140.682 120.221 140.711 120.081 140.724 119.94C140.706 119.397 140.648 118.856 140.55 118.321C140.414 117.865 140.268 117.409 140.117 116.953C140.026 116.657 139.935 116.369 139.844 116.077C139.765 115.781 139.655 115.493 139.515 115.22C139.362 114.95 139.154 114.716 138.904 114.532C138.663 114.357 138.395 114.223 138.111 114.135L135.092 112.963H135.069C134.875 112.944 134.679 112.944 134.485 112.963C134.28 112.971 134.084 113.045 133.924 113.172H134.047C133.899 113.052 133.723 112.97 133.536 112.931C133.348 112.893 133.155 112.901 132.971 112.954C132.643 113.084 132.376 113.333 132.223 113.651L132.259 113.615L129.067 115.261L128.196 115.717C128.091 115.764 127.992 115.822 127.9 115.891C128.009 115.853 128.115 115.809 128.219 115.758L129.104 115.339L132.346 113.756H132.369V113.729C132.505 113.453 132.739 113.239 133.026 113.127C133.182 113.084 133.347 113.08 133.505 113.114C133.664 113.148 133.812 113.22 133.938 113.323L134.002 113.373L134.061 113.318C134.194 113.224 134.353 113.173 134.517 113.172C134.697 113.154 134.879 113.154 135.06 113.172H135.037L138.047 114.363C138.312 114.449 138.562 114.575 138.79 114.737C139.015 114.903 139.203 115.114 139.342 115.357C139.473 115.619 139.577 115.894 139.652 116.178C139.739 116.465 139.834 116.757 139.926 117.049C140.072 117.505 140.222 117.961 140.359 118.417C140.455 118.94 140.515 119.468 140.537 119.999C140.54 120.123 140.53 120.247 140.509 120.369C140.483 120.472 140.422 120.562 140.336 120.624C140.247 120.684 140.144 120.719 140.038 120.725C139.931 120.732 139.825 120.709 139.73 120.661L139.629 120.62L139.588 120.715C139.508 120.894 139.419 121.067 139.319 121.235C139.243 121.388 139.13 121.52 138.991 121.618C138.962 121.625 138.933 121.625 138.904 121.618C138.862 121.607 138.82 121.592 138.781 121.573C138.7 121.535 138.62 121.492 138.544 121.445C138.466 121.395 138.389 121.345 138.316 121.29L138.261 121.249C138.38 121.249 138.097 121.249 138.124 121.249L138.101 121.272C138.073 121.301 138.04 121.327 138.006 121.349C137.873 121.443 137.711 121.485 137.55 121.468C137.472 121.46 137.398 121.435 137.331 121.395C137.262 121.372 137.203 121.327 137.162 121.267C137.053 120.973 137.053 120.649 137.162 120.355V120.282L137.094 120.25L135.133 119.388H135.105H135.082C134.21 119.659 133.357 119.988 132.529 120.373C132.237 120.51 132.018 120.624 131.872 120.706C131.778 120.722 131.688 120.751 131.603 120.793Z" fill="#EB996E"/>
<path d="M134.216 114.513C134.51 114.759 134.839 114.96 135.192 115.111C136.04 115.527 136.938 115.833 137.864 116.023L137.773 115.922C137.773 116.096 137.8 116.283 137.823 116.474C137.957 117.541 138.294 118.572 138.817 119.511C138.973 119.795 139.15 120.066 139.346 120.323C139.488 120.506 139.574 120.597 139.583 120.588C139.593 120.579 139.319 120.159 138.954 119.438C138.487 118.498 138.179 117.487 138.042 116.447C138.019 116.26 138.006 116.077 137.992 115.909V115.836H137.905C136.995 115.653 136.106 115.373 135.256 115.001C134.608 114.696 134.234 114.468 134.216 114.513Z" fill="#EB996E"/>
<path d="M136.843 117.268C136.786 118.688 137.293 120.073 138.252 121.121C138.307 121.085 137.764 120.323 137.381 119.256C136.998 118.189 136.911 117.259 136.843 117.268Z" fill="#EB996E"/>
<path d="M126.997 119.133C126.997 119.133 127.024 119.169 127.088 119.224C127.179 119.302 127.276 119.373 127.38 119.434C127.763 119.682 128.19 119.853 128.638 119.94C129.326 120.073 130.037 120.01 130.691 119.758C131.519 119.431 132.211 118.831 132.652 118.057L132.51 118.102C133.536 118.596 134.648 118.883 135.785 118.946C136.09 118.978 136.398 118.959 136.697 118.891C136.865 118.854 137.013 118.754 137.112 118.613C137.157 118.541 137.187 118.461 137.199 118.377C137.212 118.293 137.207 118.207 137.185 118.125C137.141 117.962 137.034 117.822 136.888 117.737L136.533 117.541C135.593 117.035 134.708 116.629 133.988 116.296C133.267 115.963 132.62 115.735 132.218 115.58C132.003 115.488 131.778 115.417 131.548 115.371C131.754 115.483 131.967 115.58 132.186 115.662C132.601 115.84 133.194 116.119 133.924 116.438C134.654 116.757 135.506 117.208 136.432 117.724L136.783 117.92C136.831 117.947 136.872 117.984 136.905 118.028C136.938 118.072 136.962 118.122 136.975 118.175C136.989 118.23 136.993 118.286 136.985 118.342C136.977 118.397 136.958 118.451 136.929 118.499C136.859 118.594 136.754 118.658 136.637 118.677C136.362 118.736 136.079 118.752 135.798 118.723C134.692 118.655 133.609 118.378 132.606 117.906L132.515 117.861L132.465 117.952C132.057 118.686 131.415 119.261 130.64 119.584C130.02 119.838 129.341 119.915 128.679 119.808C128.244 119.737 127.823 119.593 127.434 119.384C127.143 119.224 127.006 119.119 126.997 119.133Z" fill="#EB996E"/>
<path d="M140.377 183.499C140.41 183.358 140.41 183.212 140.377 183.071C140.311 182.68 140.163 182.307 139.944 181.976C139.873 181.859 139.785 181.754 139.684 181.662C139.62 181.602 139.542 181.56 139.457 181.541C139.372 181.522 139.283 181.525 139.2 181.552C139.151 181.57 139.105 181.599 139.068 181.637C139.031 181.675 139.003 181.721 138.986 181.771C138.955 181.864 138.955 181.965 138.986 182.058C139.048 182.217 139.125 182.369 139.214 182.514C139.378 182.797 139.52 183.08 139.734 183.399C139.799 183.49 139.887 183.562 139.988 183.607C140.09 183.653 140.202 183.671 140.313 183.659C140.516 183.623 140.707 183.539 140.87 183.413C141.17 183.193 141.444 182.939 141.686 182.656C141.802 182.522 141.91 182.382 142.01 182.236C142.121 182.092 142.203 181.928 142.251 181.753C142.277 181.65 142.267 181.542 142.222 181.446C142.177 181.351 142.101 181.274 142.005 181.228C141.916 181.203 141.821 181.2 141.73 181.221C141.639 181.241 141.555 181.285 141.485 181.347C141.279 181.528 141.097 181.735 140.943 181.963C140.715 182.284 140.534 182.635 140.404 183.007C140.344 183.137 140.313 183.279 140.313 183.422C140.526 182.941 140.786 182.483 141.088 182.054C141.24 181.848 141.416 181.661 141.613 181.497C141.653 181.46 141.703 181.434 141.756 181.42C141.809 181.407 141.865 181.406 141.918 181.42C141.964 181.446 141.998 181.488 142.016 181.537C142.035 181.586 142.035 181.639 142.019 181.689C141.975 181.831 141.904 181.962 141.809 182.077C141.713 182.213 141.608 182.346 141.499 182.473C141.264 182.737 141.003 182.975 140.719 183.185C140.585 183.287 140.429 183.356 140.263 183.385C140.195 183.394 140.127 183.384 140.065 183.356C140.003 183.328 139.95 183.283 139.912 183.226C139.734 182.966 139.565 182.642 139.397 182.378C139.317 182.251 139.245 182.12 139.182 181.985C139.137 181.862 139.182 181.78 139.246 181.748C139.442 181.666 139.634 181.89 139.766 182.077C140.059 182.507 140.266 182.99 140.377 183.499Z" fill="#2D4356"/>
<path d="M129.245 183.882L123.718 195.863L114.797 191.74L120.512 176.914L129.245 183.882Z" fill="#FFBE9D"/>
<path d="M124.762 195.06L121.529 201.221C121.529 201.221 129.778 209.781 129.021 211.678L109.585 202.361L114.925 190.007L124.762 195.06Z" fill="#FCB59E"/>
<path d="M115.924 197.495C115.71 197.463 115.492 197.511 115.311 197.63C115.13 197.748 114.999 197.93 114.943 198.138C114.901 198.351 114.942 198.572 115.058 198.754C115.175 198.937 115.358 199.068 115.568 199.119C115.796 199.158 116.03 199.109 116.223 198.982C116.416 198.855 116.554 198.659 116.608 198.435C116.627 198.208 116.559 197.983 116.416 197.806C116.273 197.63 116.067 197.515 115.842 197.486" fill="#E0E0E0"/>
<g opacity="0.6">
<path d="M109.585 202.361L110.396 200.811L128.725 210.329C128.725 210.329 129.414 211.118 129.021 211.697L109.585 202.361Z" fill="white"/>
</g>
<path d="M121.893 201.271C121.843 201.367 121.351 201.18 120.735 201.271C120.119 201.363 119.682 201.632 119.613 201.554C119.545 201.477 119.951 200.993 120.694 200.907C121.437 200.82 121.957 201.194 121.893 201.271Z" fill="#2D4356"/>
<path d="M123.526 203.096C123.503 203.196 123.016 203.16 122.5 203.406C121.985 203.652 121.688 204.035 121.588 203.985C121.488 203.935 121.693 203.369 122.341 203.073C122.988 202.776 123.567 203 123.526 203.096Z" fill="#2D4356"/>
<path d="M123.517 206.087C123.421 206.087 123.517 205.531 124.01 205.125C124.502 204.719 125.045 204.728 125.045 204.829C125.045 204.929 124.639 205.075 124.242 205.408C123.845 205.741 123.613 206.133 123.517 206.087Z" fill="#2D4356"/>
<path d="M122.819 198.9C122.737 198.968 122.363 198.626 121.811 198.408C121.26 198.189 120.758 198.157 120.749 198.052C120.74 197.947 121.301 197.801 121.953 198.052C122.605 198.303 122.901 198.836 122.819 198.9Z" fill="#2D4356"/>
<path d="M126.586 193.464L141.157 156.98C141.157 156.98 140.829 150.76 139.684 148.794C138.539 146.829 103.825 135.368 103.825 135.368C103.825 135.368 94.9822 133.238 89.0901 135.368C83.198 137.498 78.7743 144.863 79.5906 148.958C80.407 153.054 84.1739 156.383 84.1739 156.383L109.393 156.839L123.303 161.896L113.931 188.753L126.586 193.464Z" fill="#2D4356"/>
<path d="M139.542 168.541L139.871 181.734L130.048 181.972L128.634 166.147L139.542 168.541Z" fill="#FFBE9D"/>
<path d="M140.455 180.553L140.268 187.508C140.268 187.508 151.459 191.53 151.605 193.587L130.052 193.806L129.391 180.362L140.455 180.553Z" fill="#FCB59E"/>
<path d="M133.6 186.642C133.393 186.707 133.218 186.847 133.108 187.033C132.997 187.22 132.96 187.441 133.003 187.654C133.061 187.863 133.197 188.042 133.382 188.154C133.568 188.266 133.79 188.302 134.002 188.256C134.223 188.189 134.41 188.041 134.526 187.841C134.642 187.641 134.678 187.405 134.626 187.18C134.544 186.968 134.384 186.797 134.178 186.701C133.972 186.606 133.737 186.595 133.523 186.669" fill="#E0E0E0"/>
<g opacity="0.6">
<path d="M130.061 193.82L130.102 192.073L150.752 192.529C150.752 192.529 151.719 192.935 151.614 193.614L130.061 193.82Z" fill="white"/>
</g>
<path d="M140.623 187.394C140.623 187.499 140.094 187.554 139.584 187.896C139.073 188.238 138.795 188.685 138.699 188.644C138.603 188.603 138.754 187.996 139.383 187.59C140.012 187.184 140.646 187.298 140.623 187.394Z" fill="#2D4356"/>
<path d="M142.894 188.306C142.922 188.406 142.466 188.593 142.114 189.04C141.763 189.487 141.658 189.952 141.558 189.952C141.458 189.952 141.38 189.355 141.827 188.803C142.274 188.251 142.89 188.206 142.894 188.306Z" fill="#2D4356"/>
<path d="M144.208 190.997C144.112 191.024 143.957 190.5 144.208 189.92C144.459 189.341 144.965 189.104 145.01 189.191C145.056 189.277 144.755 189.592 144.554 190.071C144.354 190.55 144.308 190.988 144.208 190.997Z" fill="#2D4356"/>
<path d="M140.409 184.858C140.368 184.954 139.88 184.813 139.287 184.858C138.694 184.904 138.229 185.095 138.174 185.009C138.12 184.922 138.562 184.553 139.264 184.494C139.967 184.434 140.459 184.772 140.409 184.858Z" fill="#2D4356"/>
<path d="M133.805 131.92C133.805 131.92 139.693 131.464 140.345 137.849C140.997 144.234 141.636 174.023 141.636 174.023L127.881 175.172L125.752 144.717L103.811 135.382C103.811 135.382 129.874 131.104 133.805 131.92Z" fill="#2D4356"/>
<path d="M109.548 123.306C109.548 123.306 113.119 133.339 112.44 134.438C111.76 135.537 102.571 140.143 102.571 140.143L79.586 148.972C79.586 148.972 77.2283 145.219 77.2283 139.45C77.2283 133.681 85.2228 123.306 85.2228 123.306H109.548Z" fill="#2D4356"/>
<path d="M102.735 134.871C102.735 134.871 102.767 134.894 102.84 134.93L103.168 135.081L104.44 135.646L109.22 137.726L125.715 144.827L125.638 144.722C125.847 147.732 126.071 150.983 126.308 154.344C126.864 162.202 127.38 169.444 127.79 175.176V175.281H127.895L137.928 174.401L140.664 174.146L141.385 174.068C141.468 174.063 141.55 174.051 141.631 174.032H141.385L140.66 174.077L137.896 174.283L127.863 175.072L127.972 175.167C127.58 169.435 127.083 162.188 126.545 154.331C126.308 150.97 126.089 147.718 125.866 144.713V144.635L125.797 144.608L109.265 137.589L104.459 135.573L103.173 135.044L102.835 134.912L102.735 134.871Z" fill="#455A64"/>
<path d="M84.4521 135.874C84.6727 135.834 84.8894 135.774 85.0997 135.697L86.8282 135.14C88.7172 134.5 90.6538 134.011 92.6199 133.676C94.5852 133.354 96.5918 133.379 98.5485 133.749C99.3518 133.938 100.145 134.168 100.925 134.438C100.738 134.315 100.537 134.213 100.327 134.137C99.7658 133.899 99.1843 133.711 98.5896 133.576C96.6156 133.143 94.5772 133.091 92.5835 133.421C90.6022 133.762 88.6571 134.287 86.7734 134.99C86.0483 135.245 85.4646 135.469 85.0678 135.624C84.8546 135.686 84.6484 135.77 84.4521 135.874Z" fill="#455A64"/>
<path d="M87.7036 130.593C88.3718 130.552 89.042 130.552 89.7102 130.593C90.3304 130.635 91.0784 130.73 91.8901 130.826C92.7019 130.922 93.6049 131.031 94.5352 131.209C96.1321 131.464 97.6632 132.031 99.0409 132.878C99.5892 133.261 100.11 133.682 100.601 134.137C100.512 133.977 100.4 133.831 100.268 133.704C99.9287 133.339 99.551 133.011 99.1413 132.728C97.7653 131.818 96.2101 131.215 94.5808 130.958C93.6368 130.776 92.7292 130.676 91.9084 130.589C91.0875 130.502 90.3487 130.429 89.7193 130.411C89.2213 130.389 88.7224 130.41 88.2281 130.475C88.0483 130.488 87.8715 130.528 87.7036 130.593Z" fill="#455A64"/>
<path d="M97.8554 50.115C95.2103 49.6589 92.8845 50.6805 90.6544 52.1717C88.4296 53.7069 86.727 55.8853 85.7747 58.415C84.7157 61.0604 84.546 63.9785 85.2913 66.7287C85.6738 68.0921 86.3284 69.3638 87.2156 70.4674C88.1029 71.571 89.2044 72.4834 90.4537 73.1499C93.8923 74.8965 98.2932 74.29 101.371 71.9642C104.45 69.6383 106.21 65.7893 106.356 61.9311C106.496 59.2557 105.791 56.6041 104.34 54.3516C103.608 53.2382 102.654 52.2874 101.539 51.5586C100.423 50.8297 99.1692 50.3383 97.8554 50.115Z" fill="#2D4356"/>
<path d="M90.3351 59.1082C90.7227 58.0958 90.5722 56.9648 90.7227 55.893C91.0602 53.5307 92.9619 51.6381 95.1646 50.7169C97.2122 49.8596 99.7251 50.0465 102.179 50.8446C103.89 51.365 105.418 52.3614 106.584 53.7177C107.327 54.6377 107.839 55.7222 108.077 56.8806C108.315 58.039 108.272 59.2375 107.952 60.376L95.8715 58.6202C94.7405 59.5551 93.5912 60.5037 92.2231 61.0281C91.8279 61.2025 91.3943 61.2716 90.9644 61.2288C90.7498 61.2038 90.547 61.1173 90.3803 60.9798C90.2136 60.8422 90.0903 60.6595 90.025 60.4535C89.8927 59.9975 90.1663 59.546 90.3351 59.1082Z" fill="#2D4356"/>
<path d="M102.416 54.1783L91.8674 56.413C91.378 56.4503 90.92 56.6685 90.5827 57.0252C90.2455 57.3818 90.0531 57.8513 90.0432 58.342L90.1709 81.1717C90.1806 82.7296 90.7031 84.241 91.6576 85.4722L92.6655 86.772C94.9457 89.7317 99.6019 89.4307 101.353 86.1244C101.46 85.9365 101.543 85.7357 101.599 85.527C101.631 85.3217 101.686 85.1849 101.695 85.0116L101.9 82.7861C102.001 80.7522 102.014 78.6817 102.014 78.7091C102.014 78.7364 106.333 78.1618 107.437 72.5981C107.989 69.8344 108.025 65.2648 107.934 61.5253C107.861 58.1596 105.795 53.9549 102.416 54.1783Z" fill="#FFBE9D"/>
<path d="M106.165 66.1906C106.159 66.3777 106.08 66.5552 105.946 66.6854C105.811 66.8157 105.631 66.8884 105.444 66.8883C105.352 66.892 105.261 66.8773 105.175 66.8452C105.089 66.8131 105.011 66.7642 104.944 66.7013C104.877 66.6385 104.824 66.5629 104.787 66.4792C104.75 66.3954 104.73 66.305 104.728 66.2134C104.733 66.0259 104.811 65.8477 104.946 65.7173C105.08 65.5868 105.261 65.5144 105.449 65.5156C105.54 65.5113 105.632 65.5256 105.718 65.5574C105.804 65.5893 105.883 65.6382 105.95 65.7012C106.017 65.7642 106.07 65.84 106.107 65.924C106.144 66.0081 106.163 66.0988 106.165 66.1906Z" fill="#2D4356"/>
<path d="M106.858 63.8464C106.767 63.9376 106.238 63.5135 105.467 63.4861C104.696 63.4588 104.099 63.8236 104.03 63.7278C103.962 63.6321 104.09 63.518 104.345 63.3447C104.688 63.1278 105.089 63.0211 105.494 63.0392C105.896 63.0529 106.283 63.1952 106.598 63.4451C106.83 63.6503 106.903 63.8464 106.858 63.8464Z" fill="#2D4356"/>
<path d="M99.0272 65.8211C99.0213 66.0082 98.9428 66.1857 98.8083 66.316C98.6738 66.4462 98.4939 66.519 98.3067 66.5189C98.2155 66.5219 98.1246 66.5068 98.0393 66.4744C97.954 66.442 97.876 66.393 97.8098 66.3302C97.7436 66.2674 97.6905 66.1921 97.6537 66.1086C97.6169 66.0251 97.597 65.9352 97.5952 65.8439C97.6 65.6564 97.6782 65.4783 97.8129 65.3478C97.9476 65.2173 98.1282 65.1449 98.3158 65.1462C98.4071 65.1425 98.4983 65.1572 98.5838 65.1894C98.6694 65.2215 98.7477 65.2705 98.814 65.3334C98.8803 65.3964 98.9334 65.4719 98.97 65.5557C99.0066 65.6395 99.0261 65.7297 99.0272 65.8211Z" fill="#2D4356"/>
<path d="M99.5243 63.6731C99.4331 63.7643 98.9041 63.3402 98.1288 63.3129C97.3535 63.2855 96.7607 63.6503 96.6968 63.55C96.633 63.4497 96.7561 63.3402 97.0069 63.1715C97.3508 62.9531 97.7538 62.8463 98.1607 62.8659C98.5626 62.8797 98.9494 63.0219 99.2644 63.2718C99.497 63.4634 99.5699 63.6321 99.5243 63.6731Z" fill="#2D4356"/>
<path d="M101.841 69.5471C102.253 69.437 102.678 69.3773 103.104 69.3692C103.3 69.3692 103.492 69.3236 103.529 69.1914C103.554 68.9887 103.516 68.783 103.419 68.6031C103.255 68.1197 103.077 67.6089 102.895 67.0799C102.169 64.9091 101.65 63.1259 101.736 63.0986C101.823 63.0712 102.484 64.8042 103.214 66.975C103.387 67.5086 103.556 68.0193 103.711 68.5073C103.828 68.75 103.854 69.0269 103.784 69.2871C103.753 69.3554 103.707 69.4156 103.65 69.4631C103.592 69.5106 103.524 69.544 103.451 69.5608C103.34 69.5869 103.227 69.5991 103.114 69.5972C102.689 69.6346 102.261 69.6178 101.841 69.5471Z" fill="#2D4356"/>
<path d="M102.019 78.7091C99.3839 78.65 96.8168 77.8607 94.6038 76.4288C94.6038 76.4288 96.3367 80.3782 101.96 80.0772L102.019 78.7091Z" fill="#EB996E"/>
<path d="M101.444 71.3986C101.306 71.2056 101.119 71.0519 100.904 70.9527C100.688 70.8536 100.45 70.8124 100.213 70.8331C100.038 70.8421 99.8662 70.8873 99.7092 70.9658C99.5522 71.0442 99.4132 71.1544 99.3008 71.2892C99.1936 71.4132 99.127 71.5671 99.1099 71.7302C99.0927 71.8932 99.126 72.0576 99.2051 72.2013C99.3223 72.3468 99.4813 72.4529 99.6608 72.5051C99.8402 72.5573 100.031 72.5531 100.208 72.4931C100.577 72.3796 100.92 72.1935 101.216 71.9459C101.306 71.887 101.384 71.8111 101.444 71.7224C101.473 71.68 101.488 71.63 101.488 71.5788C101.488 71.5275 101.473 71.4775 101.444 71.4351" fill="#EB996E"/>
<path d="M99.5473 69.9939C99.675 69.9939 99.6431 70.8285 100.336 71.4533C101.029 72.0781 101.928 72.0188 101.928 72.1374C101.928 72.1875 101.723 72.2924 101.349 72.2879C100.857 72.2753 100.385 72.0896 100.017 71.7634C99.6627 71.4506 99.4436 71.0124 99.4059 70.5412C99.3877 70.19 99.4926 69.9848 99.5473 69.9939Z" fill="#2D4356"/>
<path d="M99.4787 61.3838C99.3967 61.5891 98.6305 61.4614 97.7184 61.5343C96.8063 61.6073 96.0675 61.8262 95.9535 61.6346C95.9033 61.5389 96.0402 61.3473 96.3411 61.1558C96.745 60.9221 97.1967 60.7834 97.6621 60.7502C98.1275 60.717 98.5944 60.7902 99.0273 60.9643C99.3556 61.1102 99.5198 61.2835 99.4787 61.3838Z" fill="#2D4356"/>
<path d="M106.766 60.4763C106.62 60.6451 106.096 60.4444 105.457 60.4125C104.819 60.3806 104.272 60.4809 104.153 60.2939C104.103 60.2027 104.194 60.0294 104.44 59.8744C104.763 59.6823 105.138 59.5962 105.512 59.6281C105.888 59.6494 106.248 59.7864 106.543 60.0203C106.762 60.1981 106.83 60.3942 106.766 60.4763Z" fill="#2D4356"/>
<path d="M88.4014 57.4618C89.4959 54.2695 94.2707 49.8732 97.65 50.1651L102.986 53.5124C102.793 54.4315 102.354 55.2812 101.718 55.9717C101.081 56.6621 100.27 57.1675 99.3693 57.4344C98.4071 57.7035 97.2578 57.7628 96.6695 58.5746C96.0812 59.3863 96.3913 60.6268 95.8304 61.4841C95.0597 62.6653 93.0166 62.5695 92.4283 63.8556C92.1729 64.4165 92.2869 65.096 92.0179 65.657C91.6621 66.3957 89.7376 67.3078 88.9715 67.0251C88.2053 66.7423 88.2144 65.4289 87.9727 64.7449C87.6641 63.9488 87.6416 63.0703 87.9089 62.2594C88.2783 60.7043 87.877 59.0078 88.4014 57.4618Z" fill="#2D4356"/>
<path d="M91.2698 67.7776C91.2698 67.3626 90.8412 66.3639 90.4353 66.2818C89.3408 66.0674 87.357 66.0811 87.243 68.8676C87.0697 72.6847 90.9369 72.0599 90.9461 71.9641C90.9552 71.8684 91.2197 69.2187 91.2698 67.7776Z" fill="#FFBE9D"/>
<path d="M89.8334 70.4638C89.8334 70.4638 89.765 70.5094 89.651 70.555C89.4914 70.6187 89.3135 70.6187 89.1539 70.555C88.7571 70.3908 88.447 69.7341 88.4607 69.0455C88.4643 68.7176 88.5423 68.3948 88.6887 68.1015C88.7301 67.9838 88.7995 67.8779 88.8908 67.7929C88.9822 67.7079 89.0928 67.6463 89.2132 67.6135C89.2904 67.5977 89.3707 67.6091 89.4405 67.6456C89.5103 67.6822 89.5653 67.7417 89.5963 67.8142C89.6419 67.9236 89.5963 68.0011 89.6328 68.0057C89.6692 68.0103 89.7194 67.9464 89.6966 67.7868C89.6769 67.6918 89.6274 67.6055 89.5552 67.5405C89.4548 67.4566 89.3254 67.4156 89.195 67.4265C89.0371 67.451 88.888 67.5154 88.7619 67.6136C88.6359 67.7117 88.5369 67.8404 88.4744 67.9875C88.2951 68.3101 88.198 68.6719 88.1917 69.0409C88.1917 69.8117 88.5428 70.5459 89.1037 70.7329C89.2047 70.7666 89.3118 70.7775 89.4175 70.7649C89.5231 70.7523 89.6247 70.7164 89.7148 70.6599C89.8243 70.555 89.8471 70.4729 89.8334 70.4638Z" fill="#EB996E"/>
<path d="M87.5851 56.4859C87.5851 55.2956 86.1076 54.5157 84.9446 54.2421C83.7567 54.0381 82.5351 54.2714 81.506 54.8988C80.8904 55.2363 80.2747 55.7106 80.1379 56.3992C80.0011 57.0878 80.6624 57.8996 81.3145 57.6533C80.9857 57.7509 80.6831 57.9214 80.4293 58.1521C80.1755 58.3828 79.977 58.6678 79.8486 58.9859C79.7202 59.3039 79.6653 59.6469 79.6878 59.9891C79.7103 60.3314 79.8097 60.6641 79.9787 60.9626C80.1477 61.2611 80.3818 61.5176 80.6636 61.7131C80.9455 61.9086 81.2678 62.0379 81.6066 62.0916C81.9453 62.1452 82.2919 62.1217 82.6203 62.0229C82.9487 61.924 83.2506 61.7523 83.5035 61.5206C83.171 62.6236 82.4709 63.5796 81.5197 64.2295C82.5079 64.3707 83.5159 64.2489 84.442 63.8763C85.3681 63.5038 86.1796 62.8936 86.7947 62.1074C87.4098 61.3212 87.8068 60.3867 87.9455 59.3981C88.0843 58.4096 87.96 57.4019 87.5851 56.4767V56.4859Z" fill="#2D4356"/>
<path d="M84.9354 62.5559C84.8243 62.185 84.7765 61.798 84.7941 61.4112C84.776 59.5256 85.3946 57.689 86.5499 56.1986C86.7702 55.8812 87.0414 55.6023 87.3525 55.3732C87.4255 55.4233 86.144 56.6911 85.4736 58.7388C84.8032 60.7864 85.0221 62.5559 84.9354 62.5559Z" fill="#FCB59E"/>
<path d="M101.878 52.386C102.229 53.9411 104.591 55.934 105.626 57.1425C107.605 59.4501 107.993 60.2163 107.975 65.3514C108.887 63.5682 109.621 61.8216 109.548 59.815C109.506 57.7823 108.721 55.8356 107.341 54.3424C106.646 53.609 105.789 53.0481 104.839 52.7045C103.889 52.3608 102.872 52.244 101.868 52.3632" fill="#2D4356"/>
<path d="M118.058 94.8302C118.058 94.8302 113.954 87.9895 112.804 86.5895C111.887 85.5185 110.735 84.6728 109.439 84.1177C108.925 83.9032 108.388 83.7502 107.838 83.6616L101.909 82.3528C101.909 82.3528 101.909 86.3842 97.6728 86.6351C93.4361 86.8859 89.8835 80.9938 89.8835 80.9938C89.8835 80.9938 83.0428 82.0518 81.4147 82.8909C79.7867 83.73 77.2146 84.8018 75.8008 91.8796L74.8066 98.8024L86.6 99.8741L87.7264 117.377L93.5684 121.445C93.5684 121.445 109.763 125.654 110.798 125.933C111.833 126.211 112.166 99.8741 112.166 99.8741C112.166 99.8741 116.334 97.188 118.058 94.8302Z" fill="#FCB59E"/>
<path d="M110.305 91.8888C110.4 92.0469 110.477 92.2152 110.533 92.3904C110.666 92.7234 110.839 93.2068 111.031 93.8179C112.019 96.998 112.427 100.33 112.235 103.655C112.193 104.289 112.148 104.804 112.093 105.155C112.081 105.339 112.049 105.521 111.997 105.698C111.975 105.515 111.975 105.329 111.997 105.146C112.02 104.79 112.048 104.28 112.061 103.646C112.106 101.996 112.029 100.345 111.833 98.7067C111.628 97.0711 111.305 95.4525 110.866 93.8635C110.698 93.2524 110.547 92.7598 110.442 92.4224C110.378 92.2497 110.333 92.0709 110.305 91.8888Z" fill="#2D4356"/>
<path d="M109.804 120.556L87.6261 115.731L86.6 99.8741L76.7402 98.962C76.7402 98.962 77.1051 109.798 77.4836 113.022C78.0263 117.655 80.7671 123.967 82.3678 125.239C83.9686 126.512 110.798 125.933 110.798 125.933L109.804 120.556Z" fill="#FFBE9D"/>
<path d="M122.391 123.429C122.317 123.582 122.199 123.71 122.052 123.796C121.905 123.882 121.735 123.923 121.565 123.912C121.492 123.905 121.42 123.89 121.351 123.867C120.858 123.712 120.895 122.713 120.895 122.713L118.546 122.33C118.546 122.33 115.491 124.3 114.401 125.604C113.311 126.909 110.543 125.855 110.543 125.855L109.58 120.839L113.908 116.926C113.908 116.926 113.639 117.163 113.94 116.429C114.241 115.694 115.596 115.973 115.596 115.973C115.81 115.612 116.695 115.48 116.695 115.48L120.489 115.936C120.875 115.98 121.246 116.111 121.576 116.317C121.905 116.524 122.183 116.802 122.391 117.131L123.996 119.671C123.996 119.671 124.844 121.495 124.707 121.928C124.647 122.106 124.523 122.254 124.36 122.346C124.197 122.438 124.005 122.466 123.823 122.426C123.823 122.426 123.636 123.63 123.321 123.671C122.996 123.654 122.678 123.576 122.382 123.443L122.391 123.429Z" fill="#FFBE9D"/>
<path d="M114.314 119.831C114.314 119.872 114.825 119.831 115.632 119.863C116.686 119.909 117.729 120.104 118.728 120.442C119.279 120.626 119.814 120.853 120.329 121.121C120.785 121.381 121.264 121.577 121.41 121.929C121.444 122.001 121.458 122.082 121.451 122.162C121.444 122.242 121.415 122.319 121.369 122.385C121.301 122.493 121.2 122.577 121.082 122.626C120.974 122.661 120.862 122.678 120.749 122.676C120.749 122.676 120.867 122.781 121.114 122.713C121.259 122.671 121.387 122.583 121.478 122.462C121.544 122.38 121.586 122.282 121.602 122.178C121.618 122.074 121.607 121.968 121.57 121.869C121.475 121.649 121.316 121.463 121.114 121.336C120.908 121.199 120.694 121.062 120.452 120.93C119.932 120.644 119.387 120.404 118.824 120.214C117.803 119.87 116.732 119.694 115.655 119.694C115.204 119.673 114.752 119.719 114.314 119.831Z" fill="#EB996E"/>
<path d="M114.049 122.252C114.049 122.325 115.6 122.252 117.497 122.371C119.394 122.489 120.922 122.713 120.931 122.645C120.615 122.52 120.284 122.438 119.946 122.403C119.14 122.266 118.327 122.174 117.511 122.129C116.694 122.083 115.874 122.083 115.057 122.129C114.717 122.124 114.378 122.165 114.049 122.252Z" fill="#EB996E"/>
<path d="M122.368 123.333C122.402 123.202 122.419 123.067 122.418 122.932C122.441 122.561 122.441 122.19 122.418 121.819C122.405 121.56 122.37 121.302 122.313 121.048C122.245 120.751 122.118 120.47 121.939 120.223C121.567 119.649 121.085 119.154 120.521 118.768C119.959 118.38 119.345 118.073 118.697 117.856C118.162 117.704 117.61 117.621 117.055 117.61C116.599 117.61 116.207 117.61 115.947 117.61C115.81 117.601 115.673 117.615 115.541 117.651C116.04 117.719 116.542 117.761 117.046 117.774C117.583 117.81 118.114 117.908 118.628 118.066C119.247 118.291 119.833 118.598 120.37 118.978C120.908 119.345 121.372 119.809 121.738 120.346C122.034 120.786 122.204 121.299 122.231 121.828C122.34 122.754 122.318 123.338 122.368 123.333Z" fill="#EB996E"/>
<path d="M116.886 116.451C116.886 116.488 117.456 116.502 118.364 116.606C119.271 116.711 120.644 116.803 121.428 118.007C122.201 118.906 122.846 119.908 123.344 120.985C123.506 121.446 123.627 121.92 123.704 122.403C123.736 122.272 123.744 122.136 123.727 122.002C123.704 121.634 123.629 121.272 123.503 120.925C123.044 119.807 122.407 118.77 121.615 117.856C121.404 117.578 121.157 117.328 120.881 117.113C120.608 116.914 120.298 116.772 119.969 116.693C119.442 116.554 118.903 116.468 118.359 116.438C117.87 116.378 117.375 116.382 116.886 116.451Z" fill="#EB996E"/>
<path d="M115.24 124.797C115.323 124.749 115.399 124.69 115.468 124.624C115.632 124.496 115.842 124.323 116.102 124.113C116.9 123.494 117.733 122.922 118.596 122.398H118.542L120.89 122.8L120.808 122.699C120.803 122.892 120.818 123.084 120.854 123.274C120.885 123.484 120.977 123.68 121.118 123.839C121.208 123.915 121.317 123.965 121.433 123.981C121.541 124.003 121.653 124.003 121.761 123.981C121.989 123.947 122.196 123.832 122.345 123.657C122.385 123.615 122.42 123.569 122.45 123.52L122.473 123.484V123.461L122.336 123.511L122.409 123.538L122.71 123.648C122.815 123.68 122.92 123.707 123.034 123.73C123.091 123.735 123.149 123.735 123.207 123.73C123.282 123.736 123.358 123.722 123.426 123.689C123.53 123.607 123.609 123.498 123.654 123.374C123.701 123.271 123.741 123.164 123.772 123.055C123.837 122.836 123.887 122.614 123.923 122.389L123.786 122.485C123.946 122.517 124.111 122.507 124.265 122.454C124.419 122.401 124.556 122.308 124.662 122.184C124.767 122.056 124.824 121.894 124.821 121.728C124.813 121.573 124.786 121.42 124.739 121.272C124.564 120.693 124.348 120.127 124.092 119.58C123.823 119.147 123.531 118.691 123.239 118.212L122.696 117.354C122.528 117.055 122.328 116.775 122.099 116.52C121.858 116.275 121.569 116.083 121.25 115.954C120.938 115.84 120.611 115.772 120.279 115.754L116.704 115.352H116.676C116.462 115.388 116.251 115.443 116.047 115.516C115.83 115.583 115.639 115.717 115.504 115.9L115.637 115.858C115.443 115.77 115.23 115.73 115.017 115.742C114.804 115.754 114.597 115.817 114.414 115.927C114.098 116.159 113.883 116.503 113.812 116.889L113.844 116.839L110.862 119.521C110.524 119.826 110.26 120.072 110.059 120.259C109.961 120.34 109.87 120.43 109.79 120.528C109.898 120.461 109.999 120.383 110.091 120.296L110.926 119.594L113.963 116.971V116.939C114.029 116.605 114.218 116.307 114.492 116.105C114.648 116.016 114.823 115.966 115.002 115.959C115.182 115.952 115.36 115.988 115.523 116.064L115.605 116.096L115.655 116.023C115.774 115.881 115.933 115.78 116.111 115.731C116.301 115.665 116.496 115.616 116.695 115.585H116.667L120.238 116.004C120.55 116.022 120.857 116.087 121.15 116.196C121.44 116.311 121.702 116.485 121.921 116.707C122.136 116.951 122.324 117.217 122.482 117.5L123.024 118.358L123.882 119.726C124.131 120.261 124.345 120.813 124.52 121.377C124.56 121.507 124.586 121.642 124.598 121.778C124.603 121.897 124.563 122.013 124.484 122.102C124.406 122.193 124.305 122.261 124.192 122.298C124.079 122.336 123.957 122.342 123.841 122.316H123.722V122.43C123.687 122.645 123.64 122.859 123.581 123.069C123.543 123.256 123.459 123.43 123.335 123.575C123.304 123.58 123.274 123.58 123.243 123.575C123.195 123.579 123.146 123.579 123.097 123.575C122.997 123.556 122.898 123.532 122.801 123.502C122.705 123.474 122.609 123.438 122.514 123.402L122.445 123.374L122.309 123.424V123.452C122.287 123.492 122.261 123.531 122.231 123.566C122.113 123.701 121.952 123.792 121.775 123.821C121.689 123.837 121.601 123.837 121.515 123.821C121.436 123.813 121.361 123.782 121.301 123.73C121.101 123.444 121.011 123.096 121.045 122.749V122.663H120.968L118.615 122.293H118.583H118.56C117.697 122.831 116.872 123.428 116.093 124.081C115.824 124.309 115.637 124.496 115.481 124.624C115.395 124.673 115.314 124.731 115.24 124.797Z" fill="#EB996E"/>
<path d="M146.68 108.858L117.47 109.095C116.521 109.095 115.618 109.551 115.477 110.464L112.285 131.756H97.235C97.0028 131.756 96.78 131.849 96.6158 132.013C96.4516 132.177 96.3594 132.4 96.3594 132.632C96.3594 132.864 96.4516 133.087 96.6158 133.251C96.78 133.415 97.0028 133.508 97.235 133.508H145.284L148.568 111.038C148.605 110.768 148.585 110.492 148.507 110.23C148.43 109.968 148.297 109.726 148.118 109.52C147.94 109.313 147.719 109.147 147.471 109.033C147.222 108.919 146.953 108.86 146.68 108.858Z" fill="#E0E0E0"/>
<path d="M146.68 108.858C146.833 108.848 146.987 108.862 147.136 108.899C147.585 109.005 147.982 109.269 148.253 109.643C148.452 109.909 148.576 110.224 148.613 110.555C148.624 110.959 148.589 111.363 148.508 111.759L148.084 114.723C147.441 119.183 146.516 125.618 145.375 133.526V133.603H145.284L98.6626 133.631H97.3993C97.1702 133.654 96.9391 133.611 96.7335 133.508C96.5217 133.393 96.3594 133.205 96.2774 132.978C96.1958 132.755 96.197 132.51 96.2806 132.287C96.3643 132.065 96.525 131.88 96.7335 131.765C96.936 131.662 97.164 131.619 97.3902 131.642H112.262L112.148 131.738L115.34 110.619C115.37 110.192 115.562 109.794 115.878 109.506C116.198 109.241 116.585 109.07 116.996 109.013C117.387 108.977 117.78 108.964 118.172 108.972H119.321L123.718 108.945L131.534 108.895L142.662 108.84H145.64H146.406H146.666C146.666 108.84 146.579 108.84 146.406 108.84H145.64L142.662 108.886L131.534 109.009L123.718 109.086L119.321 109.127H118.177C117.793 109.12 117.41 109.134 117.028 109.168C116.651 109.22 116.296 109.378 116.006 109.624C115.729 109.885 115.566 110.243 115.55 110.623C114.597 117.008 113.539 124.118 112.399 131.743V131.843H97.3993C97.2134 131.82 97.0247 131.851 96.8566 131.934C96.7018 132.022 96.5826 132.161 96.5193 132.328C96.4561 132.494 96.4528 132.678 96.51 132.846C96.574 133.016 96.6949 133.158 96.8521 133.248C97.0222 133.334 97.2141 133.369 97.4039 133.348H98.658L145.28 133.375L145.188 133.453L147.975 114.655C148.144 113.546 148.29 112.557 148.431 111.695C148.512 111.306 148.552 110.91 148.549 110.514C148.519 110.185 148.403 109.87 148.212 109.602C147.95 109.234 147.568 108.971 147.131 108.858C146.981 108.846 146.83 108.846 146.68 108.858Z" fill="#2D4356"/>
<path d="M129.008 120.925C129.008 121.286 129.115 121.639 129.315 121.939C129.516 122.239 129.801 122.473 130.134 122.611C130.467 122.749 130.834 122.785 131.188 122.714C131.542 122.644 131.867 122.47 132.122 122.215C132.377 121.96 132.551 121.635 132.621 121.281C132.692 120.927 132.655 120.561 132.517 120.227C132.379 119.894 132.145 119.609 131.845 119.408C131.545 119.208 131.193 119.101 130.832 119.101C130.348 119.101 129.884 119.293 129.542 119.635C129.2 119.977 129.008 120.441 129.008 120.925Z" fill="white"/>
<path d="M113.466 133.334C113.507 133.334 114.437 127.921 115.541 121.226C116.644 114.532 117.511 109.1 117.47 109.095C117.429 109.091 116.498 114.509 115.395 121.203C114.291 127.898 113.425 133.33 113.466 133.334Z" fill="#2D4356"/>
</svg>
