<svg width="16" height="16" viewBox="0 0 16 16" fill="none" xmlns="http://www.w3.org/2000/svg">
<path d="M1.63949 12.3403L1.72511 12.1123L1.59836 11.9043C0.882958 10.7305 0.502408 9.37257 0.502408 7.9994C0.502408 3.91698 3.91379 0.502263 7.99725 0.500001C12.085 0.497739 15.5 3.91929 15.5 7.9994C15.5 12.0823 12.0858 15.4926 7.99725 15.4903H7.99655C6.92122 15.4913 5.8582 15.2615 4.87922 14.8166L4.73706 14.752L4.58339 14.7798L0.622338 15.4959L0.622295 15.4959C0.604236 15.4992 0.58563 15.4976 0.568378 15.4913C0.55112 15.4851 0.535837 15.4743 0.524083 15.4602C0.512327 15.4461 0.50452 15.4292 0.501456 15.4111C0.498393 15.393 0.500183 15.3744 0.506643 15.3572L0.506725 15.357L1.63949 12.3403Z" fill="#6CF72A" stroke="white"/>
<path d="M8.4269 11.9979C9.74443 12.8432 11.1223 12.1162 12.0124 11.3965C12.4991 11.0028 12.4834 10.2854 12.0559 9.82896L11.2781 9.00173C11.0451 8.75295 10.6453 8.75175 10.3301 8.88096C9.95335 9.03192 9.50894 9.07781 9.16476 8.97274C8.02234 8.62494 7.5429 8.03079 7.15525 7.42576C6.8461 6.94391 6.99343 6.29782 7.24341 5.81598C7.40161 5.51044 7.39316 5.10709 7.13835 4.87402L6.30266 4.112C5.90535 3.74971 5.30394 3.68691 4.93803 4.08181C4.02385 5.06845 3.41157 6.69031 4.06128 7.70231C5.1711 9.42923 6.69997 10.8881 8.4269 11.9979Z" fill="white"/>
</svg>
