<svg width="14" height="18" viewBox="0 0 14 18" fill="none" xmlns="http://www.w3.org/2000/svg">
<path d="M2.5 18C1.95 18 1.47917 17.8042 1.0875 17.4125C0.695833 17.0208 0.5 16.55 0.5 16V2C0.5 1.45 0.695833 0.979167 1.0875 0.5875C1.47917 0.195833 1.95 0 2.5 0H7.5C9.16667 0 10.5833 0.583333 11.75 1.75C12.9167 2.91667 13.5 4.33333 13.5 6C13.5 7.66667 12.9167 9.08333 11.75 10.25C10.5833 11.4167 9.16667 12 7.5 12H4.5V16C4.5 16.55 4.30417 17.0208 3.9125 17.4125C3.52083 17.8042 3.05 18 2.5 18ZM4.5 8H7.7C8.25 8 8.72083 7.80417 9.1125 7.4125C9.50417 7.02083 9.7 6.55 9.7 6C9.7 5.45 9.50417 4.97917 9.1125 4.5875C8.72083 4.19583 8.25 4 7.7 4H4.5V8Z" fill="#2D4356"/>
</svg>
