<svg width="14" height="18" viewBox="0 0 14 18" fill="none" xmlns="http://www.w3.org/2000/svg">
<path d="M12.9076 17V13.5125C12.9076 13.0966 12.8257 12.6847 12.6665 12.3004C12.5073 11.9162 12.274 11.567 11.9799 11.2729C11.6858 10.9788 11.3366 10.7455 10.9523 10.5863C10.568 10.4271 10.1562 10.3452 9.74023 10.3452H6.99017V5.20452C6.99017 4.38713 6.32666 3.72485 5.51051 3.72485C4.69313 3.72485 4.02962 4.38713 4.02962 5.20452V11.943L3.53722 12.0353C3.1915 12.1002 2.86745 12.2503 2.59452 12.4722C2.32158 12.6941 2.10841 12.9806 1.97437 13.3058C1.84033 13.631 1.78966 13.9846 1.82698 14.3343C1.86429 14.6841 1.98841 15.019 2.18804 15.3086L2.38623 15.5966L3.35134 17" stroke="#9D9D9D" stroke-linecap="round" stroke-linejoin="round"/>
<path d="M1.20812 6.45279C1.05638 5.80081 1.05385 5.12299 1.20071 4.4699C1.34757 3.81681 1.64004 3.20532 2.05629 2.68107C2.47253 2.15682 3.0018 1.73335 3.6046 1.44227C4.2074 1.15118 4.86815 1 5.53755 1C6.20695 1 6.8677 1.15118 7.4705 1.44227C8.0733 1.73335 8.60257 2.15682 9.01881 2.68107C9.43506 3.20532 9.72753 3.81681 9.87439 4.4699C10.0213 5.12299 10.0187 5.80081 9.86698 6.45279" stroke="#9D9D9D" stroke-linecap="round" stroke-linejoin="round"/>
</svg>
