<svg width="25" height="24" viewBox="0 0 25 24" fill="none" xmlns="http://www.w3.org/2000/svg">
<path fill-rule="evenodd" clip-rule="evenodd" d="M6.73404 8.50272C6.05379 8.95622 5.75 9.50036 5.75 10V10.25H13.25V10C13.25 9.50036 12.9462 8.95622 12.266 8.50272C11.591 8.05271 10.6152 7.75 9.5 7.75C8.38477 7.75 7.40905 8.05271 6.73404 8.50272ZM5.90199 7.25464C6.85565 6.61886 8.12993 6.25 9.5 6.25C10.8701 6.25 12.1443 6.61886 13.098 7.25464C14.0464 7.88693 14.75 8.84279 14.75 10V11C14.75 11.4142 14.4142 11.75 14 11.75H5C4.58579 11.75 4.25 11.4142 4.25 11V10C4.25 8.84279 4.95356 7.88693 5.90199 7.25464Z" fill="#2D4356"/>
<path fill-rule="evenodd" clip-rule="evenodd" d="M10.8238 2.63278C12.0506 1.76384 13.7062 1.25 15.5 1.25C17.2938 1.25 18.9494 1.76384 20.1762 2.63278C21.4011 3.50043 22.25 4.7685 22.25 6.25V22C22.25 22.4142 21.9142 22.75 21.5 22.75C21.0858 22.75 20.75 22.4142 20.75 22V6.25C20.75 5.38429 20.2558 4.52736 19.3091 3.85681C18.3643 3.18755 17.0199 2.75 15.5 2.75C13.9801 2.75 12.6357 3.18755 11.6909 3.85681C10.7442 4.52736 10.25 5.38429 10.25 6.25V7C10.25 7.41421 9.91421 7.75 9.5 7.75C9.08579 7.75 8.75 7.41421 8.75 7V6.25C8.75 4.7685 9.59892 3.50043 10.8238 2.63278Z" fill="#2D4356"/>
<path fill-rule="evenodd" clip-rule="evenodd" d="M9.5 13.25C9.91421 13.25 10.25 13.5858 10.25 14V14.5C10.25 14.9142 9.91421 15.25 9.5 15.25C9.08579 15.25 8.75 14.9142 8.75 14.5V14C8.75 13.5858 9.08579 13.25 9.5 13.25Z" fill="#2D4356"/>
<path fill-rule="evenodd" clip-rule="evenodd" d="M5.84199 13.3106C6.23123 13.4522 6.43193 13.8826 6.29028 14.2718L6.11929 14.7417C5.97764 15.1309 5.54726 15.3316 5.15802 15.19C4.76878 15.0483 4.56808 14.6179 4.70973 14.2287L4.88072 13.7589C5.02237 13.3696 5.45275 13.1689 5.84199 13.3106Z" fill="#2D4356"/>
<path fill-rule="evenodd" clip-rule="evenodd" d="M2.84203 20.8106C3.23127 20.9522 3.43196 21.3826 3.29029 21.7719L3.11928 22.2417C2.97761 22.6309 2.54723 22.8316 2.158 22.69C1.76876 22.5483 1.56807 22.1179 1.70974 21.7287L1.88075 21.2588C2.02242 20.8696 2.4528 20.6689 2.84203 20.8106Z" fill="#2D4356"/>
<path fill-rule="evenodd" clip-rule="evenodd" d="M9.5 20.75C9.91421 20.75 10.25 21.0858 10.25 21.5V22C10.25 22.4142 9.91421 22.75 9.5 22.75C9.08579 22.75 8.75 22.4142 8.75 22V21.5C8.75 21.0858 9.08579 20.75 9.5 20.75Z" fill="#2D4356"/>
<path fill-rule="evenodd" clip-rule="evenodd" d="M9.5 16.75C9.91421 16.75 10.25 17.0858 10.25 17.5V18.5C10.25 18.9142 9.91421 19.25 9.5 19.25C9.08579 19.25 8.75 18.9142 8.75 18.5V17.5C8.75 17.0858 9.08579 16.75 9.5 16.75Z" fill="#2D4356"/>
<path fill-rule="evenodd" clip-rule="evenodd" d="M4.42759 16.8252C4.81683 16.9669 5.01752 17.3973 4.87585 17.7865L4.53383 18.7262C4.39216 19.1154 3.96178 19.3161 3.57255 19.1745C3.18331 19.0328 2.98262 18.6024 3.12429 18.2132L3.46631 17.2735C3.60798 16.8842 4.03836 16.6836 4.42759 16.8252Z" fill="#2D4356"/>
</svg>
