<svg width="22" height="18" viewBox="0 0 22 18" fill="none" xmlns="http://www.w3.org/2000/svg">
<path d="M15.4444 17.0001V15.2223C15.4444 14.2793 15.0698 13.3749 14.403 12.7081C13.7362 12.0414 12.8318 11.6667 11.8888 11.6667H4.77772C3.83473 11.6667 2.93036 12.0414 2.26357 12.7081C1.59677 13.3749 1.22217 14.2793 1.22217 15.2223V17.0001" stroke="#9D9D9D" stroke-linecap="round" stroke-linejoin="round"/>
<path d="M8.33333 8.11111C10.297 8.11111 11.8889 6.51923 11.8889 4.55556C11.8889 2.59188 10.297 1 8.33333 1C6.36965 1 4.77777 2.59188 4.77777 4.55556C4.77777 6.51923 6.36965 8.11111 8.33333 8.11111Z" stroke="#9D9D9D" stroke-linecap="round" stroke-linejoin="round"/>
<path d="M20.7776 17V15.2222C20.777 14.4344 20.5148 13.6691 20.0322 13.0465C19.5495 12.4239 18.8737 11.9792 18.111 11.7822" stroke="#9D9D9D" stroke-linecap="round" stroke-linejoin="round"/>
<path d="M14.5556 1.1156C15.3204 1.31142 15.9983 1.75622 16.4824 2.37988C16.9665 3.00353 17.2292 3.77056 17.2292 4.56005C17.2292 5.34953 16.9665 6.11656 16.4824 6.74021C15.9983 7.36387 15.3204 7.80867 14.5556 8.00449" stroke="#9D9D9D" stroke-linecap="round" stroke-linejoin="round"/>
</svg>
